/* XPM */
static char *_27ef7bf5dd64954c476eee12b985cf2PzDpYeCeA00SH9kM[] = {
/* columns rows colors chars-per-pixel */
"64 64 246 2 ",
"   c #041D2C",
".  c #061A2A",
"X  c #011F33",
"o  c #101E3B",
"O  c #012135",
"+  c #0D293E",
"@  c #05263A",
"#  c #112035",
"$  c #37283F",
"%  c #052B43",
"&  c #0C2C43",
"*  c #082E4A",
"=  c #122B43",
"-  c #132947",
";  c #0A3149",
":  c #012F53",
">  c #0B3753",
",  c #0C3B55",
"<  c #0D3C5B",
"1  c #063959",
"2  c #123552",
"3  c #133B54",
"4  c #133B5B",
"5  c #173757",
"6  c #103B4E",
"7  c #3E254D",
"8  c #3A294C",
"9  c #3A2A48",
"0  c #3F2554",
"q  c #0D3D61",
"w  c #053865",
"e  c #123B61",
"r  c #123B65",
"t  c #383D6D",
"y  c #3C3D77",
"u  c #40254E",
"i  c #42294D",
"p  c #442449",
"a  c #48314E",
"s  c #422450",
"d  c #472C55",
"f  c #492B56",
"g  c #4A2C59",
"h  c #472657",
"j  c #4E315B",
"k  c #463254",
"l  c #52355F",
"z  c #52395F",
"x  c #502B58",
"c  c #4C3565",
"v  c #4D3A62",
"b  c #4C366D",
"n  c #423C6E",
"m  c #4C3A6C",
"M  c #463769",
"N  c #563666",
"B  c #5A3564",
"V  c #553965",
"C  c #5A3A66",
"Z  c #573768",
"A  c #593669",
"S  c #54396A",
"D  c #5A3C6A",
"F  c #443C74",
"G  c #4B3C72",
"H  c #453E7A",
"J  c #4A3A75",
"K  c #543671",
"L  c #5B3671",
"P  c #533C71",
"I  c #5D3E71",
"U  c #543E7C",
"Y  c #522E67",
"T  c #623C67",
"R  c #623C6C",
"E  c #663A6C",
"W  c #613C71",
"Q  c #6A3C7C",
"!  c #491D4E",
"~  c #12415E",
"^  c #0B435E",
"/  c #0E456B",
"(  c #0E4C6A",
")  c #0E4764",
"_  c #134465",
"`  c #134965",
"'  c #14466C",
"]  c #1A456C",
"[  c #13496C",
"{  c #1A486A",
"}  c #0D4A72",
"|  c #134672",
" . c #144A73",
".. c #1B4D74",
"X. c #164D7D",
"o. c #1C5475",
"O. c #15547D",
"+. c #1B547B",
"@. c #17587C",
"#. c #0B527E",
"$. c #2C437C",
"%. c #2E4879",
"&. c #3B4375",
"*. c #33447B",
"=. c #3B447C",
"-. c #364879",
";. c #22537B",
":. c #225477",
">. c #2F4368",
",. c #46426E",
"<. c #5A4066",
"1. c #5E426D",
"2. c #564369",
"3. c #434373",
"4. c #4C4374",
"5. c #43437C",
"6. c #4A447C",
"7. c #5D4373",
"8. c #564577",
"9. c #60436F",
"0. c #60436F",
"q. c #624373",
"w. c #664377",
"e. c #4F3E82",
"r. c #184D8C",
"t. c #0D5688",
"y. c #145483",
"u. c #1B5582",
"i. c #145A83",
"p. c #1B5A84",
"a. c #14568B",
"s. c #1A558A",
"d. c #145A8B",
"f. c #195B8C",
"g. c #0C5A93",
"h. c #0D5A97",
"j. c #135C93",
"k. c #1A5C91",
"l. c #145D9C",
"z. c #1A5995",
"x. c #0E4D88",
"c. c #2C4B8A",
"v. c #2A4B84",
"b. c #334983",
"n. c #384885",
"m. c #215583",
"M. c #235989",
"N. c #3A5B8B",
"B. c #255B93",
"V. c #395D96",
"C. c #264C92",
"Z. c #19618E",
"A. c #14639C",
"S. c #186496",
"D. c #15699A",
"F. c #2D6B9D",
"G. c #246B9C",
"H. c #346293",
"J. c #3A669B",
"K. c #366799",
"L. c #29719C",
"P. c #33729D",
"I. c #31608E",
"U. c #105DA1",
"Y. c #0B60A5",
"T. c #1363A3",
"R. c #1A6AA7",
"E. c #1C71A4",
"W. c #1D73AC",
"Q. c #1A76AB",
"!. c #1B79B7",
"~. c #246DA4",
"^. c #2B6DA5",
"/. c #246CAB",
"(. c #2B6EAB",
"). c #2267A8",
"_. c #336BA4",
"`. c #3569A7",
"'. c #2371A4",
"]. c #2A73A5",
"[. c #2373AC",
"{. c #2A73AC",
"}. c #2B78AC",
"|. c #3272AA",
" X c #3674A7",
".X c #2A6FB2",
"XX c #2374B4",
"oX c #2878B5",
"OX c #3476B4",
"+X c #434582",
"@X c #474B89",
"#X c #435B8C",
"$X c #515792",
"%X c #42639A",
"&X c #58699D",
"*X c #6A6491",
"=X c #4567A5",
"-X c #576CAA",
";X c #4975AB",
":X c #4D79B3",
">X c #4B7DBB",
",X c #4379B9",
"<X c #547BB6",
"1X c #5372AB",
"2X c #666AA6",
"3X c #6472AC",
"4X c #6C74AE",
"5X c #4C7FC1",
"6X c #5A7DC1",
"7X c #3484BE",
"8X c #3A88BC",
"9X c #3282B6",
"0X c #4785BC",
"qX c #5484B9",
"wX c #2C89C6",
"eX c #2D8DCE",
"rX c #2B84C8",
"tX c #348CCB",
"yX c #3B8CCB",
"uX c #3887C4",
"iX c #2F91CF",
"pX c #3891CD",
"aX c #2B8CD3",
"sX c #298FD9",
"dX c #358CD5",
"fX c #2D92D6",
"gX c #3393D5",
"hX c #3B94D5",
"jX c #3495DA",
"kX c #3B9BDC",
"lX c #3B93DA",
"zX c #35A3DE",
"xX c #2C9AE5",
"cX c #359BE3",
"vX c #3A99E6",
"bX c #328EE1",
"nX c #3AA1E7",
"mX c #36A0F4",
"MX c #418BCC",
"NX c #4586C4",
"BX c #5383C6",
"VX c #4994CE",
"CX c #4496D6",
"ZX c #428DD1",
"AX c #439CE4",
"SX c #43A2E7",
/* pixels */
"7 9 i i u 7 u u u u i s s 7 s s p s i 9 8 8 i p p i 9 8 u ! ! p h p p p p p p i 7 s h s s u p i i 7 i 7 i s s s 7 u 7 s 7 7 7 9 ",
"7 7 7 7 i i d f h f d f d h d f x x f d 8 d f f i i 8 k f f x f g f g a g f d f g g h g x x f f f d h d d d h f f d p u 7 7 7 i ",
"7 7 i 7 7 d N 1.D D D 1.D 1.1.C T T D D 7.D R T q.R 1.1.2.2.1.1.D C C <.C 2.1.D D 1.D 1.D D R T C 1.D 1.1.D C 1.D V d u 7 i i 7 ",
"7 7 i i d l C q.q.0.0.0.1.0.0.1.0.0.0.q.7.q.w.Q Q 7.8.8.2.2.8.7.w.w.9.9.1.1.q.0.q.q.7.8.8.q.0.E 0.0.0.1.0.0.0.q.0.D j d i i i 7 ",
"i 7 i d N C D D D Z D Z D D D V C T B D D N A L e.@X+Xe.+X4.m G m S G S D E A A D m 2.m 2.S Z Z D D D D V D Z D Z T 1.z d 7 7 i ",
"u u f l C 1.D N C N C C N V N N N A A D v c G 6.n.=X6X<X1Xn.t 3.&.y F b Z A E A Z S m S V V D S N N D V C N N C N Z 1.D l h s u ",
"7 f V D D C Z Z N A Z N N N N V N N Z D v M N._.MXZXyXyXlXrX^.F.K.K.V.e.K Y B B A Z N A N l S A S N Z Z Z Z Z N Z C C C D V f 7 ",
"7 g C 0.D N N Z A A Z D Z Z V N S S S S v 3.;XVXuXtXtXfXxXxXiXtX'.{.`.%XH Z L B A N Z A l T A K N N Z N Z Z A A Z N A D 1.D g i ",
"i f 1.0.Z N Z Z A Z W q.Z A N Z v S c S F =.<X0XOXz..XrXsXmXbXbX!.XX/.OX#XM P S B l B Z N N S S A A Z Z A A A A A A B C 0.1.d u ",
"s f D 0.D C Z Z A D I R Z Z N Z V c D G H 4X<Xc.c.V.(.oX!.aXvXvXsXaXXX^.J.%.&.G N T S V S A S A S D D D Z A A A A N A D 1.1.d u ",
"s d D 0.D A N Z A A Z D Z N Z Z N R N b 2X3Xy =.b.=X^.[./.oXyXAXmXsX!.W.].H.H.-.v B S N L A B B A D I D D Z A D S N N D 0.1.h s ",
"s h D 0.C V Z Z A A Z Z Z Z N Z W Y A K H y J H *.J.].'.d.d.l.rXcXcXiXW.E.L. XV.,.c b K L A B B A I q.q.W D Z A A N N Z 0.Z g u ",
"s g D 1.D V N Z N A N A Z Z Z Z Y Y R D J M 4.&.I.].].L.i.@.i.D.eXAXuXg.g.'.W.].N.&.J @XY B N <.R 7.w.w.q.7.Z Z Z N V D q.1.f 7 ",
"7 g 1.7.D N Z Z N A S N Z Z D Z W A N A A S 3.#XP.G.d.j.y.+.p.#.A.yXAXwXD.E.W.oXK.-.n.&XP B B V 1.q.w.w.q.W D A Z N V V 1.D h 7 ",
"7 d C 1.V N A N A S S A S S V V j D S N A P -.H.F.Z.i.p.s.y.p.@.s.A.hXtXt.g.[.~._.V.C.-X2.z N N D D 7.q.1.Z Z Z N N N D 1.1.d 7 ",
"i d 1.1.D N N N N A N S N c V V v N N S S n V. XL.y.i.y.s.B... .} x.yXCXg.Z.'.}.|.`.C.-XG V N V V D 7.7.D Z Z Z N N N D 7.D d i ",
"7 d 1.1.Z Z Z Z Z N C N Z C S N m N N L M &.K.].i.@.i.y.u.+. .' ' } i.9XZ.@.t.]./.(.C.3XF V V N V Z Z Z Z Z D Z Z Z B V 0.1.d 7 ",
"i d D 0.D Z Z Z Z N N N A S N S m m S S 5.#XF.d.i.p.@.p.m. ./ ' ' [ /  .o.@.@.t.[.).C.-X+Xm S Z V S Z Z Z Z Z Z Z Z A D 0.1.d 7 ",
"7 d D 1.D Z Z Z N C N N N N S S *X4.S m &.%X_.d.u.u.X.m.m.} | ' ] ] r < _  .@.s.(.).z.>X&X3.v Z S D Z Z Z Z Z Z Z N C D 7.D h 7 ",
"i d D q.D Z Z Z N N C B S A S S *X,.c G -.H.^.d.s.M.m.+. ./ } ' ] r e 4 , ^ +.B.(./.'.0XqX-.m N S Z Z Z Z C Z Z Z A N Z 0.1.g 7 ",
"i d 1.0.D A A S N A N N A A Y S P m V 4.V._.S.l.OXa.p.@./  .[ ' q < 5 4 > ) ..m.^.[.XX8X>X*.b A N Z Z Z Z Z Z Z S N C D 0.D d 7 ",
"7 d C 0.D A A A N A N N A Z Z S Z Z C t K.].g.7XCXd.@.@./ ..[ ( 1 q > 5 < e r u.f.E.9XuX>X$.G A N S Z Z Z N Z N A N N Z 0.1.g 7 ",
"i d D 0.Z A S A S A N A S S Z S S c M -.^.W.T.ZXyXl.y.o.' ] _ 1 ^ ^ > 3 3 > < p.d.E.Q.iX5Xn.G B Z Z Z Z Z Z Z D A N N D 7.D g 7 ",
"i d D q.D A S N N N A S N N S S L S ,.N.F.W.iXlXT.a.O.[ ' ] ] e 1 , 6 ; % * q o.f.E.Q.tX5Xb.J A Z Z Z N N Z Z Z S N C Z 1.1.g 7 ",
"7 d Z q.D A A Z Z N N A A S N Z Z m &.J.'.!.iXkXl.s.u.[ ' _ { 4 1 > = + = ; { @.u.~.XXtXuXm.H N Z Z Z N Z Z Z Z A N C C 1.1.d 7 ",
"u d D 0.Z S Z Z Z C N N Z Z Z Z N P t I.}.wXcXjXj.s.u. .( _ _ 4 3 3 + = + @ ^ :.p.F.XXtXMX X6.S S Z Z N Z Z Z N N N A C q.D h 7 ",
"i d 1.0.D A Z Z S N C N Z Z N A A P -.K.{.gXvXY.a.m.@.} ( ) _ < 5 5 + = + O @ ` +.y.oXtXyX0X3.S Z S A A C S A N S N A D 1.D g 7 ",
"i d D 0.D Z Z Z A C N N Z N Z N A M %.F.XXlXbXU.s.+.@.( [ ) < 3 3 = = + + X O ; X.s.XXyXNX:XF S S V S N A A A S A N N Z 7.1.g 7 ",
"7 d 1.1.Z Z Z Z N N A N N C S S S F N.}.iXgXT.r.m.;. .( [ { < < 5 & & & +   O O :.f.h.yXNXv.4.S Z Z S N A S A N S N C D 0.1.d 7 ",
"u d D 0.D Z Z Z N A N N A S N S m ,.V.{.tXjXU.s.;.:.` ) ' ' < 4 3 % & -       O ..y.T.uX>X$.G S S N A S N A N A A N C Z 0.1.d 7 ",
"u d D 0.D A S A N N N N N A N S N F #XOXjXnXA.y.;.:.) ( [ ' 4 3 , ; & - . .   @ ..B.7XMX,Xn.m N Z N N S N S S A S N C Z 7.D h 7 ",
"u d D 0.D A A N Z C N C S A S S Z m b.`.vXgXg.p.+.:.( (  .' 4 5 6 % = # # .   @ :.y.T.MXBXn.G Z Z N A A A N A N A N C Z 0.1.g 7 ",
"i d 1.0.D Z Z Z N A N B Z Z S A N G b.>XCXT.g.u.+.o. .( [ ' 6 ~ , % & + . # .   ..Z.wXhXBXn.m N S S S N N A Z Z Z N N Z 0.1.f 7 ",
"7 d C q.D Z Z A S N N S Z N S Z N G $.BXCXg.s.i.o.o.| ' ' { , , 3 % + + . .   % :.d.eXvX>Xb.G A S V N A N A Z Z Z N C Z 0.1.h 7 ",
"i d D 0.D S D A A A S B N Z Z Z A G c.VXCXh.a.u.+.+.| | ' ' < 5 3 % & =   . O >.;.g.dXAX,X%.S B Z Z S A S A C Z Z S A C 1.D g 7 ",
"u d Z q.D A Z Z N N A N Z Z N A A 5.OXCXCXU.s.u.@.@. .| ' ' 4 5 2 ; = ; @ O @ :.u.l.dXAX`.*.S A N Z N A N A S Z Z N A C 7.1.g 7 ",
"7 d D 0.D Z Z Z N N C N A S S K A H NXzXhXU.s.+.@.@. .'  .' 4 5 5 > % + + + % +.x.R.AXCXJ.&.S D N Z Z Z Z Z N Z N N C D 0.1.d 7 ",
"u d D 0.Z Z Z Z A N N N A Z N Z L H 7XzXjXg.f.u.p.p.| | ( _ 4 5 5 5 ; % & ; : +.S.wXAXyXJ.3.c S S Z D D D Z A A S N A Z 0.1.d 7 ",
"i d D 0.D A N A N N C N Z Z S K L 5.7XzXgXA.s.u.u.y.| | ( _ r 5 5 4 , ; & * : d.wXvXlXOX&.v m S S S 7.I D A S S A N N D 7.D h 7 ",
"7 d 1.0.Z A S A S C N N N Z N Z L y NXzXtX[.y.+.p.u.| | ' _ e e 4 3 4 > * * : d.iXvXdX`.y v S m S 1.q.W D A A A N N C Z 0.1.g 7 ",
"u d C 0.D Z Z Z Z N C N Z C N A Z +X5XAXlX].y.p.u.u. .' _ _ e 4 4 4 < , > 5 } 8XkXcXoX`.n B V 2.7.q.w.q.D N N Z A N C C 0.1.d 7 ",
"i d 1.0.Z Z Z Z Z N N N A S N S Z F B.5XMXoXf.#.u.u. .' ` { r < < 3 > ~ 5 _  XVXCXwXXXV.4.l V S D 7.q.W D A S A A S A C 0.D g 7 ",
"7 d Z 0.D Z Z Z N C N N N A N S S H c.,XoXE.G.d.u.u. .' ` ` ) q > > , , > q s.S.rXR..X`.,.l N Z D S D A A S N N N N N D 7.D h 7 ",
"u d D q.D Z Z Z N N C N S A S S K J b.<XOXE.'.d.p.u.@.[ _ { _ e 4 ~ ~ 1 4 / O.d.l.l..X=X,.C C A S Z S N N A A S S A N Z 0.1.g 7 ",
"i d D 0.D A Z Z A A N B S A N N A m *.:X{.[.E.Z.y.p.u. .' ' ' _ 1 ~ > , ^ 1 p.j.j.(.`.V.F A C N A Z Z Z N S A A S N N C 0.D f 7 ",
"i f D 0.D A Z Z S N N N S A Z S S m n.:X{.[.[.'.s.p.u.+.[ ' ] ' { 4 ~ ~ < 1 u.y.G.|._.c.G l C N N Z Z Z A S A N S N C D 1.1.g 7 ",
"7 d 1.0.Z A D S A N N A N N N A A G *.<XuXoX[.'.f.y.u.+...' ' ' { > ~ 1 < :.m.p.L.P.H.y P Y D N V Z Z N N N S N A N N D 7.S g 7 ",
"i d D q.Z A S A N N A S A N S S S P *.:X0X(.W.].j.s.a.s.y. .[ { _ { 1 < _ +.p.s.L.L.J.n.b P Z V S Z Z Z A N A N A N N D 0.1.g 7 ",
"7 d D 1.D V V N N Z N Z Z V S N A G *.:Xb.J.].'.G.j.7XD.r.| [ ` { ' q w +.+.S.D.G.P.#Xy 5.4XF P S S N S S A N B S N V D 7.1.d 7 ",
"u d 1.1.D N N N Z Z Z Z Z D V N A b b.1Xn.$.F.}.'.j.hXhXA.s. .` ` / m.s.s.d.].].}.B.y 6.5.4XU K S S S N B S A S A N N D 1.1.d 7 ",
"s d D 0.D N A S Z Z Z Z Z Z S N N S n.1X=.%.I.P.{.E.T.hXpXj.y.} o.m.+.u.a.j.)._.K.%.5.M m S S S S N N S A A S A S N N Z 7.D g 7 ",
"0 f D 1.D N N N Z N Z Z N Z Z N A K y 3X3X-.%.N.^./.XXoXCXT.x.I.p.@.y.a.g..X(.`._.v.n.&XP N Z N S N A S S N A S A N N Z 7.1.h 7 ",
"i d D 1.Z C N N A A N N Z Z Z N C c =.3X2Xt n -.`.(.XX!.lXwXtXg.j.G.S.E.Q.[.{.^.r.,XNXqXG S V z N N C S A S A A S B A D q.1.d 7 ",
"s f 1.1.Z C N A A A Z A Z Z Z N N m +X2X3.m D M J.(./.XX!.cXnXrXT.XXQ.Q.!.XXW.MXNXNX8X;XH N V z N S Z Z S A A N A S S D 1.1.h s ",
"s d D 0.D C A A N A S A Z Z Z N S m 4.2XP D N m %X`.].W.!.aXjXnXfXaX!.aX!.!.eXtXMX,Xb.5.b L l V N A A Z A A A A A N Z D q.D g 7 ",
"s g D q.D Z A Z N A Z Z Z Z N D S S G J S A l 2.=.V._.~.!.!.aXkXvXcXvXbXsXaXfXtX,Xc.H S L B N V N S N N A A N A A N Z Z q.D d s ",
"i g 1.0.w.D Z A Z Z C S A N N Z A K K K S N z v J H =.V.|.XX!.gXjXxXmXmXsXfXgXNXc.J b S S N N N A S A S A S A A A N C D q.D g i ",
"u d l D q.q.R D Z A N A N A C Z A Y N N N v z z S K b =.V.`. XOXyXbXdXsXfXdXNX:Xe.K A S N B A A N N N S N N N N A N C D D V f 7 ",
"i u d l 1.q.0.D D A C A V V N Z B B B T N V z z S S S b @X@Xn.n.<X6X5X5XBX;Xn.J S S A B A B A A N N Z V S B A C N D 1.D N f s 7 ",
"u 7 i f V 0.q.q.D D C D Z D D D A E L E Z V 2.2.v S R A U e.J 6.+Xn.n.b.n.n.J L C C C T C C W A Z C D Z A D D Z Z D D N h 7 7 s ",
"7 7 7 i f l D q.0.1.q.1.1.1.7.0.0.0.w.w.0.0.R W 9.1.0.0.0.w.q.w.8.8.4.8.8.8.W w.0.0.0.0.7.q.Q Q q.0.0.0.7.q.7.7.q.N j d 7 i 7 7 ",
"7 i i 7 u d V C D 1.1.D 1.D 1.<.<.C D D <.C R E 7.1.T T C 1.D V <.<.2.2.D W 0.D C C T T 1.D W D I D D 1.D 1.D 1.1.N f 7 7 i 7 7 ",
"9 7 7 7 7 7 d j f g g d d d d d a i c g k f x x g h g k a a g d k k d d g x x f f g g 8 d k a k g g d g g h g g g f s i 7 7 7 i ",
"i 7 7 7 s i i i s s s s s 7 i 7 9 8 0 s 9 p s h h 7 i i $ 9 8 s u d 0 7 i p p ! h s 8 8 8 8 9 9 7 s 7 7 s s 7 s s 7 7 7 7 7 7 7 "
};
