/* XPM */
static char *_fd6396411a74b80da5454e9257198f4gphr6CLxKvZpFHJe[] = {
/* columns rows colors chars-per-pixel */
"64 64 243 2 ",
"   c #041C2C",
".  c #011D25",
"X  c #061E34",
"o  c #0C283B",
"O  c #07243A",
"+  c #05232D",
"@  c #3F1E49",
"#  c #0C2B43",
"$  c #022C4B",
"%  c #0C2E4A",
"&  c #042944",
"*  c #112B43",
"=  c #122747",
"-  c #0D324B",
";  c #09334A",
":  c #0D3B55",
">  c #0D3C5B",
",  c #083955",
"<  c #133653",
"1  c #123A55",
"2  c #123B5B",
"3  c #193952",
"4  c #10324D",
"5  c #3E2746",
"6  c #3D2945",
"7  c #3F254D",
"8  c #3B294B",
"9  c #3D2653",
"0  c #3E2A54",
"q  c #3C3359",
"w  c #093A62",
"e  c #123E63",
"r  c #3B3C6C",
"t  c #3A3C77",
"y  c #3B2D60",
"u  c #461F54",
"i  c #40254E",
"p  c #422A4D",
"a  c #45234A",
"s  c #412451",
"d  c #472C56",
"f  c #492C56",
"g  c #452D5B",
"h  c #4A2C59",
"j  c #492052",
"k  c #4D315B",
"l  c #463155",
"z  c #52355E",
"x  c #56395E",
"c  c #5A2F64",
"v  c #4D3565",
"b  c #4B356B",
"n  c #443B6C",
"m  c #4C3C6B",
"M  c #483866",
"N  c #563666",
"B  c #5A3565",
"V  c #553965",
"C  c #593A66",
"Z  c #573768",
"A  c #593669",
"S  c #543969",
"D  c #5A3C6A",
"F  c #433773",
"G  c #443C72",
"H  c #4C3C73",
"J  c #453D7B",
"K  c #493C7C",
"L  c #5C3672",
"P  c #523B73",
"I  c #5E3D71",
"U  c #543773",
"Y  c #412D60",
"T  c #623B6B",
"R  c #613967",
"E  c #643F73",
"W  c #6A3F72",
"Q  c #0B425C",
"!  c #0C4056",
"~  c #11405E",
"^  c #0E4A6E",
"/  c #0B4465",
"(  c #144465",
")  c #14466C",
"_  c #18446C",
"`  c #13496D",
"'  c #19496D",
"]  c #174667",
"[  c #154672",
"{  c #144A73",
"}  c #1B4B75",
"|  c #1B4D7A",
" . c #154776",
".. c #15537D",
"X. c #1B547E",
"o. c #19587D",
"O. c #175678",
"+. c #134971",
"@. c #2A477C",
"#. c #344275",
"$. c #35437B",
"%. c #3C437A",
"&. c #33497C",
"*. c #3A4A7C",
"=. c #3C4474",
"-. c #215477",
";. c #4B426D",
":. c #554266",
">. c #55416D",
",. c #5E436E",
"<. c #5A466A",
"1. c #434376",
"2. c #4A4174",
"3. c #43447B",
"4. c #4C437B",
"5. c #42487C",
"6. c #544473",
"7. c #5D4371",
"8. c #574979",
"9. c #48517C",
"0. c #61436F",
"q. c #61436F",
"w. c #624372",
"e. c #654278",
"r. c #353E81",
"t. c #0D5688",
"y. c #155584",
"u. c #1C5482",
"i. c #135A84",
"p. c #1B5983",
"a. c #1D538A",
"s. c #135B8B",
"d. c #1A5B8B",
"f. c #14548A",
"g. c #0E5D95",
"h. c #0F5F9C",
"j. c #145B93",
"k. c #1B5D94",
"l. c #165A98",
"z. c #144F8C",
"x. c #2B4A87",
"c. c #3A4282",
"v. c #3B4B83",
"b. c #344885",
"n. c #215481",
"m. c #255587",
"M. c #385687",
"N. c #225F91",
"B. c #395D95",
"V. c #0C6096",
"C. c #0D629A",
"Z. c #146295",
"A. c #12619A",
"S. c #1D6598",
"D. c #166593",
"F. c #256A9F",
"G. c #28669A",
"H. c #34659C",
"J. c #3C659C",
"K. c #366A9C",
"L. c #386799",
"P. c #23709C",
"I. c #1A6CA9",
"U. c #1D72AC",
"Y. c #1B72A6",
"T. c #1D79B4",
"R. c #1C76B7",
"E. c #0E64A1",
"W. c #246CA3",
"Q. c #2A6DA4",
"!. c #256EAB",
"~. c #2C6DAA",
"^. c #2E65A8",
"/. c #336AA3",
"(. c #3668A4",
"). c #2372A5",
"_. c #2B71A4",
"`. c #2573AB",
"'. c #2B71AA",
"]. c #257AAB",
"[. c #3172AA",
"{. c #3672A8",
"}. c #266DB4",
"|. c #2474B2",
" X c #2B73B5",
".X c #2477B8",
"XX c #3779B7",
"oX c #326BB2",
"OX c #434B82",
"+X c #454682",
"@X c #465587",
"#X c #465D99",
"$X c #466499",
"%X c #5A699A",
"&X c #67679A",
"*X c #415EA0",
"=X c #4968A6",
"-X c #566DA8",
";X c #4975AE",
":X c #5975AC",
">X c #4778B7",
",X c #5577B5",
"<X c #6868A2",
"1X c #6770A5",
"2X c #685C8E",
"3X c #197CC1",
"4X c #3B7FC4",
"5X c #267EC3",
"6X c #487FC1",
"7X c #517EC2",
"8X c #3782BA",
"9X c #2D86BE",
"0X c #4883BA",
"qX c #5581BB",
"wX c #1D80C3",
"eX c #2B88C9",
"rX c #348CC4",
"tX c #3B8AC6",
"yX c #3489CC",
"uX c #3B8BCC",
"iX c #3A85C8",
"pX c #3991CB",
"aX c #2C8CD2",
"sX c #338DD4",
"dX c #3A8DD3",
"fX c #348BD9",
"gX c #2B93D5",
"hX c #3392D4",
"jX c #3C93D5",
"kX c #3B99D5",
"lX c #339ADB",
"zX c #3A96D8",
"xX c #3AA2DF",
"cX c #2F9CE8",
"vX c #349BE4",
"bX c #3A9DE7",
"nX c #339DF1",
"mX c #38A2E9",
"MX c #4786C4",
"NX c #4394D4",
"BX c #4799D7",
"VX c #4889C7",
"CX c #499CE0",
/* pixels */
"5 7 p 7 i 7 i i i i i i s 9 i i 7 7 7 9 s s j a a a 6 6 a a i 9 5 s s 9 s 8 s a s s j u s i 5 7 s i s 9 i i s s 7 i i i p 7 5 7 ",
"i 7 7 5 i p f h f f h h d d d h f l l g f f f h f l l p f f f h f f l d q q h h h h h h p p f f d d d h f d f f f f s i 5 7 7 7 ",
"7 7 7 7 i d V ,.D D D D <.D C <.,.C D T D D >.:.,.q.R R q.R D C D V <.8.%X9.:.C T T D <.<.:.q.T D <.D D D ,.D ,.Z N d i 5 p 7 7 ",
"7 7 p p f k C w.q.q.0.0.q.q.0.,.0.q.q.q.w.w.7.8.,.q.e.w.w.w.w.w.w.w.0.8.1XOX7.w.q.q.,.,.<.q.w.W w.,.0.0.0.,.q.0.w.C k f s p p 7 ",
"s 5 7 d z D D D D Z D Z Z D S C N C V :.C :.S S V C T A A Z Z Z S I S >.4.J S E A N S :.C S L L D Z D S D D Z D D D <.x d 7 7 i ",
"9 s d z D ,.D N C B C C N N V C A B V V S S S S D A S b J 1.1.%.t 1.n n 1.<X8.v S V S S C A A A Z C N Z C C C N N D D D N d i 7 ",
"5 h C ,.D C B Z Z B Z Z N Z V N A L L A Z Z A A A A G v.B.K./.G.(.B.1.G +X1X<XJ S S S S N N Z S Z C Z Z Z Z A A A B C D D V h 5 ",
"i h D ,.D B Z Z A A Z Z Z Z Z Z A L A L S S A S L K M.H.F.Y.|.|.`.[.B.$.#.*.:X$.G S H Z A A N N C N Z Z N Z N A Z N B D ,.D k s ",
"i d D q.Z N Z Z Z D E I Z Z B Z Z V V C N V Z S H t $X_.`.U.I.|.|.!.Q.K.B.@.,X,X*.n S S S A c C Z Z A A A N A B A N N Z w.D h i ",
"i h D q.D C C Z A D D E Z Z Z Z S N Z V x v :.4.t =X~.`.U.U.|.!.~.W.)._.G.u.a.,X:X2.S N A L N V N D D D Z A A A A N C D 0.,.d i ",
"s f <.q.D B Z Z N A Z D Z N N N C z V z V ;.r &.(.8XR..XyX`.`.W.k.W.'._._.S.z.MX,X#.M V S S A B Z D I D D Z A D Z N B Z w.D f i ",
"s f D w.Z C N Z A A Z Z Z Z Z Z V V D Z g 9.&.{.tXsXfXhXhXC.t.s.z.G.F.`.`.U.R.VX4XM.;.C Z v A A Z I w.w.w.D Z Z Z N N D q.D f i ",
"s d D w.D C N Z Z N Z A Z Z S N I S b b t -X8XpXbXvXvXmXlXeXC.g.y.t.V.Y.Y.Y..XeXhX{.=.V N Z D S 7.w.e.e.w.I Z Z Z N N D ,.,.d 7 ",
"9 f D ,.S N Z Z Z Z Z N Z Z S S V Z U K M.7XpXaXaXaXaXaXlXmXxXrXs.o.s.s.P.Y.}.3XaXVXv.b N D P S I w.w.w.w.w.D A N N N S w.D d 7 ",
"i d D 0.D N N N Z Z S N V V N C x C U K ;XMXeXR.|.l.l.A.9XrXNXBXs...p.y.D.F.!.}.aXNX=X4.S C S S Z ,.w.7.,.Z Z Z C N N D 0.>.d 7 ",
"i d <.0.S N N Z N Z A S V V V C C N J b.>X X|.|.j.y.s.s.s.j.A.XXp.{ [ n.X.p.~.5XhXdX,Xc.m C m Z S D 7.7.D Z Z Z N N N D q.D d i ",
"i f R q.x V V N A A Z b S S C B B H b.;X0XQ.~.~.d.y.i.i.i.{ ^ { ` _ ) ` O.p.G. XsXjX>X#.v V S S Z Z Z D D Z D Z A N B D ,.D f 9 ",
"7 f R q.R C C N A L A Z b V B B Z H ,X0Xt.G.~.a.u.o.o.i...{ ] ` ` ( _ ] / { N.!.5XdX>X&.m N S Z S Z Z Z Z Z A C Z N C Z w.<.f i ",
"7 d D q.C C S N L c A A S N B B D G :Xx.G.Q.[.k.y.X.o.o.| [ ` _ ] > w / , / y.k.5XdX>Xx.m C V S Z S Z Z Z Z C Z Z Z N D w.D d 9 ",
"7 d ,.q.C N Z Z A A A A Z Z B B M 4.&Xx.H.Q.W.y.u.p.p...{ [ _ ( e , > > , Q  .f.I.uXiXx.M C A Z S S Z Z Z Z Z Z Z N C Z q.D f i ",
"7 f T q.D N V Z A c A A A Z A A S 2XOXt a.F.s.d.X.n.X. .^ [ ( / > 2 > > > > e f.t.uXNX(.n N Z A Z N Z Z Z Z Z Z Z N B D q.D f 9 ",
"7 f D q.D N Z Z A A R A A A A S P n G *.B.!.s...u.n.-.[ ` ` ( > , e > > 2 > e u.g.pXCX>X1.N A Z Z S N Z Z Z Z Z Z N C D q.<.f i ",
"8 l q.q.D N S N A A A A A S Z S v >.n =./._.i.p.n.n.| [ ` ` _ 2 > 2 < < 2 < e } s.rXzX4X1.S A A D S Z Z C Z N Z Z N N Z w.D d 9 ",
"7 h D q.D Z Z S A A A A A S S m S v 2.@X/.j.y.X.n.|  .` ^ ( _ 2 2 < 2 < % & - e i.rXbXiX$.S D N Z Z N Z Z Z Z Z Z N C Z q.D f i ",
"7 d ,.q.T A N V V Z Z Z S m n m m S n $X^.j.p.X.X.-.[ [ ` ` 2 e : 2 4 % # % # $ i.rXmXyX&.v L A Z Z Z C Z Z Z C A N B Z w.D d 7 ",
"p d D q.D A Z S V v S D Z H 4.&X>.m ;.$X{.j...y.u.u.[ _ _ _ > > : 1 ; # * # * , ..rXcXyXb.b Z A Z Z Z Z Z Z Z Z Z Z C D 0.,.d i ",
"i f R q.A A S S S V N Z b b 1.&Xm ;.=.M./.j.t.i.p.u.[ _ ) ] > : 1 < # * * * o $ i.hXvXyXb.H S A Z Z Z Z B Z Z Z Z N N D ,.,.g i ",
"i f q.w.A A S S m v Z S S 2.1.&X6.n *.J.~.t.s.i.i.X. ._ _ ] / : 1 4 - o * o X & Z.hXbXdX$X1.b N V S Z Z Z Z Z Z N Z N Z q.D h 7 ",
"a d D w.D A Z S V x Z Z Z P 1.<XP G x.G.d.S.8XZ.i.y.[ _ [ _ > 1 : % # * X X   & 8XbXlX XB.G S >.Z S N Z Z Z B Z Z N C Z q.,.d 7 ",
"5 d D w.T A Z Z m V B A A H =.<XH r B.{.t.j.pX8Xs.X.[ ) ` ` > 2 1 # o o X X   & tXbXlX X=X%.m k V S Z Z Z Z Z Z Z Z C C q.D d 7 ",
"7 d :.w.A A A Z V x N R A U +X&XP 1.(.~.j.8XtXg.p.u.[ ^ ^ ^ : < 1 # # o X     & uXvXsX X*Xt m V V Z Z Z Z Z Z Z Z N N D w.D d s ",
"i d ,.q.L A A Z V V B A A U F 1.H G J.F.A.rXrXg.d.X.[ [ ^ ^ 2 2 1 o = o       $ NXbXyX XB.+X;.V S Z Z N C Z Z Z A N N D 0.D f 9 ",
"7 d <.w.D Z Z Z N N B A A S S b m n &.K.}.yXkXh.t.o.` ` ` ( w < 3 # # * . . O & MXyXh.~.B.1.m V V V Z Z N Z A Z Z Z C Z 0.D h 7 ",
"i d D ,.D A Z Z Z N N N A S S S S n #.K.}.sXBXV...o.{ [ _ ] e : 3 # # # + . X X w 8X`.[.J.=.2.V S S Z Z Z Z Z N Z N B D 0.,.d 7 ",
"i d D w.D Z Z Z Z N N B S A Z S N n &.K. XdXzXV.i.o.[ _ ( ( > > : ; o # o X X X ` d.).Q.L.#.g C N Z Z N N A Z Z Z Z C D q.,.g i ",
"i d D w.A Z Z A Z C N Z Z Z S Z N 6.v.(. XsXzXg.i.o.) [ ` ( e < : ; % o & O X & -.p.W.{.$Xt ;.C N Z Z Z Z Z Z Z Z N N Z ,.D f 7 ",
"i d D 0.D Z Z Z Z C N N Z Z Z Z A H *./..XsXjXA.i.n.[ ' ] ] 2 > : : # # = = o & ' m.P.{.#XJ b S V Z A D A Z Z N Z N C D w.,.f 7 ",
"7 d <.0.D Z Z Z Z N N C Z Z Z Z A b #.(.yXgXjXh.i.u.[ ) ] ] e > : : ; & = = # # -.O._.K.t t H 6.S S D D D Z Z Z Z N C Z ,.D d 7 ",
"i d D q.D Z Z Z Z N N C Z Z Z Z A b %.(.yXlXzXg.f.-.[ ) ] ] ( Q : 1 < % * # # % | o.k.(.t +X<Xr n D 7.D D Z A Z A N C Z w.D f 9 ",
"i f D q.D Z Z A Z C N N Z Z S Z A H 1.H..XaXkXV.a.n.[ [ _ ] ( ~ : 2 2 1 4 % % $ O.s.H.H.$.OX-XOXP ,.w.w.D Z S A Z N N D 0.D d s ",
"i d :.q.D A Z N Z N C C Z Z S Z U P OXH..XlXkXV.f.u.[ [ ) [ ( > 2 , 2 < : ! , Q y.s._.F.m.,X,X+X8.w.e.w.D Z N Z Z N N Z w.D h 7 ",
"i d D q.D A Z A Z N N N Z Z Z Z A P 5.$X'.zXzXV.y.X.| [ ` ` ( > : 2 2 < : : Q ..i.W._. XtXMX:XJ P 7.w.I D Z Z A Z Z C D 0.,.d 7 ",
"i d C q.Z Z Z Z Z B N N Z Z Z Z A S J =X XBXkXV.y.f.u.[ ` / ( > 1 2 > > : , ( y.d.).Y.R.gXiXc.F D D D D D A Z Z Z N N D q.,.d 9 ",
"i d ,.,.D Z Z Z Z N C C A N Z S D S H v.[.jXkXV.s.u.u. .[ ` ` ] 2 1 , > e > } a.i.`.|.eXzXuXt S S S Z Z Z Z C A Z N B Z ,.D f i ",
"7 h ,.0.D Z Z Z Z N N N Z Z Z S Z S Z t (.NXVXZ.y.p.f.y.[ } _ ] < 2 , ! > e n.m.D.Y.eXsXsX>Xn T S Z Z Z Z D Z D Z N C Z q.,.d 7 ",
"p d C 0.D A Z Z A N C N Z Z S Z V Z L K (.BXtXV.y.d.i.u.[ [ ( ] e 2 ! ! , e | a.W.`.5XsX4Xx.P z A Z Z Z Z Z Z Z Z N C D q.D f 9 ",
"7 d D 0.D Z Z Z Z C N B N Z S Z V N A F x.8XVXC.i.p.a.u.} _ ) ) e ( Q ! : / ..k.!..XaXfX6Xb.m B N Z Z Z Z Z N Z A N N C w.D f 7 ",
"i d D w.D Z Z Z Z N N N Z Z N Z B B L P b./.BXC.t.y.a.u.X.[  . .} _ ~ Q O.p.s.W..XyXfXVX;XJ v V N Z Z Z Z Z Z Z Z N N D 0.D f 9 ",
"i d :.q.S S N N N Z Z Z Z S N V N N A U r.7XBXeXR.t.u.X.o.` -.e [ [ ` X...P.T.T.yXsXdX>Xc.H N x N S V S D B A Z Z N V S 0.,.d 7 ",
"i d D q.S C N C Z Z C Z Z Z V N V D c P r.>XNXwXI.S...O.o... . .^ u.u.d.V.T.T.gXhXzXMXx.J v D z C Z S Z Z Z N Z Z C N D ,.<.f 9 ",
"s d <.q.D C A Z Z Z Z Z Z Z S Z Z Z V m v.7XfXaXY.P.p.O.u.f.j.l.j.j.l.4XE.eX3XlXlXBX>X+XH S N N N S N Z Z Z Z Z Z N N D w.D f 7 ",
"s d D q.S N N Z Z C Z Z Z Z V S N V B b %.;XyXsX].).P.o.y.d.iXNXBXeXsXfXgXnXmXlXkX;Xc.4.b L V V S Z Z Z Z Z Z Z Z Z N S w.D f 9 ",
"7 f <.,.Z B Z N N A N Z Z N Z C x C z A U v.MXyXR.}.^.k.j.s.9XkXlXmXcXnXnXnXcXjX>X+Xb A V v C V N Z Z Z Z Z A Z Z Z Z Z 0.D h i ",
"s f D ,.D Z N N A A Z Z Z Z C V x x B T L =.;XpXR.5X}.^.F.j.C.I.3XgXcXvXmXfXjX>Xr.U L A C N B B Z N Z Z Z Z A Z Z A Z D w.>.f i ",
"s f D w.D A B A B Z C A Z Z Z N S V D B A F -.0XiX}.}.5X`.Y.I.T.I..XR..X`.>X,Xc.K U U A A D c c Z A Z Z Z Z A A A N Z D w.D f s ",
"s f D w.D C A Z Z A Z Z Z Z N Z V Z N Z L U &.0XMXl.^.oX'.).].Y.|.!.).W.K.c.F U U b Z S A B R R D B Z N Z A Z A A N Z Z w.D f s ",
"i f ,.q.w.,.Z Z Z Z Z Z Z Z N C A V V S A v $.qX7Xa.x.$XQ.).].U.`.`.].G.*.n >.C S v S V ;.V x B C Z Z Z Z Z A A Z N B D w.D l s ",
"i f z D w.w.T Z Z A Z A C A N N N V S S A Z J -XMX>Xx.@.L.K.H.J.(.H.K.M.;.V V V x m m v M x V B N N Z N N N N N A C C D D N f 7 ",
"i i d z q.w.w.,.D C B C C C N S V V C B A U b OX>XVX;Xx.=.r J K K J 2.H S N C z N V S C V S D A A N N Z Z Z A C N D ,.C N f s i ",
"i i i f V ,.w.w.D D Z D S S D D D Z T A A D S F M.;XqX:X*.2.S E L U L A A R R C S :.C C :.Z L A D S D Z D Z D D Z D ,.V d 7 i s ",
"i 7 7 p f N D w.q.w.0.0.,.q.0.w.E E W W <.<.w.I ;.@X1X:X;X:X8.q.e.e.e.e.w.e.e.W q.q.<.<.q.w.W w.w.,.q.q.w.w.7.w.w.Z h d 7 i i 7 ",
"5 s p 7 5 h z D D D <.D <.D <.D D T T R <.C D T 0.6.;.M.&.-X;.<.>.D I D L D T T R R <.:.R R T D <.D D D D D >.D D V f 7 7 i 7 7 ",
"7 7 7 5 5 s f k h h h d d d d d l l l f h d g Y g 0 g Y y n q q l l l l l d f h h h h h f f l h g h l h h f h h h h d 7 7 7 7 p ",
"7 7 7 7 i i i i s s s s s s i 7 5 p 6 5 s s g 9 9 s u d u s 9 8 8 6 7 6 8 8 9 a s a i s i p 9 9 i i s s s s i s s i 7 7 7 7 5 7 "
};
