/* XPM */
static char *_86c709a25af47a3df80e80c4de32a7ckAXUzf8gkA0MqE8O[] = {
/* columns rows colors chars-per-pixel */
"64 64 241 2 ",
"   c #041B2C",
".  c #081D2E",
"X  c #021E34",
"o  c #03223C",
"O  c #0B2B3C",
"+  c #092539",
"@  c #11273D",
"#  c #122B3C",
"$  c #0A212F",
"%  c #3B1E4E",
"&  c #052D44",
"*  c #0B2B44",
"=  c #0A2B4A",
"-  c #102B42",
";  c #102B49",
":  c #08364C",
">  c #0C3652",
",  c #0C3B54",
"<  c #0C3C5C",
"1  c #073759",
"2  c #123A54",
"3  c #123C5B",
"4  c #143758",
"5  c #0C3150",
"6  c #3F244D",
"7  c #3C2849",
"8  c #3B2A54",
"9  c #3E2451",
"0  c #0B3B62",
"q  c #0B3F66",
"w  c #123B62",
"e  c #1A3C61",
"r  c #133C70",
"t  c #2C3F76",
"y  c #3D3D74",
"u  c #3E3876",
"i  c #3F366B",
"p  c #401B4E",
"a  c #41254E",
"s  c #422A4C",
"d  c #442649",
"f  c #422551",
"g  c #472C55",
"h  c #482C56",
"j  c #4A2C5A",
"k  c #482958",
"l  c #4D315C",
"z  c #463058",
"x  c #53385F",
"c  c #512A5A",
"v  c #4D366C",
"b  c #443B6C",
"n  c #4C3B6C",
"m  c #483767",
"M  c #563666",
"N  c #5A3565",
"B  c #553965",
"V  c #593A66",
"C  c #573768",
"Z  c #593669",
"A  c #54396A",
"S  c #5A3C6A",
"D  c #443C72",
"F  c #4C3C73",
"G  c #483876",
"H  c #523C73",
"J  c #5D3C71",
"K  c #583775",
"L  c #4B2D61",
"P  c #613A6C",
"I  c #623D73",
"U  c #0C405A",
"Y  c #134158",
"T  c #0C416C",
"R  c #0D4A6E",
"E  c #06426A",
"W  c #144465",
"Q  c #194464",
"!  c #14456C",
"~  c #19456C",
"^  c #14496C",
"/  c #1A496C",
"(  c #0D4B73",
")  c #0D4672",
"_  c #154672",
"`  c #144A72",
"'  c #1B4C74",
"]  c #1B4D7A",
"[  c #174B78",
"{  c #0B5175",
"}  c #14557C",
"|  c #1B547C",
" . c #14587C",
".. c #1B597D",
"X. c #165575",
"o. c #3B4374",
"O. c #33437C",
"+. c #3C447B",
"@. c #344A7E",
"#. c #384879",
"$. c #245273",
"%. c #21537B",
"&. c #26567A",
"*. c #2F4A72",
"=. c #47436C",
"-. c #5A4265",
";. c #56426C",
":. c #5D426D",
">. c #5E496D",
",. c #434274",
"<. c #4D4273",
"1. c #41437D",
"2. c #4D437A",
"3. c #464B7A",
"4. c #544372",
"5. c #5D4272",
"6. c #574879",
"7. c #60436F",
"8. c #63486B",
"9. c #624373",
"0. c #694674",
"q. c #323A82",
"w. c #194E84",
"e. c #0D5889",
"r. c #155583",
"t. c #1B5583",
"y. c #145A84",
"u. c #1B5A84",
"i. c #14568A",
"p. c #1C548A",
"a. c #155A8C",
"s. c #1A5B8C",
"d. c #0D5C94",
"f. c #095E9D",
"g. c #125C93",
"h. c #1B5C93",
"j. c #195A9A",
"k. c #294B88",
"l. c #364482",
"z. c #374985",
"x. c #225384",
"c. c #22548A",
"v. c #29568B",
"b. c #3C5B8C",
"n. c #36598A",
"m. c #295E99",
"M. c #395B93",
"N. c #126388",
"B. c #14639C",
"V. c #176495",
"C. c #29689B",
"Z. c #3C6394",
"A. c #3D659A",
"S. c #34699A",
"D. c #376598",
"F. c #2B6F98",
"G. c #0B64A5",
"H. c #1A6BA8",
"J. c #1E71AB",
"K. c #1D6EB4",
"L. c #1C76B7",
"P. c #246CA4",
"I. c #2B6CA3",
"U. c #236DAC",
"Y. c #2A6EAA",
"T. c #2B67A9",
"R. c #336CA2",
"E. c #3668A7",
"W. c #2372A3",
"Q. c #2971A3",
"!. c #2473AC",
"~. c #2C73AC",
"^. c #2678AA",
"/. c #3272A3",
"(. c #3473AB",
"). c #3C77A3",
"_. c #2B6BB2",
"`. c #2375B3",
"'. c #2779B9",
"]. c #3978B8",
"[. c #346FB3",
"{. c #4A4685",
"}. c #464884",
"|. c #46558A",
" X c #425B98",
".X c #4A4D90",
"XX c #426298",
"oX c #57729F",
"OX c #636696",
"+X c #60719C",
"@X c #405FA0",
"#X c #466DA7",
"$X c #586BA6",
"%X c #4478A8",
"&X c #5872A9",
"*X c #4B7CBB",
"=X c #4977B7",
"-X c #5576B4",
";X c #567CB5",
":X c #597BB5",
">X c #496FB0",
",X c #6473A9",
"<X c #627DB7",
"1X c #646FAF",
"2X c #67598A",
"3X c #1C79C3",
"4X c #3E7DC1",
"5X c #257DC6",
"6X c #4D7CC1",
"7X c #3785BD",
"8X c #5080BA",
"9X c #2D8BCC",
"0X c #2A88C6",
"qX c #3C83C3",
"wX c #338DCB",
"eX c #3989C9",
"rX c #2A91CD",
"tX c #3A92CC",
"yX c #2C8CD3",
"uX c #338DD2",
"iX c #3C8CD2",
"pX c #328FDC",
"aX c #2B91D3",
"sX c #2C98DA",
"dX c #3492D3",
"fX c #3C93D4",
"gX c #3294DB",
"hX c #3B96DB",
"jX c #399ADB",
"kX c #3396E2",
"lX c #359CE3",
"zX c #3B9BE3",
"xX c #389CEC",
"cX c #39A0E3",
"vX c #4381C2",
"bX c #4485CB",
"nX c #4985C7",
"mX c #4793CB",
"MX c #468ED3",
"NX c #4496DA",
"BX c #449AE2",
/* pixels */
"7 d a 6 6 6 6 a f a f a f f 6 a d a a d k c p f g 8 8 7 d d % k f 6 d 7 d d g f k 9 9 6 6 7 d f d f f f a f f f 6 a 6 6 7 d 6 7 ",
"a 7 6 6 d a h h k h h h g g g h h g f h c c L z z z 8 8 l c j j g j h h s s c j j j k z g g j j c f g j j k g h h h g a 6 6 a 7 ",
"6 6 s 6 6 g M :.S S S :.S :.S -.:.:.;.;.N N 9.V ;.>.-.5.P V 8.P S I P N -.-.P Z J S :.-.-.S P S :.-.S S S -.S :.S B g a d a a 7 ",
"6 6 6 s g x V 9.7.7.7.7.7.7.5.5.:.>.>.6.P 9.:.4.<.6.3.{.|.}.6.{.{.I 0.0.:.>.9.0.9.9.4.:.7.9.9.9.9.:.:.9.7.7.7.7.7.V l g f a a a ",
"f 6 6 g x S S S S Z S Z V S A A v Z A A N -.z 3.#.b.=X6XqXeX4X6X.XG 2.4.M V V S S Z A ;.A Z J J A S S A S V Z S S S S x g 6 6 f ",
"6 s g x S S S M V V B N B B B A K K L S x =.3.+X:X>X6XbXuXkXyXiX=Xz.l.,.n A B B S Z A A A Z Z Z Z A Z B V V Z N M S :.S x g f 6 ",
"6 h B :.S V C Z M M B C C M N N P Z M K P K oX8X,Xz.q.k.U.9XaXuXMX4XR.b.1.n v V N N A A v A Z Z C B C C C A C C N N V S S V h 7 ",
"6 j S 7.S V M C C C A Z Z Z C V Z Z Z Z K G &X@.G G }. XE.`.9XgXyXuX`.R.Z.o.v N Z V B B n v C Z C N C C C C N C A M V S :.S j a ",
"f g -.7.Z N C C C P I I Z C M V V x B B A b <.n A b @.S.~.`.L.yXaXsX9XJ.Q.XXm Z Z Z Z N B m V N C C C C C N Z V C N M Z 7.:.g a ",
"f j S 7.S N C C C Z S I Z V M M l B B B A m A m F o.Z.F.~.H.K.L.yXkXsXL.!.S.+.v Z P N Z B B V M C Z S S S C A Z C C V S 7.:.h a ",
"f g S 7.Z V C C C C S S C M M C B C B M B A n ,.b.C.~.~.P.V.g.g.f.jXlX0XL.I.XXy Z Z Z N N B B V C S J S S C Z Z C C M Z 9.:.g p ",
"f h :.7.Z B C N C Z C Z C C M A A Z M M B A ,.b./.^.W.P.h.i.r.w.j.wXcXlXL.U.E.O.G Z Z N V N B V Z I 9.9.I S Z A C N M Z :.S g f ",
"9 g S 9.S B C C C C C C C C C A M A B C M H o.A.F.V.N.N.t.x.t.c.p.d.wXgXL.'.P.D.1.A B M C N A A :.9.0.0.9.J Z Z C M B S 9.:.h 6 ",
"f g S :.S B M A C C C M C C A M B M A Z Z F @.S.W.N. ...x.%.x.x.c.j.eXNXuXK.'.R.n.,.n B C C A A J 9.0.9.9.:.S Z C M B S :.S h 9 ",
"a g -.9.A B M M C C C C B B B M x N Z Z K G n.I.F.s.N.| c.| X. . .e.B.MXhXG.H.Y.Z.#.=.A C C C Z S S 6.5.I Z C B M M B A 9.S g 6 ",
"a g -.5.Z M M C M C C C M B B B M M v K K 1.S.Q.s.t.t.c.t.u. . .( } i.7XBXeXj.T.S.n.#.=.H H A C A S 5.J S C C Z M M B S 5.-.g a ",
"a g S 9.Z B Z Z C N B B C C M v m ;.v K o.XXS.a.y.t.u.t.t.] ..{ ( ( ( s.mX7Xj.P.^./.n.#.$X+.n A A Z Z Z Z S Z Z A M B S 9.S h 6 ",
"a g -.9.S A Z A C B N M C C A A <.2XK m #.XXI.d.g.g.} s.t.[ ( E ` q ` _ 8Xh.e.g.J.Q.A.z.$X+.n A A A Z A Z Z A V C M V Z :.:.h 9 ",
"6 g -.:.S N A N C N B N C C C A B ;.A 2.n.R.~.G.dXmXV.| ] ' W ^ ! [ 0 0 W [ t.a.Q.Q.A.@.$Xl.v C C A Z A C C C A C M N S 7.:.z a ",
"f g S 9.S C C A A N C M C C C A B B L D #XY.U.eXcXfXs.[ / ~ W / W W < < 0 E t.i.C./.n.z.$X}.v C C B A V A N C N C M B Z 7.S g 9 ",
"a h S 7.S C C C C M M M Z Z A M B A V b S.K.3XxXkXG.r.u._ W / Q 3 4 3 4 W 1 c.t.V./.Z.k.-X@.H N N A N C C C Z A A M B S 7.S g a ",
"a g S 7.S C C C C M N M M M A A B B V ,.m.L.kXzXyXd.y. .^ ~ / Q < 3 4 4 > W ' | r.I.Z.%.>Xt F V B A C C C C B Z C M N S 9.S g 9 ",
"6 g S 9.S C Z C C M C M A M M A A A m #.E.yXkXgXV.r.y.) ` _ ! < , > > 2 3 1 < ..i.F.S.p.=Xv.D A A B C C C C C Z N C M Z 9.:.j 6 ",
"s g S 5.S C C C C M C M Z Z M A A n ,.|._.uXzXG.r... .( ` ! ! 0 , Y 2 * & & 1 | y.I.I.C.nX=Xo.A A C C C M C C C C M V Z :.S z 6 ",
"6 g S 7.Z C C C C V M N C C C M A n +.E.`.NXfXa. .X...` ! ! _ 0 < , * & & & : | y.a.I.~.tX*X1.A C B C C C C V A C M V Z 9.:.g 6 ",
"a g -.7.S C C C C N N A C C C A B n l.@X'.hXg.s. .X.| ` ~ ~ ^ < Y > * * * O & ' y.a.P.~.tXvXq.A A A C N C C C Z C C B Z :.:.h 9 ",
"s g S 9.S C A Z A N M B C C A C x n l.T.BXhXa.t...X.| _ ~ ! Q , 2 2 * - + X & $.t.a.U.!.iXvX}.v A C C C C C C N C M M S 9.S g 9 ",
"9 h S :.S A Z B C B M N C M A A V v  X[.hXyXi.....| ' _ _ W 3 2 2 ; O - X   + Q | s.Y.!.iXvX+.A C A A C C N C C C M N Z 7.S z a ",
"a g :.7.Z A A Z C N N B C C C A B b @X_.hXG.a. ...X._ R _ ! 3 2 2 * + @ $ .   = | p.P.L.uX4Xl.A A A M C C C C C C M V S 7.S g a ",
"a g S :.S Z Z Z Z M B M C C A C B D p.MXhXf.s.t.u.| _ ! _ ! 3 2 , * @ @ . .   X | u.!.'.aXqXG C A M C C N C C C C M M S 7.:.z 6 ",
"a g S 7.Z A Z B A N A N C C C C A y 4XBX0Xg.w.c.t.r.` R ^ / < 3 , * O #       o $.i.^.0XaXqX+.A C C C M C C C C C M B Z 9.:.k 9 ",
"a g -.9.S Z A Z N B N B C C C C B +.bXhXB.e.p.| r.u.` _ W W < 3 2 & O #   . X X | i.^.wXdXvX+.B A C C C C C C C C M V Z :.S g a ",
"a h S 8.S C C C C A M M C C Z A v +.bXhXg.y.p.t.t.| ^ ^ W W 0 w 4 * & O     X & w.p.d.tXeX=X1.A A A M M C N A C C N N Z 9.:.g 6 ",
"a h P 7.Z C C C N N M N C A Z A H +.mXfXg.i.p.p.u. .^ ^ / e w w 4 * O O $   o / x.p.B.MXvXk.u A A B M M C C C C C C B S :.:.z 6 ",
"a h S 9.S Z Z C A N M M C C Z A v +.MXhXj.c.w.t.y. .^ W ^ W w 3 3 * O # $   o $.&.h.0XNXvXk.D C A C Z C N A A N C M N S 9.:.k 6 ",
"a h S 9.S Z C C C B M M C C Z Z C @.MXjXI.c.x.t. . .R ^ ^ W w , 3 5 * # @ X X $.| a.dXNXvXz.A N C C C C C C C A C M M Z :.S g f ",
"a h :.7.S C C C C B N M C C C Z Z }.4XhX!.u.p.p.r. .^ / ! ! < < 0 4 - @ @ # * $...V.sXhX>X}.N N M C C C Z Z A N C M V S 7.:.g 6 ",
"a h P 7.S C C C C N C B C C C C M l.qXhX^.y.p.t.u.X.^ W ! R < < < 5 - - # * * $.N.7XcXfX@XD C x M C S S Z Z Z Z C M M S 7.S h 9 ",
"a g -.8.S C C C A M N B Z A Z Z Z l.bXhX'.C.s.t.t.| ^ ! _ ! , U < > ; ; = & & X.B.jXzX'.l.v B N M S 5.J S Z A C C M B Z 9.S z 9 ",
"a h S 9.S C C C N N A N Z A Z Z F t 6X'.J.W.y.t.t.| ` ! _ ^ , < , Y 4 = = = 1 r.G.gXdX~.u A B S A S 9.9.S A N A C C V Z 7.S g a ",
"a h P 8.S C C C C N A N A C C A 1.&XnXT.`.J.y.t.t.| ( ` ! _ Q , : , 2 3 w 1 q d.kXkX`.E.F M A A 5.9.9.9.S N C C C M B Z 7.:.g 6 ",
"d h S 7.S C C C C B N B C C C F +.&X6Xj.U.P.s.r.t.p.| ( T ^ Q 2 Y U 4 3 4 0 d.uXxXkXY.b.F N A ;.J 5.9.I S C C C C M V S 7.:.h 9 ",
"a h S 8.S C C C C N C B C C C v @.:X;Xp.P.!.V.r.r.p.t._ ! ` Q e < : 2 3 , _ tXkXxX9Xm.@.n M B n A S S Z C C C C C C N Z 9.:.g 9 ",
"a h P 7.S C C C C B N N N C C F +.:X;Xp.Y.!.C.i.s.i.p.t.` ^ ~ ! W < 2 > Q ).BXxXpX].D.#.v V m v B A C C C C N C C M M Z :.S g a ",
"a h S 7.Z Z Z A A N B M A Z Z v O.-X:Xk.T.(.P.V.e.e.c.%.R R ! ! 1 1 Y : , ( fXzX5X~.A.o.v S C B A A C C C C C C C C V S 7.:.g 9 ",
"a h P 9.S Z C C Z M N B C Z Z F z.;X:Xx.m.(.R.P.7XC.} | ( ) ! ' r q : Y Y ..f.7XH.P.Z.y A Z B M A B C M C C C C C M M S 7.S g a ",
"a h S 8.S C Z C C N M M C C C F l.:X;Xx.k.E.[.!.NXtXu...y.{ T _ r w , : U { N.V.H.R.Z.+.A Z C M A C C M M M C M C M B Z 7.:.g 9 ",
"d h S 9.S C C C C B M C C C C F l.-X;Xz.q. X(.U.B.tXV.r. .y.` ~ ' r , U U u.e.W.!.(.M.D Z Z M M B C C C C C C C C M B Z 7.S g f ",
"6 g -.5.A B V M C N B C A A M F l.:X:XO.D o.R.J.`.tXmXd.e. .R ^ W / ^ 0 X.y.P.!.W.S.y H Z M B B B A M A C C C C C M B A 7.:.z 9 ",
"a g -.7.S V M B C A Z C A M B v y $X<Xz.H ,.R.^.H.`.BXG.e.y.^ W W ^ | | y.N.!.J.F.Z.i v F F ;.v A B M A C C C C C M B S 7.-.h 9 ",
"f g S 9.A A C C C C C C C C A A G }.,Xo.n y S.!.Y.`.yXuXB.a.t.[ ' X.| } a.d.!.~.#X*.H G z.1XH Z A C M M C C C C C C M Z 9.S g 9 ",
"f h S 5.Z B M C C N C C N M A A S v OX,.n ,.M.[.Y.`.5XzXfXj.p.p.] p.p.h.P.W.~.E. Xy D }.<X<XH J Z C C M C C C A C M M A 9.S g a ",
"6 j S 7.Z V N C Z C C C A C N B x v H F m b }.M.R.~.K.pXlX9Xj.T.j.g.j.T.Y.[.[.M.D F ,.#.,X3.A Z M Z C C C C Z Z Z M Z S 5.:.g 6 ",
"f g S :.S B C N C C C N C C Z M B B B A C v G 1.Z./.`.3XsXlX9X'.U.Y._._.~.Y.m.k.u 1.OXo.y m A Z C C C C C C Z Z A M A S 9.:.g f ",
"a g S 7.S V C C N C C C C C A B B B A Z C Z K G o.Z.C.'.rXlXsX3XL.'.U._.'.U.p.c.v.&X+X=.v H K Z Z C C C C Z Z Z N C Z Z 9.:.h p ",
"f j :.7.S Z C C C Z C C C C N A B M K Z N Z Z Z n o.S.P.`.aXkXlXrX9XL.`.0X9X6X*X;X:Xo.=.M Z v Z Z A C C C Z Z Z C N A Z 5.S g f ",
"a z S 9.9.S Z S Z Z Z Z B V M Z C C Z A B M Z Z B <.o.M.R.qXuXlXsXaX9XrXdX0XMX6X$X{.G K M M I Z C C C C C C C C C C V S 9.V l a ",
"a g x S 9.9.:.Z Z Z C C Z A N A Z Z C B B B Z C V l <.o.|.c.].NXpXaXsXaXrXfX6Xz.{.G K K M v Z Z M C N M M C Z C C M V S S B g 6 ",
"a a g x 7.9.7.S S N N V B B B Z N Z V N B B A A S V l ;.b o.z.>XvXiXuXdXsXqXq.G v v A A L B V N N M B A C C C C M S 7.S l h f a ",
"a a d h B 7.9.9.S S S Z S A S S S S Z S M A A A Z S V S Z H F }.M.=X6X].7X;XG J A :.;.B B B S P Z A S Z S C S S Z S S B k 6 6 f ",
"a 6 d 6 g x S 9.9.7.7.7.7.9.:.9.7.7.7.8.I 9.9.4.9.9.0.S 0.P 9.9.6.2.{..X.X3.>.8.8.:.5.:.>.8.I I 9.5.7.7.5.9.9.5.9.V j g f s f 6 ",
"6 a s 6 a h N V -.S :.S S -.S -.-.-.V P P J :.;.S 5.V 7.S I P P :.B I 5.5.A -.-.V -.A ;.-.S I I :.S S -.S S -.S S B h 6 a a a 6 ",
"7 6 6 6 7 f g l j j k h g z g g g z j k j c h h z g g g z z z g g l l g L k g j c l z s s s z L j z j j h j j k j j g 6 6 6 6 6 ",
"s 7 6 6 a a a 6 f f f f f 9 s 6 6 9 9 f k f a d 7 f f 9 8 8 7 7 d 7 7 6 9 f f a f a d d 7 s f 9 f 9 f 9 f f a a f a 6 6 6 s 6 7 "
};
