/* XPM */
static char *_7735acbd9674867aaa9ac5a5d76142bbC2yntiZZzZ9mU6w[] = {
/* columns rows colors chars-per-pixel */
"64 64 246 2 ",
"   c #001D2D",
".  c #031D34",
"X  c #041A3A",
"o  c #1D1C3C",
"O  c #0D2A3C",
"+  c #06243A",
"@  c #10243E",
"#  c #12293C",
"$  c #01212E",
"%  c #0A1F49",
"&  c #101A4A",
"*  c #042C44",
"=  c #0C2C42",
"-  c #07294B",
";  c #112A41",
":  c #162549",
">  c #0C314B",
",  c #08324B",
"<  c #11364F",
"1  c #0B2854",
"2  c #192D59",
"3  c #0D3652",
"4  c #0C3B55",
"5  c #0D3C5C",
"6  c #073859",
"7  c #123A54",
"8  c #123C5B",
"9  c #143458",
"0  c #2A284C",
"q  c #3F264C",
"w  c #382B4A",
"e  c #252C58",
"r  c #3E2654",
"t  c #3C2957",
"y  c #27305B",
"u  c #37345B",
"i  c #0D3D62",
"p  c #053765",
"a  c #163A67",
"s  c #033E75",
"d  c #0F316C",
"f  c #233664",
"g  c #2C3D6C",
"h  c #233968",
"j  c #3C3665",
"k  c #333A6B",
"l  c #3C3C6B",
"z  c #3B3964",
"x  c #3A3C72",
"c  c #373A71",
"v  c #2D3D70",
"b  c #41254E",
"n  c #41284C",
"m  c #452749",
"M  c #412550",
"N  c #442A53",
"B  c #4A2D56",
"V  c #4A2E5A",
"C  c #452D5C",
"Z  c #512D5B",
"A  c #433254",
"S  c #45325D",
"D  c #4B315A",
"F  c #4A3659",
"G  c #51355E",
"H  c #52395F",
"J  c #4C3664",
"K  c #443A64",
"L  c #4D3A65",
"P  c #453C6C",
"I  c #4B3B6C",
"U  c #453567",
"Y  c #563666",
"T  c #5A3565",
"R  c #553965",
"E  c #593A66",
"W  c #573768",
"Q  c #593669",
"!  c #553969",
"~  c #5A3B6A",
"^  c #443E73",
"/  c #4A3C71",
"(  c #483F7E",
")  c #563C72",
"_  c #5C3D71",
"`  c #583C76",
"'  c #5A2F64",
"]  c #623D6D",
"[  c #613F71",
"{  c #683D73",
"}  c #0D405B",
"|  c #15435B",
" . c #0C456B",
".. c #0D4466",
"X. c #134464",
"o. c #194764",
"O. c #14456B",
"+. c #19456B",
"@. c #14496D",
"#. c #1A4A6C",
"$. c #164966",
"%. c #084475",
"&. c #154671",
"*. c #1A4672",
"=. c #144A72",
"-. c #1A4C74",
";. c #144D7B",
":. c #1A4E7A",
">. c #154679",
",. c #14527C",
"<. c #1B547D",
"1. c #18587D",
"2. c #1B5175",
"3. c #0E517C",
"4. c #33426E",
"5. c #234B75",
"6. c #264978",
"7. c #364678",
"8. c #24527D",
"9. c #2A567E",
"0. c #234568",
"q. c #47406D",
"w. c #4A4164",
"e. c #54426E",
"r. c #5E426E",
"t. c #5A4164",
"y. c #444274",
"u. c #42457A",
"i. c #494677",
"p. c #5E4371",
"a. c #534777",
"s. c #54537F",
"d. c #60436F",
"f. c #624272",
"g. c #694176",
"h. c #0C5889",
"j. c #145482",
"k. c #1B5583",
"l. c #155984",
"z. c #1B5984",
"x. c #13568A",
"c. c #145B8C",
"v. c #1B5B8C",
"b. c #19568B",
"n. c #155E93",
"m. c #1B5D92",
"M. c #145E9A",
"N. c #125489",
"B. c #374D84",
"V. c #215483",
"C. c #275889",
"Z. c #38568A",
"A. c #285C96",
"S. c #395B95",
"D. c #244D81",
"F. c #1D608C",
"G. c #17618E",
"H. c #146192",
"J. c #1A6193",
"K. c #1B669C",
"L. c #1C6A9B",
"P. c #14659E",
"I. c #0E6195",
"U. c #21618C",
"Y. c #2A608F",
"T. c #29698F",
"R. c #33638D",
"E. c #246493",
"W. c #22659C",
"Q. c #2B649B",
"!. c #236B9D",
"~. c #2C6B9D",
"^. c #2A6594",
"/. c #366699",
"(. c #2E719F",
"). c #1B63A1",
"_. c #146BA4",
"`. c #1B6CA3",
"'. c #136BAB",
"]. c #1768A8",
"[. c #1D71AA",
"{. c #1D71A7",
"}. c #1E74B5",
"|. c #1967B1",
" X c #236CA5",
".X c #2A6EAB",
"XX c #296CA5",
"oX c #3D66A2",
"OX c #376BA6",
"+X c #2473A5",
"@X c #2B72A5",
"#X c #2373AB",
"$X c #2B73AC",
"%X c #2379AD",
"&X c #3875A8",
"*X c #2574B1",
"=X c #2B75B4",
"-X c #247DB5",
";X c #2B7BB5",
":X c #247DBB",
">X c #287ABC",
",X c #3677B5",
"<X c #464C87",
"1X c #455589",
"2X c #54588C",
"3X c #455791",
"4X c #45699C",
"5X c #576B9D",
"6X c #446AA8",
"7X c #4774AA",
"8X c #4379B6",
"9X c #5072AE",
"0X c #1E7BC1",
"qX c #277DC0",
"wX c #357FC1",
"eX c #477EC4",
"rX c #2C82BA",
"tX c #3385BE",
"yX c #3B82B9",
"uX c #4280BD",
"iX c #2D84C3",
"pX c #2C8BCB",
"aX c #2887C7",
"sX c #3385C5",
"dX c #348CC4",
"fX c #3C8AC4",
"gX c #338CCD",
"hX c #3986C8",
"jX c #2E91CA",
"kX c #3594CB",
"lX c #3B92CB",
"zX c #2F8BD2",
"xX c #298DD8",
"cX c #348DD3",
"vX c #398DD6",
"bX c #2E93DA",
"nX c #3494D3",
"mX c #3D94D4",
"MX c #3695DC",
"NX c #3996DC",
"BX c #3599DA",
"VX c #3997E1",
"CX c #4388C9",
"ZX c #4488D3",
"AX c #4597D9",
"SX c #429EE1",
/* pixels */
"n q q q q b b b M b b b q r b q q q b b b M M C M M b m m M C t r r N q q b m m b b M C r r b b b b M M M M M M b M b b q q q n ",
"n q q q b b B V V V D D V V V V S S V V V V Z Z Z Z D n A B C C Z N D D B A B Z V D V C C C V V B V D V V D V V G B b q q q q q ",
"q q q q N B Y ~ ~ ~ ~ ~ ~ t.~ ~ r.~ E ] ~ t.~ E ~ E t.t.t.t.E _ d.T E d.E ~ Q ] ~ t.t.t.~ ~ ~ t.~ t.~ ~ ~ ~ ~ ~ E H B n q q q w ",
"q q b n B F E r.f.r.r.r.p.r.r.p.f.f.d.d.r.p.f.p.p.a.i.i.a.a.a.` a._ f.d.d.f.f.p.a.p.p.r.f.r.r.p.p.r.f.f.r.f.d.f.~ ~ Y B n q n m ",
"b q b B Y R ~ ] ~ ~ ~ ~ ~ ~ r.~ ! ! ~ E ~ _ r.) i.1XS.oX6X6X6XS.7./ ) p.E ~ ~ ~ e.~ E t.W ~ Q ! ~ ~ ~ ~ ~ ~ E ~ ~ ~ E G B b n n ",
"M M B G E E W Y Q E W W R ! R R W ! Q Q Q ! J I <X5X8XCXZXhXZXeX6XB.c U ! ~ ! R R R R H T W ! ) ! ! R R E W E W E E r.~ G N b b ",
"b B Y R ~ ~ W W Q Q Q W W W Y Y Q Q ) Q ! ! J S 2X5X7X,XwXvXbXvXCXOXS.4.z t.R R T E Q Q W W Q Q ! W W W W W E Q Q Q E ~ E G N b ",
"b D R r.~ E R Q Q E ~ ~ W W W W Q Q Q I ) ! L F w.4.>.s |.MXxXxXxXvX8XC.f u L R Q T T Q Q Q Q Q ! Q W W W W Q Q E Y E ~ d.~ V b ",
"M V t.d.W Y Q Q Q E [ [ ~ Q Y Q Q Q ) ) ) J H w.u X - l.%X}.}.pXMXbXcX.XD.f j I Q ' Q Q ' Q ~ Y Q W W Q W Q Q Q Q Q Q E d.~ V b ",
"b V ~ d.~ Y Q Y Q ~ [ [ ~ Q W W Q ~ W W Y ! R o ; 0.Y.(.%X[.[.-XaXbXbXrXXXD.f j Q Q Q Q Q Q ~ ! W ~ ~ ~ Q Q Q Q Q Y E ~ d.E V M ",
"M V E d.E Q W W Q Q W ~ W W Y W E E T Q Q Y u : 6.~.$X#X%X%X+X{._.aXbXjXwX=XC.B.U _ Q Q Q Q ! L ! W _ _ ~ Q Q Q Y Q Y ~ f.~ V M ",
"M V r.d.Q Y Q W Q Q W W W W Y W E T T T W U & 6.&X@X#X[.`.{.!.v.c._.nXBXwX0X.XS.c I / ! Q Q L ! ~ d.f.f.[ ~ ~ Q Q R E W f.E V M ",
"b V W d.~ R R Y Y W W W W W W W Q Q T H ~ K X C.~.@X$X XH.F.F.1.j.n.rXNXNX0X>XXXB.c K R R E I Q r.p.f.f.f.~ ~ Q W W R e.p.~ D M ",
"M V ~ d.! Y W W W W W W W W W W W W H E L 0 1 Y.@X@XW.c.b.l.<.<.l.C.`.iXBXpX}..XS.v q.R H E Q Q p.p.f.g.f.f.~ ~ W W R ~ p.W D M ",
"q V ~ r.~ R Q Y W W W W ! ! Y R ! R Y t.U & 6.@X+XL.J.v.v.1.,.C.z.k.b.).jXpX]. XQ.B.z R R Y Q Q ~ r.f.f.~ ~ W W W W R ~ r.~ V M ",
"r D t.r.! Y E Y Y W W W Y ! Y R J ~ R J L & Z.@X XH.b.l.k.z.v.,.k.%.z.M.kXnX[. XXXR.k L ~ Y _ Q W ~ r.r.E Q W W W W R ~ r.~ V b ",
"b V t.f.W Q W Y Q Y ! R Q W W Y E Y E e.0 < Q. X).).n.l.j.l.1.=.@.&.>.b.>XlXfX.X@X~.g L ! Q Q Q ! ! Q ~ W W W E W W Y ~ d.E D M ",
"q V ~ d.~ R W W R Q Q Q W W ! W T T E K @ 2..X}.|.wX,XE.j.1.,. .@.*.O.%.M.dX,X`.+X~.7.z / J _ ' W ! ! Q W W W W W W Q ] r.E D r ",
"r V ~ r.W Q W Q ! Q W W W W ! W Q Q Y t 1 ^.*XiXgXAXyXv.,.;.&.O.@.....p 3.,XW.x. X~.Z.4.i.I _ Y Q ! Q W W W E W W E W ~ r.~ V b ",
"b V ~ r.~ R W Y W W W W W W R W Q Q J : 8.!.;XvXSXgX!.j.,.:.&.&.+.6 5  .3.&XL.c.H.T.Z.g <X^ J Q R ! Q ! W W Q W W W W ~ r.~ V q ",
"M B E d.E Q E Y W W Y W W W Y ! L ! u : Y.#XpXnXgX`.x.k.:.&.&.&.X.5 5 6  .T.F.l.h.U.9.a 4X3XJ Y W ! W Q W W W W Q R Q ~ r.E D M ",
"q D ~ d.E Q W Y W W Q W Y W ! ! ! L 0 5.~.>XnXMX'.I.j.k.&.O.*.O.5 5 8 4 } .. .3.l.U.8.p 6X6X^ Y ! W W W W W W W ! Q Q ~ r.~ D q ",
"M D r.d.W Y W W W W W W W W W ! e.K % Z..XsXNXcXP.b.j.-.O.&.=.X.5 7 7 7 } , 5 1.v.E.U. .,XOX^ J ! ! Y W W W W W Q Y E E r.~ V r ",
"r V ~ d.~ Y W W W W W W W W ! ! Y K - V.,XvXVXaXn.z.<.&.O.O.X...5 8 7 = + , 6 <.z.T.@XK.sX8Xx ! Y ! W Y Y W Q ! R Q R ~ r.~ V b ",
"q V ~ r.W E Q Y R Q Q R W W ! R J t 1 Y.$XvXNX'.h.k.:.#.O.$.X.5 8 9 > = O = 3 2.V.F.L.%XgX,Xx W ! R Y Q E W W W Q ! Q E d.~ D b ",
"M V ~ r.E Y W Q Q ! W Q W W R Y H 0 0.Y.sXcXqXP.j.,.-.+.X.$.X.i 5 9 = = O O , 2.<.v.+XrXzX,Xc W ! ! Q ! Q W W W Q Q E ~ d.~ V r ",
"r V ~ d.~ E W W R Q W W W W ! R G K 1 Q.sXzX_.G.l.,.=.$.$.o.X.8 8 > - = O O + $.<.J.{.}.zX,Xx W W ! W W W W W W R W Y ~ r.~ V b ",
"M V t.d.W Q W Y Q W W W W W W Y T S % Q.mXBXI.h.l.1.@.+.o.o.8 5 3 > @ # + $ . , -.F.{.rXaX,Xx Q ! Y Q R Q W W W Q W E W r.~ V q ",
"M V t.f.W R W W ! Q W W W W ! R E K 1 .XSXiXH.j.z.1.=.@.$.X.8 5 7 > ; ; + .   + -.v.{.iXvX8Xx Y W ! W W W W W W W Y E ~ r.E D M ",
"q V ~ d.W Y Q W W Y W W Q E R R H z 1 CXvX'.G.z.k.<.@...$.X.5 4 7 = ; @ . . $ + 5.m.#XdXCXoX^ Y ! Y W W Y W W W W Q Q ~ r.~ D r ",
"r V ~ d.~ T E Y W W W W W Q R R F : /.ZXlXH.N.j.V.8.&.O.#.O.5 5 < = O ; . . $ O #.C.;XdX.Xd j ~ ! ! W W W W W W W W Q E r.~ V b ",
"b V ~ r.~ Q ! Y W W W W W W ! R F e 8XAX#XJ.j.k.D.9.*.O.&.+.i 5 7 = # ; . . $ * 5.z.+XCX,Xa ^ W Y ! Y W W Q E W W W R ~ r.~ V q ",
"r V ~ d.W Y W Y Q W W W W W ! ! K 2 &XAX[.H.l.k.8.8.*.&.&. .i 5 4 * O # . . * X.C.1.%XtX&Xh / ! Y ! Q Y Q ! Q W W W E E d.~ D b ",
"b V t.d.E E W W Y W W W W W ! L q.h OXfX%Xh.j.8.<.8.*.&.&.=.5 5 4 * # # . . - $.2.l.*XCX4X9 l ) ! ! W Q ! Q Y W W W E ~ d.W D M ",
"r B E d.E Q W Q ! Q W W W W W ! I 3X8X#XL.H.k.<.2.8.=.@.=.@.8 8 4 = ; # . X * #.1.m.iXCX4Xy q.~ ! ! W W W W W W W W E ~ r.E V M ",
"M V r.d.W Q W Y R Q W W W W ! I y.1X8X=X#XH.j.k.1.1.=.@.&.O.8 8 4 < ; # + + * #.z.x.sXlXR.y L ! ! Y W W W W W W W W Q W r.~ V M ",
"r V E r.~ Q E W Q W ! Q W ! Y ! y.7.OXwX XN.b.k.1.1.@.@.@.@.8 9 7 7 : # # = - 2.b.`.iX=X6 z ! ! Y ! ~ Q W Q W W Y E E ~ r.E D r ",
"b V ~ d.W Y W Y W W W Y W W ! I 4./.,X*X Xm.V.k.z.1.=.@.O.+.8 8 7 < = ; = = > :.m.sXmX.X% K e.Y Y ! ~ ~ ~ W W W W Q Q ~ r.~ D b ",
"r V ~ d.~ Q W Y Q W W W W Q ! P 7.9XCX=X.Xm.j.k.j.1.=.@.@.+.5 } 4 < ; ; = = > ,.K.sXNX,Xg S J Y ! ! _ _ ~ Q W W Q Y Y W r.~ D q ",
"M V t.d.E Y W Y W E W W W W W I 7./.hX>X Xm.C.k.l.l.=.@.+.$.5 } } 7 < > = = 6 ;.M.mXiX).y F E ! W _ f.f.~ Q W W Q ! E ~ d.E V r ",
"M V t.f.W Q W Y R Q W W W W ! / 7.oXyX$X@X!.v.b.b.j.=.X.O.+.} 4 3 | 7 > < 8 5 l.`.lX>XA.y R R E p.f.f.[ ~ Y Y W Q R Q E d.E D M ",
"q V ~ d.~ R W Y Q Q W W R Q W L 4.4X8X#X@X!.h.J.h.h.:.@.*.+...4 } 4 7 8 7 4 ..c.iXnX>XA.u H E ~ _ f.f._ ~ W W W W Q E ~ r.E D b ",
"r V ~ r.W Y W W W E W W Q W ! I y.3XoX%.c.(.L.@XL.P.j.&.*.+.+.8 } 4 5 8 4 X.,.!.kXiX.XS.j T W W ! ~ ~ ~ ~ Q W W W Q Y ~ r.E V r ",
"b V ~ r.E E W W W W W W ! Q R ! K 4.S.p k.T.L.rXkXdXv.:.*.+.+.i 6 } 5 5 5 X.v.tXdX*X~.B.K Y W I W ! W W W W Y Q W ! Q ~ r.~ V b ",
"q V r.d.E Q W Y W W W W W W ! ! ! q.<Xd 1 C.K.rXkXkXJ.j.*.*.X.X.} } 6 5 6 i M.lX>X@XR.v I Y Q Q ! ! W W W E W W W W Q ~ r.E D r ",
"r D E d.~ Q W Q W W W W W W R R G e.2Xf % C.XX`.aXjX`.c.>.>.O.+.X.i ..i X.V.fXlX%X@XS.k ! Y Q Q ! W W W W W W Q W W W ~ r.~ D b ",
"b V ~ d.E Y W R Y W W W W Q ! R R F s.l g B.OXM.pXBXtXv.;.>.@.+.-.+.X.6 i V.=X'.{.~.7.l ! E Q Q W ! Y Q W W Q Q W W R E r.~ V q ",
"q V ~ f.E Y W Q W W W W W W R R R R a.y.l <XoXM.'.kXlXn.j.=.=.@.O.$.O.X.&.>.).[.#X^.g ^ L E ' _ ! ! W W W W R W W W R ~ r.~ V M ",
"q V E r.~ R Y E W W Q W ! ! R W J Q Q Y L u./..X].qXlXP.l.=.#.*.@...2.;.,.v.#X+X%XC.c ! W Y ! ! ! Y Y ! W W W W Y Q R ~ r.E D q ",
"M V E r.~ Y Y ! W W R Q ! Y Y ! ) W Y Y R q.B.A.).>XmXtXH.l.-...&.-.1.,.j.c. X@X&XZ.^ J E Y ! ! ! Y ! ! W W W E E Y ! ~ p.~ D q ",
"q D ~ r.~ R W W W Q W W W W ! ! Q ! ! ! R L 7.B.Q.;XpXgX_.h.3.3.,.z.l.v.P.K.@X(.C.7.P ! Q Q E Y ! Y Y W W W W Q Y Y R ~ r.~ V q ",
"q S E r.~ R W W W Y W W W W ! Y ! ! ! W R Y ! y.S.&XsXNXcX'.h.x.1.l.b.L.+X+X$XC.9 g / ~ Q Q Q G W ! W W W W W R W Q R ~ r.~ V M ",
"M V E r.~ R Y Q Q Q W Y W W W ! Y ! ! Q T T Q I 7.S.=XvXNXqX_.h.x.v.K.XX[.+XOX5.e U ! ! Q T Q Y Y W Y Q W W Q Q W W E ~ r.E D M ",
"q V E d.W Q W E Q Q W Y Y W Y ! Y ! W Q T T T J / Z./.hXzXMXaX].n.K.XX=X X@XY.2 j ! ) ! ' Q Q Y Y W W W W W Y Q Y E Q ~ r.~ V M ",
"M V Q d.~ R Q Q Y Q Q Q W W Q ! W R ' ' ] T Q Y I ^ B.6X,XvXvXqX*X#X X=X XXXD.2 I Q Y ! Q Q Q Y W W W W Q Q Q Q Q Q Q W d.~ V M ",
"M V W f.] E Q W Q Q Q Q ! Q Y ! W Q T ] T T W W ! L i.7.4XOXwXZXsX;X#X{.W.b.v u.I W ! ! T Y W Q W W W W Q Y Q Y Q Q E E r.E V M ",
"n D ~ d.f.d.~ W Y Y Q Y Y W E W ! W Q Q Q ' ) W ! L J q.7.3X9XZXZXtX[.L.s d 1X2X/ W R R Y Y Q ! W E W W W E Y Q ! Q E ~ d.E B n ",
"b B G E f.f._ ~ W Q W W W W E W Q ! ! W Q Q Q ) R L R R I u.<XS.8XCXyX&XR.2X2Xi.I ! ! R R T Q ! Q E W W W Y Q Q Y E ~ E E Y B b ",
"M N B G ~ d.d.~ E W E Q ! R Y W ! Q R Q W Q ) Q ! R E E Y J I u.S.9X9X5X<X` / / I ! R T H R ! ! ! Y R R Y Q E Q Y E ~ E Y B N q ",
"b b b B R ~ f.f.] ~ E ~ ~ ~ ~ ! ~ ~ ~ ~ ~ ~ Q ! ~ ~ ~ ~ ~ E E ~ ( <Xu.i.a.` ` _ ) r.E t.E E ~ _ ~ ~ ~ ~ ~ W ~ ~ E ~ ~ Y B M q b ",
"q q b n B G ~ f.d.d.d.~ r.r.r.r.d.d.d.f.p.r.r.[ r.] p.p.p.f.d.] ` ` p.p.{ { { { ] f.d.d.r.r.d.d.p.r.r.r.d.d.d.d.r.E Y B q q q q ",
"q b n q b B R E ~ ~ W R E ~ R E H ] ~ ~ e.~ ~ E ~ ] E ~ ~ ~ Q ] { ~ [ ] ~ E ] T T ] Q E ~ t.t.E ~ ~ ~ t.~ ~ E E E J B b q q q q ",
"q q q q b M B D D V V V V V A B B B B S S C Z V Z Z V V V V S A N B D D u A B B Z Z V V S D B Z B D S V V V V V D B M b q q q n ",
"q q q q b b b b M b M M q N M n m b n r t r M M M b b M M M t t n m m q w w q m b M M N r q b b n b M M M M M b b b M q q q q n "
};
