/* XPM */
static char *_f77dba618f24b2bf959e54cee25ee5atDgMGeE2x5X9NA5U[] = {
/* columns rows colors chars-per-pixel */
"64 64 244 2 ",
"   c #041A2D",
".  c #0A1B2D",
"X  c #05172B",
"o  c #081E33",
"O  c #0D2A3D",
"+  c #062539",
"@  c #052C44",
"#  c #0A2C43",
"$  c #0C2D49",
"%  c #032947",
"&  c #0B334D",
"*  c #09384B",
"=  c #0C3753",
"-  c #0D3B54",
";  c #0D3C5B",
":  c #073757",
">  c #123A54",
",  c #15365B",
"<  c #123C5B",
"1  c #163856",
"2  c #112D42",
"3  c #3E244D",
"4  c #3B294C",
"5  c #3D2650",
"6  c #3F2B58",
"7  c #3D305E",
"8  c #0D3A65",
"9  c #133C64",
"0  c #163D6D",
"q  c #073F70",
"w  c #3A3E6E",
"e  c #3D3D72",
"r  c #383E7A",
"t  c #441D47",
"y  c #471F51",
"u  c #41254E",
"i  c #4A234B",
"p  c #41284D",
"a  c #432648",
"s  c #422550",
"d  c #462C56",
"f  c #492B56",
"g  c #462D5A",
"h  c #492D59",
"j  c #4B2551",
"k  c #4D325B",
"l  c #44305C",
"z  c #54355F",
"x  c #5A355E",
"c  c #532E59",
"v  c #4D3B67",
"b  c #4D366C",
"n  c #443C6D",
"m  c #4C3B6C",
"M  c #483667",
"N  c #563666",
"B  c #5A3565",
"V  c #553966",
"C  c #593967",
"Z  c #573768",
"A  c #593669",
"S  c #543969",
"D  c #5A3C6A",
"F  c #453C74",
"G  c #4B3C72",
"H  c #483E79",
"J  c #533C73",
"K  c #5C3C71",
"L  c #593772",
"P  c #613868",
"I  c #603D71",
"U  c #6B3E73",
"Y  c #0B4158",
"T  c #14415B",
"R  c #0F436B",
"E  c #0E4765",
"W  c #154465",
"Q  c #134966",
"!  c #14466B",
"~  c #19466B",
"^  c #14496D",
"/  c #1B4B6C",
"(  c #1B4966",
")  c #0D4975",
"_  c #1A4471",
"`  c #144972",
"'  c #1A4D74",
"]  c #164B79",
"[  c #155174",
"{  c #1C5474",
"}  c #15547C",
"|  c #1C547C",
" . c #1B587E",
".. c #135C7A",
"X. c #2A437C",
"o. c #3E4274",
"O. c #34457A",
"+. c #3B437B",
"@. c #324C7D",
"#. c #3B487B",
"$. c #394675",
"%. c #225376",
"&. c #224D6D",
"*. c #4A416E",
"=. c #56426A",
"-. c #5D426D",
";. c #584064",
":. c #434475",
">. c #42437B",
",. c #4B447A",
"<. c #554475",
"1. c #5E4372",
"2. c #574779",
"3. c #60436F",
"4. c #624373",
"5. c #654C76",
"6. c #0D5484",
"7. c #0B5B8C",
"8. c #0C5788",
"9. c #155483",
"0. c #1A5683",
"q. c #145983",
"w. c #1B5A83",
"e. c #14558B",
"r. c #1A558A",
"t. c #145A8C",
"y. c #1A5B8B",
"u. c #0D5D95",
"i. c #0D599A",
"p. c #145C92",
"a. c #195C93",
"s. c #195996",
"d. c #1B4D82",
"f. c #2A4A85",
"g. c #364B83",
"h. c #3D4A83",
"j. c #394885",
"k. c #215584",
"l. c #2C518D",
"z. c #225885",
"x. c #38598B",
"c. c #395B94",
"v. c #21559E",
"b. c #16618C",
"n. c #0D6397",
"m. c #14649C",
"M. c #1A649C",
"N. c #186498",
"B. c #2D6A9F",
"V. c #28659A",
"C. c #3B6396",
"Z. c #3B639D",
"A. c #316D9E",
"S. c #366699",
"D. c #23719E",
"F. c #316A97",
"G. c #345BA0",
"H. c #0B66A3",
"J. c #1869A7",
"K. c #1C73AD",
"L. c #1C73B3",
"P. c #1C7ABB",
"I. c #1E78BA",
"U. c #256EA2",
"Y. c #2C6CA3",
"T. c #256DAB",
"R. c #2C6DAA",
"E. c #2766A6",
"W. c #3366A3",
"Q. c #3A65A2",
"!. c #336DA4",
"~. c #356DAB",
"^. c #2B73A4",
"/. c #2372AC",
"(. c #2A71AD",
"). c #2574A8",
"_. c #3372AB",
"`. c #3374A7",
"'. c #276EB2",
"]. c #2473B2",
"[. c #2C74B2",
"{. c #217BBB",
"}. c #2679BA",
"|. c #3678B6",
" X c #316EB1",
".X c #434A85",
"XX c #475588",
"oX c #425B93",
"OX c #465793",
"+X c #514D89",
"@X c #615A90",
"#X c #44629B",
"$X c #5C6397",
"%X c #6C6496",
"&X c #466AA7",
"*X c #576BA3",
"=X c #4B72AB",
"-X c #4971A9",
";X c #5775AD",
":X c #4779B7",
">X c #517FB9",
",X c #6474A9",
"<X c #686DA4",
"1X c #1C7AC4",
"2X c #3A7EC2",
"3X c #2B7EC2",
"4X c #487FC2",
"5X c #1680BC",
"6X c #2C85BE",
"7X c #3585BB",
"8X c #4683BE",
"9X c #5584BA",
"0X c #2C86CC",
"qX c #2C8BCC",
"wX c #2D87C4",
"eX c #3285C2",
"rX c #3A83C4",
"tX c #3C8BC3",
"yX c #348CCC",
"uX c #3B8DCC",
"iX c #3788C7",
"pX c #2E91CF",
"aX c #3891C6",
"sX c #2C8ED2",
"dX c #328ED2",
"fX c #398DD3",
"gX c #308ED8",
"hX c #2C93D4",
"jX c #2E96DA",
"kX c #3493D2",
"lX c #3B93D4",
"zX c #3395DA",
"xX c #349DDD",
"cX c #3B9ADD",
"vX c #3B95D8",
"bX c #3C9DE1",
"nX c #329BE2",
"mX c #3BA3EA",
"MX c #4484C4",
"NX c #448BCA",
"BX c #4291D4",
"VX c #459ADA",
"CX c #4987CA",
"ZX c #43A4EA",
/* pixels */
"3 3 p 3 3 3 u u u u s s s u u u i s u 4 a a a 4 3 4 5 6 5 5 5 3 4 i t d 5 s s y 4 4 4 4 p s s j u u s 5 u s s s u 3 3 p s 3 4 4 ",
"4 a 3 3 p s f h h f f f d g d f f f d d f f f h d k h d l l l d k f k g g g u f d d d d g h h f f f d f f d f d f f s a 3 3 a p ",
"4 3 p 3 a d N -.D -.D D D -.-.D D -.=.-.D P P P D P C P -.S <.G =.J <.S -.3.C -.D C -.-.-.-.=.=.-.-.D D C -.D -.D N d 3 3 u 3 4 ",
"3 3 p p f k C 4.3.3.-.3.3.3.-.-.1.-.-.4.4.4.U U 4.2.5.2.,.+X*XOX.XXX,.<.4.3.3.-.3.4.1.1.-.-.-.-.-.3.3.3.3.3.3.3.4.C k d s p a 3 ",
"p u a d N D D D D A D A C D D V V V D D I L L L :.$X,X=X8XMXBX2XMX:X.X:.C V V -.L S D S D P C C V A D D A D A D C D -.V d 3 3 p ",
"u u f z D -.D N C N C V V V V V V S C A A L L J n .X@.l.:XuXqXjXzXiX=X#.S D V M Z A D A C B B B A V Z V C V Z C B D D C N d u u ",
"3 f V ;.D C N A N N Z V N Z V V S S A A B P N N Z n n o.+.f.e.6XhXdX:Xf.w n D Z A L A B N B P B V C Z Z V A N N C V C D D V f a ",
"u h D 3.D N N A A A A Z Z A N V b S N A B B N N D M :.>.r OXA.7XsXzXuX8XC.+.G A A B A A C N B N C V N A Z Z A A A N V D -.D k s ",
"u f -.3.A N N A A D 4.I D Z N A Z Z S N V k N S m #.c.A.Y.!.Y.(.}.3XgXuX:Xf.F L L Z A A D b V S Z Z A A Z A A Z N N C A 3.-.d u ",
"u f D 3.D N A A A D K D A Z Z Z Z A A N z V S m #.c.B./././.[.T.'.3XdXkXrX~.+.M L Z Z N S S S v Z D D D A A Z A A A C A 3.-.f 3 ",
"s f D 3.D V V Z N A A D Z N N Z A A B z V V v o.c.!.(.[.(.T.T./.T./.yXkXuX(.Z.h.G D A A S Z Z b S D K D D A Z A N N N D 4.D f 5 ",
"s f D 3.D N Z Z A A Z A Z Z Z Z N A B B V V *.$.A.Y.'.'.E.s.p.(.Y.N.H.zXkXL.(.x.H Z A A Z S S Z A K 4.4.1.D A A A N V A -.D d y ",
"s d D 4.D V N Z Z Z Z Z Z Z Z S b V N P A N >.x.!.).U.s.e.r.e.z.w.e.u.kXjX5XK.!.+.b N A Z Z Z J 1.4.5.4.4.I D Z Z N V D 3.D f 3 ",
"5 f D -.D V Z Z A Z Z N Z Z S V N V B B L b #.C.^.^.a.e.r.r.0.} k.0.u.m.pXxXP.T.c.H S V Z N Z S 1.1.5.4.4.K D A Z N V Z 3.-.f 5 ",
"3 d -.-.D V N N N Z Z Z N N V V A N N L L G g.F.^.D.r.r.z. .....[ 0.0.6.J.VXwX'. Xx.:.V N B A S S K I 4.D D Z V V N V D -.D d u ",
"u d -.3.A V N Z N Z N Z b V V V z N N Z J h.c.^.U.b.a.r.y.%.....' ) r.r.b.lXvXH./.V.#.v B P Z V Z D 1.K D A Z A N N V D 3.-.d 3 ",
"u d -.3.C Z Z Z V N N N A A S S V V B V O.Q.R.T.m.u.dXfXt.w...[ ! ` } a.n.eXbXsX/.F.+.G Z A V v D S Z Z D Z Z D V N N A -.-.d 3 ",
"u d D 3.A C A V A N N C A V N N V V x m c.~.].P.iXyXbXqXM.] ` / Q ` ] 6.t.uXnXsX/.W.OX>.J b V v V S Z Z A A Z Z Z Z C D 3.-.d u ",
"u d D 3.D Z Z Z Z N N C Z V Z S V D N G &XT.L.0XdXVXeXm.t.) ` E ( W 0 q t.7XxXsX/.B.#Xr e H S N V D Z Z Z Z A V Z N N D 4.D d 5 ",
"u d ;.4.D A Z Z C N N N Z Z Z S b <.M n Z.'.{.hXcXyXm.6.r.) R / ( W 9 q } M.lXqX/._.Q.O.+.$XK N Z Z Z Z Z Z Z Z Z N N A 3.D d s ",
"p d -.4.D Z Z Z Z N N N Z Z S S S G n h.W.].sXnXbXeXN.} ` ' [ T - Y 1 9 q 6.VXyXu._.G.%.g.,Xb A Z S Z Z Z N Z A N N C D 3.D f 3 ",
"u d C -.D Z Z Z A N C N Z Z S S S b H OXW.{.nXmX0XM.9.0.! W W Q Y Y , , 8 ) tXm.p.B.W.V.d.;XJ A Z V Z Z Z Z Z Z A N N D 3.-.d s ",
"u d D 4.D Z Z Z Z N N Z Z Z N S L G >.oX[.0XnXhXn.7.9.] ! ( / E Y * 1 1 8 ^ `.a.p.e.Y.!.s.-XH L Z S Z Z Z A Z A Z N V A 3.D g 3 ",
"u d A 4.D Z Z Z A N N Z Z Z S N Z b r &XrXnXhXH.8.r.9._ / < W Y Y * 1 1 & % z.0.q.y.Y.R.|.4X>.G S S Z Z N Z Z V Z N C A 3.-.f 5 ",
"3 d -.3.D Z S Z Z V C N Z Z Z Z Z m O.Q.BXbXwXn.8.q.0.! ! W Q ; - Y = @ @ $ : '  .0.t.).uX|.j.H S Z A V A Z Z A Z N N A 3.-.d 3 ",
"u d C 3.D Z A Z Z A N N Z Z S Z N m X._.VXkXm.6.q. .%.! ! ! ( - > > $ # # # @ = { b.U.].kXBX=X>.m Z Z Z V Z Z V Z Z C D 3.-.f 3 ",
"a d -.-.D Z Z Z A C N C Z Z S Z z m l.rXVX7X7.t.w.| ' ! ` ^ W 1 1 1 $ # O + o + { q.^.].qXuX9XO.m S Z Z A Z Z Z Z N N D 4.D d 5 ",
"3 f D 3.D Z Z Z N N N N Z Z N Z S :.~.BXuXN.6.9. .| ~ ! ) R 9 1 1 2 $ O + o   o { q.U.].hXkX>X$.m S Z A V Z Z Z Z N N A 3.D d u ",
"u d -.3.A V Z A Z V C N A V Z m n @.MXdX[.t.r.r. .{ ^ ! ) ! < < 1 $ # O . . . + [ b.D.].hXuX-X$.m V Z Z V A Z A A N C C 3.D f u ",
"u d D 3.D A Z Z A N N N Z A Z m :.=XuX0XT.t.9.0.| | ^ ! ^ R < < 1 @ # O . .   o [ q.s.T.dXiXg.n b D Z Z Z Z A V Z N V D 3.-.f 5 ",
"u d -.3.A Z Z Z Z N N N Z A Z m $.>XiXI.].s.0.k.}  .^ ! ^ ! 9 9 > @ O O o . X + } q.v.'.fX4X$.S S Z Z V Z Z Z Z Z N N A 3.-.g u ",
"u d D -.D A Z Z C N C N Z N Z F g.MXfXL.].e.k.| q. .^ ! E ^ ; ; - * # O . X   % | y.R.'.fXMX:.M V Z Z Z Z A V A Z N C A 3.D g 3 ",
"a d D 3.D A Z Z Z C N N Z Z N F :XfXyXL.T.s.z.| q. .` ^ ! ! < < = # O O .   + &. .w./.fXgXrX>.A N S Z Z Z Z Z A Z V N A 3.-.d 3 ",
"3 d -.3.D Z Z Z Z N N C Z Z N >.rXyX}.T.(.e.z.%.q.q.^ ! ! ! ; < > O O O .   + &.%.q./.dXzXCXe D N N Z Z Z N A N Z Z C D 3.-.d 3 ",
"3 d D 4.D Z Z Z Z N N N Z Z S r MXiXE.W.(.e.0. ...q._ ~ ! ! ; T > @ + O .   % / %.q.].dXyX:XF A Z Z Z Z A Z Z Z Z N N D 4.D h 3 ",
"u d D 1.D Z Z A A N V Z Z Z N o.MXtXs.W.!.t.q.} q.0.~ ! ! ! ; > > & @ O +   % {  .6.].fX2Xl.G z N S Z Z Z Z Z Z Z N N A 3.D f 5 ",
"u d D 4.D Z Z Z Z N V N Z Z N F -XMXl.Q.^.r.w.w.0.0.! ( ! Q ; ; - > @ # O O @ %. .t.P.yXCXj.b C N S A Z A Z Z Z A N C A 3.D f 3 ",
"u d -.-.D Z Z Z C N N N Z Z S F l.:Xf.Z.D.q.} w.0.0.! ! ~ Q ; ; ; < @ @ 2 O % { q.p.kXfX*X>.V C N Z D D D Z Z Z Z N V D 3.-.g 3 ",
"p f D 3.D Z A Z A N C N Z Z N G f.=Xg.c.B.t.q.w.r.0.` ! ~ ~ ; ; ; - $ # + @ - ' q.m.cXfXj.b Z Z S S 4.K D Z Z Z Z V C A 3.-.f 5 ",
"3 d D 3.A Z Z Z C C N N Z Z N G j.;Xh.oX^.b.9.t.e.r.` _ ! ! ; ; ; = @ & @ = ( z.a.eXcXrXr L L S Z -.4.4.D Z Z Z A N V A 3.D f u ",
"u d D 3.A Z A V C N N N Z Z Z G g.*X+X+.F.D.7.7Xs.s.k._ _ _ ! ; < * 1 > > T { q.t.VXcXMXH Z Z Z K 4.5.4.D N N Z Z N N D 3.-.f u ",
"u d -.3.D A Z A A N N C V A Z G r ,X+Xr C.).n.7XBXv.k.0 _ _ ! Y ; > 1 1 < : w.t.H.uXlX:XH A L L K 1.I K D Z Z A Z Z V D 3.D d u ",
"u d ;.3.D Z Z Z A V N N A N Z m >.<X+Xe S.D.7.7XVXi.r._ _ _ R ; = T > = < 8 t.7.lXVXNXQ.F N Z S D S D D A Z Z Z Z N N D 4.D d 5 ",
"u d D 3.D Z Z Z N N C N Z Z Z m ,.@Xm :.C.^.m.aXvXH.r.] ' ! ! W - > < - ; | 7.H.vXrXR.X.n N L L Z S Z N Z Z V Z Z N N A 3.D d s ",
"u d -.3.D Z Z Z A N N C Z Z N L G <.v o.x.A.V.}.cX0Xa.} ` ! ^ / Y ; < 9 8 9.J.sXlX|.S.X.*.-.Z N Z S Z Z Z Z A A A N C D 3.D f 3 ",
"u d C 3.D Z Z Z Z N N N Z N Z b Z S b *.@.A.V.K.xXcXN.} ` ^ R E E ; 8 8 } N.dXmXP.T.C.$.v z N Z S Z Z Z Z Z Z Z V N N D 3.-.d s ",
"u d D -.D Z A Z Z N N Z Z Z Z Z Z A A v $.Q.R.L.hXxXa.0.| ^ / E E ^ ~ 0 y.7XZXnXP.'.C.o.v x C A V S Z Z N N N Z A N V A 3.-.g 3 ",
"u d -.4.A Z Z Z Z N N Z Z Z N Z Z N P N o.oXE.I.hXkXa.0.| ! ^ R E E _ ] b.VXjX5X].W.oX*.V V A V N Z A Z Z Z Z Z Z N V A 3.D h 3 ",
"u d -.-.D V V N N Z Z Z Z S S V Z B B x b O.W.L.P.kXM.r. .%.` ! ! ! ! k.a.7XJ.K.R.x.:.m B B L S N N S S Z Z Z Z A N V Z -.-.d 3 ",
"u d -.-.D Z V N Z Z A V Z V V N A B x B b e c.R.I.vXaXt.0.z.| ' ! ' 0.9.t.M.J.(.S.g.F N B A Z Z S S S N Z Z Z Z Z N V D 1.-.d 3 ",
"u d C -.D V Z Z Z N Z A Z Z Z Z B N N V v e g.Q.T.uXVXm.e.r.}  .} } } 0.t.M.)._.c..XM A B x x V N S N Z Z A Z Z Z Z V D 4.-.g u ",
"s d -.3.A N Z N Z Z Z Z Z Z Z Z N V V b m *.$.#X_.K.lXyXn.t.t.q.w.q.0.a.N.).).Y.OXH b N B x x B V S Z Z Z Z Z Z Z N V Z 4.D d 3 ",
"3 h D 3.C N Z N A N N Z V Z Z Z A N S N V D *.XX^.).0XZXiXi.6.9.t.y.(.E.J.]./.A.h.b Z Z A A N b Z Z Z Z Z Z A Z Z N Z D 1.-.h 3 ",
"s f -.-.A C N Z Z A A Z Z Z Z Z A A L A B V n $.F.U.{.vXfXi.m.8.a.M.[.[.R.[.Y.C.F N A Z Z Z S Z Z Z Z N A Z Z A Z A Z D 3.D d s ",
"s d D 3.D C C V A N A Z A V A V N b A A B A N n @.A.).{.vX}.'.E.U./.J.(.W.Z.$.o.v V A N Z Z S S Z Z Z Z Z A Z A A N Z D 4.D f s ",
"s h D 4.D A A A A A N A Z Z Z A Z A A A A N P M o.x.!.'.fXfXfX].(.(./.(.Q.X.o.n D V Z S Z Z S N S N Z Z A Z A Z A A Z A 4.D d s ",
"3 k D 3.4.I D A A A A Z Z Z V C V N Z Z A A A A b F OXQ. XiXkXqX]./.].T.G.f.r o.b L %Xm S V z Z V Z Z Z A Z A A N N V D 4.C k u ",
"a f z -.4.4.D D A V V Z Z A N V N V V N A A A A A L H r f.[.uXpXP.K.I.'.v.:X9X*XL L 2.b S Z z N N N N Z N N N V Z V C D D V f 3 ",
"u u s V 3.3.3.D A C C C Z V C V V V V C A B A A N N J G h.&XNXpXhXhXhXsX0XNX8X;XH Z N S J S L P Z V V V Z Z Z Z N D K C N f s u ",
"u 3 a f V 3.4.4.D D A D D D D A C C C C A P I A -.S Z S G .X:XrXpXqXzXdXaXNX:Xg.H K D D Z S L I D Z D D D A A D A D -.N s 3 3 s ",
"3 3 3 p f z -.4.3.3.3.-.-.-.-.3.4.3.3.-.4.4.4.1.=.=.-.5.1.,.XXc.8XNXMX9X=Xx.,.2.1.4.4.-.-.1.1.-.1.-.-.3.4.1.4.1.4.C k d s p u 3 ",
"3 p u p 3 d N V D -.D -.-.D -.-.P D -.-.I D K =.<.=.;.;.3.D J H j.;Xg.$.,.*.<.=.-.V -.;.-.=.V D -.D D -.D A -.D -.N f u 3 u p 3 ",
"p a 3 3 a s f k h h h f g d s h h d f h h h l d d d f j j c h g 7 M g l 6 6 l l h f k d d p f h h f f g h h h h f h s u 3 3 3 p ",
"3 4 4 3 u u u u s s s u s 3 p 3 5 5 s s s s 4 4 4 a j i t i i a u a a a a d 4 6 s a a a a a j j s 5 s u s s 3 s s 3 3 u 4 3 3 3 "
};
