/* XPM */
static char *_d283bca37ee47fdbfb94e36c90bdf1bPxrtHFF85DXxtF8L[] = {
/* columns rows colors chars-per-pixel */
"64 64 240 2 ",
"   c #021D2C",
".  c #001628",
"X  c #031C33",
"o  c #01212E",
"O  c #06273B",
"+  c #132A3E",
"@  c #3F1F48",
"#  c #022541",
"$  c #0B2C44",
"%  c #0C2C4A",
"&  c #062B46",
"*  c #132943",
"=  c #0B3348",
"-  c #12384E",
";  c #0C3553",
":  c #0E3B54",
">  c #0D3B5C",
",  c #0B375A",
"<  c #123B54",
"1  c #133C5B",
"2  c #163857",
"3  c #3F254D",
"4  c #3D294E",
"5  c #382749",
"6  c #3C2854",
"7  c #38345A",
"8  c #2B2B4F",
"9  c #0B3C62",
"0  c #123C61",
"q  c #1E3E64",
"w  c #3C3E75",
"e  c #343C6A",
"r  c #461E4A",
"t  c #40254E",
"y  c #422649",
"u  c #412451",
"i  c #472C55",
"p  c #492C56",
"a  c #452C59",
"s  c #492C59",
"d  c #4E2453",
"f  c #4D325B",
"g  c #43315A",
"h  c #52365F",
"j  c #5A375F",
"k  c #522B5A",
"l  c #4D3565",
"z  c #4C356C",
"x  c #443B6C",
"c  c #4C3A6C",
"v  c #493867",
"b  c #563666",
"n  c #5A3565",
"m  c #553965",
"M  c #593966",
"N  c #573768",
"B  c #593669",
"V  c #543969",
"C  c #5A3C6A",
"Z  c #443D72",
"A  c #4B3C72",
"S  c #423D7A",
"D  c #563671",
"F  c #543B73",
"G  c #5C3C72",
"H  c #593571",
"J  c #613A6B",
"K  c #603E72",
"L  c #15445E",
"P  c #0C466A",
"I  c #0F4A6E",
"U  c #084267",
"Y  c #144363",
"T  c #194666",
"R  c #124867",
"E  c #14466C",
"W  c #19456B",
"Q  c #13496C",
"!  c #1C4B6B",
"~  c #0D4A76",
"^  c #134673",
"/  c #154972",
"(  c #184B76",
")  c #0C5378",
"_  c #1B5376",
"`  c #15537E",
"'  c #1C547D",
"]  c #165A7B",
"[  c #1B597C",
"{  c #185977",
"}  c #18516F",
"|  c #2B487B",
" . c #3D4176",
".. c #34447C",
"X. c #3B457C",
"o. c #3D4A7D",
"O. c #334578",
"+. c #235173",
"@. c #23547C",
"#. c #204E6F",
"$. c #49406E",
"%. c #54426D",
"&. c #5E436D",
"*. c #5A4065",
"=. c #454275",
"-. c #43437A",
";. c #494379",
":. c #494678",
">. c #5E4372",
",. c #574776",
"<. c #4C507F",
"1. c #60436F",
"2. c #624373",
"3. c #6B4177",
"4. c #194D87",
"5. c #0D5786",
"6. c #155584",
"7. c #1B5583",
"8. c #145982",
"9. c #1B5985",
"0. c #15558A",
"q. c #135A8C",
"w. c #1A5A8B",
"e. c #19568A",
"r. c #0C5D97",
"t. c #145C93",
"y. c #1A5D92",
"u. c #175E9A",
"i. c #044D82",
"p. c #2B4984",
"a. c #284B89",
"s. c #354681",
"d. c #3A4681",
"f. c #3B4B83",
"g. c #344E86",
"h. c #215583",
"j. c #26598A",
"k. c #395589",
"l. c #245694",
"z. c #385B96",
"x. c #1A638E",
"c. c #0D6499",
"v. c #12629B",
"b. c #1A649C",
"n. c #156496",
"m. c #0F608F",
"M. c #29689C",
"N. c #336496",
"B. c #3B639B",
"V. c #37679D",
"C. c #0C64A2",
"Z. c #1D6CA3",
"A. c #1C6EAA",
"S. c #1569A5",
"D. c #1C71A6",
"F. c #1C74AB",
"G. c #1F79AE",
"H. c #1B75BB",
"J. c #1C76B5",
"K. c #256DA4",
"L. c #2B6CA3",
"P. c #266DAB",
"I. c #2A6FAC",
"U. c #2A66A4",
"Y. c #3466A4",
"T. c #336AA5",
"R. c #336DAA",
"E. c #3968A5",
"W. c #2372A5",
"Q. c #2C71A6",
"!. c #2373AC",
"~. c #2C73AB",
"^. c #287AAE",
"/. c #3373A7",
"(. c #2B6FB3",
"). c #2374B4",
"_. c #2A72B1",
"`. c #257BBD",
"'. c #2879B6",
"]. c #3A7BB7",
"[. c #356BB1",
"{. c #444882",
"}. c #47578B",
"|. c #445A96",
" X c #6A5687",
".X c #42649C",
"XX c #416194",
"oX c #586B9D",
"OX c #62679B",
"+X c #4973AA",
"@X c #5472AB",
"#X c #4778B6",
"$X c #5576B3",
"%X c #546EAB",
"&X c #6272A7",
"*X c #627AB6",
"=X c #1C7FC2",
"-X c #317CC5",
";X c #467DC1",
":X c #2A84BB",
">X c #3B82BC",
",X c #3887BD",
"<X c #4983BC",
"1X c #5682BD",
"2X c #2C89C5",
"3X c #2D8ACD",
"4X c #2885C7",
"5X c #3382C3",
"6X c #3C8AC6",
"7X c #348CCB",
"8X c #3B8BCC",
"9X c #3887C9",
"0X c #3B94CF",
"qX c #2E8BD3",
"wX c #2F8FDB",
"eX c #328DD2",
"rX c #3B8DD2",
"tX c #358CDA",
"yX c #2D93D7",
"uX c #3594D5",
"iX c #3B92D3",
"pX c #3594D9",
"aX c #3C96DA",
"sX c #3499DD",
"dX c #3C9ADD",
"fX c #3C98D3",
"gX c #2B91CF",
"hX c #3CA0DC",
"jX c #3B9CE2",
"kX c #369BE5",
"lX c #2F97E0",
"zX c #3DA2E5",
"xX c #4482C3",
"cX c #4987C9",
"vX c #5D85C6",
"bX c #458AD1",
"nX c #449ADD",
"mX c #4295D8",
"MX c #4991CF",
"NX c #419EE4",
/* pixels */
"3 3 4 t t 3 y t u u u u u 3 t u a u u u 3 6 4 4 y @ d r u 4 5 5 y y y 3 5 3 3 5 y y y y y d 3 6 u 3 u 3 u u u t t t t t t 3 4 5 ",
"4 y 3 3 t t i s p p i i i s i s s s k s a a i i i i s s 7 7 7 7 a f i i i f 3 f i i y i d s s s p i s s i i i s s p u t 3 3 y y ",
"4 y y 3 y i m &.B C *.C *.C *.%.*.*.*.*.J J &.C &.%.<.OX{.o.f.X.:.=.%.C J 2.B J *.*.*.C &.%.&.C %.*.C C &.M C C C h i y 4 t t 3 ",
"3 4 t t i h M 2.2.1.2.1.2.1.1.1.&.&.&.1.J K 2.2.>.,.:.&X&X*X$XvX$X|.<.,.>.3.3.K 1.1.>.2.>.2.2.&.1.>.&.>.1.1.1.1.1.M h p t t t 3 ",
"t 3 y i m C C C C C C C C V C M M M M C C B B N V %.%.A {.%XvX>XbX].j.o.$.V n B C V V V V C B V C C C C B C C C M M &.m i y 3 u ",
"3 t i h C &.C m b b b b m m m m b B M B B B B n V m b c d.w a.xXrXaX#X@X:.>.B B V D F F V m V N M m m m M m B b b M &.C h i u u ",
"3 i m C M M b B n n m b N b b b V H B B B C J n m l c =...| p.4.9XqXrX;Xd.z V b H D D V V M N N m M B B V V b b B M B C *.m s y ",
"t f C 1.C b b B B B V B B V B B D D H B B n n n V c  .}.|.B.B.T.8XqXwXbX%X-.V b V H H B M n b b V b b N B b B B B b m C &.C f t ",
"u i C 1.C b B N N C 2.K B m B B N D D b N l b c D S d.B.R.L.Q.~.'.H.tXtXxXk.e V V F B B J n n b V B B b b V b b M b m B 1.&.p 3 ",
"t i C 1.B b b B B B K C B V b V H H V b m m N A A {.z.R.!.D.!.!.A.`.-XtX6X].o.$.c V B J n n n B M B B C C B B B B N M C 1.&.p t ",
"u p &.1.C M b N B B B C B b N B b V m h j n J D S |.R.!.G.G.^.D.!.S.=XqXuX7XV.O.x V B B B B C b b C G K C B B B b N b B 2.C p 3 ",
"u s C 1.M b N N N b B B V N b N n b m n j j B z d.E.~.!.Z.D.b.n.K.~.P.C.yXhX]..XZ b N B n J n M B G 2.2.K C B B N b b B 1.C p u ",
"t p C 2.C m N V N N N N N V m N V N n B j m c =.z.Q.M.L.l.w.8.9.7.e.0.t.rXuX).[.f.A l m B B N B >.2.2.3.2.G C B N b m C 1.C s u ",
"u i C &.C m N b N N N N b B N V V b b B b :.-.z.T.M.q.0.4.e.9.7.j.h.7.0.v.aXrXI.z.S v b B B b F &.2.3.2.2.K C B N b m C &.C s 3 ",
"u i *.>.C m b b N N V V b b m N b V b A S }.N.Q.W.b.v.t.y.q.w.6.6.9.] 8.v.0X3X`.Y.f.A b V m m V B %.,.2.C C N m b b m C 2.%.i 3 ",
"4 i *.2.B b b N b N b b b m b V b H N z ..B.W.G.F.S.:X7X,X0.7.7.` 7.8.5.r.0XdX3XR.z.S m V %.m b V C >.>.C N N B b b m B 1.*.i 3 ",
"t i &.&.B N N N b m b M B N V b b V C A d.B.P.J.C.eXsXnX,Xx._ / I / ' ` ] c.kXqX^.E.}.w c V V m V V B B B B C B M b M B &.*.s 3 ",
"t i C 1.C M N N B M b b m B b N m N B z s.U.J.J.eXsXuX2Xt.P / P / E ^ / ) 5.dXwXD./.B.w A l V v V m C B V B m V N N M B 1.&.s 3 ",
"t i C 1.B V N B B b b b B V N N G b n V |.[.7XwXsXfX:Xt.~ ^ I I P Q ! > U x.sXqXS.b.N.o.F C F b N m V M N N V B N b b C 2.%.s 3 ",
"t i &.&.C b B V b M b b N b N V b V n x B.).pXyXuX:XZ.5.( / I I } > 9 > > ] rXpX4X^.L.z.A n b c V V N N B m B m N b b B 2.C p 3 ",
"u i C 1.C N N N N b b M N N N V N N n x R.`.lXsX2Xm.8.7.E E / Q U : > 1 , q rXqXc.F.^.V.A H F A V b N N b N b B m b m C 1.&.i 3 ",
"t i *.1.C B V B B b b b N N N V D z b -.].kXzXqXc.5.7./ E E Q Q L L < ; q 9 i.fX2XF.^.N.Z G OXS c V N N N N B V B b n C 1.C p 3 ",
"t i *.2.B V B N N b b N N N V V l V S g.4XzX4Xc.` j.7.~ / / Y Y 1 1 ; 1 2 9 >X,X,Xv.D.T.S ;.$Xg.A V N N N N N B N b b B 2.%.s 3 ",
"t i C 2.C B N b N b b N N N b b V x d.#XjXgXC.5.7.' ( ( ^ / T L < - 2 - & = U U 5.K.^.U.X.X.#X#XZ V N b b N B m N b M B 2.C p 3 ",
"t i *.2.C B V B V b b b B V N m z -.#XbXrX7Xt.7.' @.h.^ ^ ^ T : - < < = % & & 9 7.M.t.U.a.+X6X<X .V N M b V B B N b M B 1.*.s 3 ",
"t i *.>.B V B m M b b M N b N V %.w #XaX5Xb.6.` 7.' 7.^ ^ E T L L 1 - $ * $ # , [ w.t.U.4.<XuX,X .N N B B B m b N N M B 1.&.s 3 ",
"t i C 2.C B N B B b b b V B N c x g.8XqX_.0.9.7.h.7.( ^ ^ E L ; ; > & O + O O 1 _ [ t.P.P.6XuX,X .m V b B m B V N b b C 2.%.s 3 ",
"3 s *.1.B V B b M b b M N N N c  .@XrXH.L.w.' ' 7.4.^ ^ ^ P L : : > = O X . X * +.9.q.Z.'.7XeX<XZ V B b V B m B N b b B 1.C p 3 ",
"t i C 2.C V B V B m M b B b N c X.1X9X).L.e.` 7.7.7./ E Q P 1 2 ; & O +   X X X @.j.M.^.7XrXrX#X=.V N N V B b b b n b C 1.&.i 3 ",
"t i *.&.B B V B B b b b V B N Z ..#X6XJ.~.e.7.9.7.7./ Q E R 0 1 1 = * * .   X # ! 7.W.^.4XtX9Xa.Z b N N b B B V B b b C 1.C s u ",
"t i C 2.C B N N M b b b b N N A f.#XcXG.K.q.e.' ] ] Q E E Q > 0 < O + + . X # ! @.w.M.!.4XeXcXp.A b N N N N N B N b b C 2.%.i 3 ",
"t i *.2.C V N N N b b M B M N A s.#X'.!.Z.y.6.9.] ] I E E E 1 2 < * * + o o X +.@.6.y.A.4XrX#Xs.c V N N N b N N N b b C 1.C p 3 ",
"y i C 1.C b B b B b b b N N b A s.#X^.D.M.w.6.` ] { ^ W E T > L - + * * o o O } h.6.w.!.qXrX$X..c m N N B V b B V b b B 1.&.i 3 ",
"3 i &.>.C B V B B b M b N N b A d.#X~.W.L.8.7.` { _ ^ ^ W T : < : $ $ $ o   O +.h.w.5.!.eX8X@X-.c V N N b V B M B b M C 1.&.i 3 ",
"t i *.2.C N N V m b b m N N N c f.$XU.~.Q.x.6.6.{ { ^ / W W > : - $ $ O o X O #.+.7.W.`.gX8Xs.Z V m N B b B B m N b b C 2.C p 3 ",
"t i B 2.C N N N B M b N N N B A  .@Xj.M.K.x.4.w.[ { ^ ^ W T > : < * $ $ O o # | @.w.!.2XyX5Xw x V V B m B b V B N b b B >.C p 3 ",
"3 i C 2.C V B M N m b b N N N c :.oXg.Y.K.5.u.w.8.[ ^ ^ W R , > L - = O $ $ & +.@.w.F.3XaXxX{.V b V B B B V b B B b b M 2.C i t ",
"t i *.1.B B V B N b M b N N N c x  .| B.R.u.].y.8.] ( E R R > > : L O O + $ % +.' 0.J.yX8X#X;.B b V C B C B V B B b b C &.&.s 3 ",
"t i C 2.C V B b B b b b N N N c c <...z.R.t.:Xc.q.7.^ W Q R > 9 < < $ O * & ; _ 9.W.J.tX;Xa.A b b C >.G C N b N M b b C 1.%.s 3 ",
"3 i &.&.B B V B M M b b N N V b c  Xd..XT.u.8X5Xt.7.( W P Q Y 0 , L = $ % & ; _ 0.F.=XjXvXd.z n V G 2.2.C V N N N N b C 1.C s 3 ",
"t i *.2.B B V B B m b M B b b V m $.:.XXR.!.7X7Xt.q.' E E E W 1 2 : < < 2 2 1 @.t.2XjXnX%X;.F B K 2.2.2.C b b B N b M B 1.*.s 3 ",
"t i C 1.C V B m b M b b B V b V V c :.|.R.A.S.0X9Xt.7.E Q Q W , > < : : < Y ! ` t.eXjXbXd.z C K G 2.2.G C b V B N b M B 1.&.p 3 ",
"t i C 1.C m V B B m b b b B V b m %.c o.U.A.r.aXnXt.7./ I E W W > 1 : : , 9 ' 0.C.sXdX#Xw B b b B C C C B B b V N N b C 2.%.s 3 ",
"t i *.2.C B N N B b b M B m N V l %.c  .N.^.r.iXiXr.q.' / P E } > 9 2 1 > U ` n.7XjX8Xa.x n b F V V N b N N m B N b b B 2.C p 3 ",
"t i C 1.C B N N b b M b b N V b V B V ;.T.W.b.-XiXF.q.7.' E E E E 0 > , , U q.5XpXjX#X..D B l V V m N N N N B B B b M B 1.&.i 3 ",
"t i C 1.B N N N B b b b N N N B B B V A z.L.K.'.dX7Xt.6.' / Q Q Y 9 1 L 9 ` Z.fXkX3X[.d.z n N V N V N N N N V b V b m C 1.C p 3 ",
"t i &.1.B V N N N b b N N N b B n J B x g.Y.R.).dXaXt.w.7._ Q E / W 0 > U x.7XNXtX-Xz.w x m V N N m N b b b b b b b M B 2.&.p 3 ",
"t i C 1.C B B V B b b B N N B n H H b c  .B.U.).aXuXt.8.6.9.Q P E W T Q 5.,XnXH.=X(.z.Z v m b B N V B N N B B V B b m B >.C a 3 ",
"t i *.&.V m n b M b N N V V b V V D n B x X.E.'.jXuXt.6.6.9.9.R Q R Q 6.b.mXiX).A.L.w z B B V V b b V b N b N b B b m C &.&.i 3 ",
"t i *.>.C V m m B b B m m N m b b m n b b $.z.~.3XuXv.t.t.` [ Q R Q ` x.MXmX).P.~.E. .N n B b V b V V V N N B V N b m C &.%.p 3 ",
"3 s &.1.C V b B V M N B N N V b m m b M N A g.T.7XNX3Xv.4.j.[ [ _ 7.w.q.:X:XK.Q.N.}.S N B B n n N b b N N B N N N N m C 2.%.s 3 ",
"3 i C 1.B V b N b B N N V N b V m m M n B c w z.~.uXkX2Xy.7.7.] h.6.0.m.m.D.!.U.p.-.z N N n n n N V N N N N N N N b b B 2.C p 3 ",
"u s C 1.M M N b b B B b N N N m h h M m B F x o.M.`.lXtXb.4.7.8.8.0.y.P.S.).(.R.| Z V N n h n m N N N b V B N B V B B B 2.%.s t ",
"3 s C 1.B M b b B M B V b N B b m m m m B B N Z .XP.aXkX).P.t.6.q.K.I.(.(.(.[.|.-.c V b m m m n N N B N N N B N b m V C 2.C p t ",
"u p C 1.C M B B N b b B B b N N b b m m V B B A &XE.`.kXqXJ.P.K.F.P._.I.L.Y.|.w A b B b B b V V N N N N B B N B B b N B 2.C p u ",
"u s %.2.C M b B B B B b B V B b N n m V b b C b Z ..U.7XpXqX).).!.^.!.Q.V.s.w A V b B B n b V b N N N N B N B N B b N B 2.C p u ",
"y s &.2.2.C B C B B B V m b b n B B b b z m N N V Z | ~.eXqX3XJ.!.K./.N.O. .l V c %.j J b B C N N N N N B b b B B b m C 1.M f t ",
"3 p h C 2.2.&.B B b B m B V B B H B H b m m m V V c O.+X8XtXqX-XI.M.N.p.oX:.v m ,. XJ m N N m m N b N m b B b b B b M C C m p 3 ",
"t t p h 1.2.1.J B M M M m V V B B B D V b j m m V V $.o.+X6XmX-XR.a.4.a.<Xp.A B H G m n b V V V m m m m N B b B b B &.C h p u t ",
"t t y i m 1.2.2.C C B C C C V C C C F F M m V *.B K l $.g.#XMXbX;Xl.+X;X1X%XA G H B m J V V %.V V N C C C B C C B &.&.m a 3 t u ",
"3 4 3 t i h &.2.1.2.>.&.&.1.&.>.2.2.2.2.1.1.&.2.2.K 3.,.<.k.+X<XbX9XMX1XoX}.2.>.2. XK K ,.&.1.1.2.2.2.&.2.>.2.2.2.M f i t t t 3 ",
"t t 3 y t i h C &.*.&.C *.&.*.*.%.*.&.C *.C C C C K C >.$.=.-.k.#XMX+X| -.$.C 2.C C K H %.*.J 1.M *.C *.C C C %.C h p 3 t t t 3 ",
"5 3 4 3 t t i s p s s s i s s i s i d p i g s s k d s p a g 7 7 e oXe 7 7 i i s f 3 s l f y k p s s f s s p s s s s i 3 3 3 3 t ",
"y 4 3 t t t t t u u u u 3 u u 3 t y y y 4 u u u d r 6 a 3 3 y 6 8 8 5 5 y y 3 4 y 5 6 5 i y t u 3 3 3 3 u u t u u t 3 3 3 3 3 3 "
};
