/* XPM */
static char *fe533da77af74c0195acef2d4e4323ec4eyPhx2N2dDwQzwG[] = {
/* columns rows colors chars-per-pixel */
"64 64 247 2 ",
"   c #06191F",
".  c #011B2B",
"X  c #071C29",
"o  c #051D32",
"O  c #002339",
"+  c #0D263A",
"@  c #0C293E",
"#  c #062438",
"$  c #10263D",
"%  c #09202E",
"&  c #3B233D",
"*  c #3E1F58",
"=  c #062B42",
"-  c #0B2A44",
";  c #0C2D4B",
":  c #032A4A",
">  c #112A42",
",  c #112A48",
"<  c #0B334B",
"1  c #073245",
"2  c #133B4F",
"3  c #0D3B54",
"4  c #0D3C5B",
"5  c #073757",
"6  c #123653",
"7  c #133A55",
"8  c #123B5B",
"9  c #153859",
"0  c #002B52",
"q  c #3F254D",
"w  c #3A284B",
"e  c #3D2652",
"r  c #3C2B56",
"t  c #2D2E5A",
"y  c #0C3F63",
"u  c #133E63",
"i  c #3A3869",
"p  c #293C74",
"a  c #3B3C73",
"s  c #3A3B76",
"d  c #292F67",
"f  c #481F55",
"g  c #40254E",
"h  c #42284C",
"j  c #422445",
"k  c #412550",
"l  c #472C56",
"z  c #492C56",
"x  c #452D59",
"c  c #492C59",
"v  c #4E275E",
"b  c #4D315B",
"n  c #493257",
"m  c #51365F",
"M  c #57375E",
"N  c #512A57",
"B  c #4D3B65",
"V  c #4B376C",
"C  c #443A6C",
"Z  c #4C3B6B",
"A  c #473967",
"S  c #563666",
"D  c #5A3565",
"F  c #553965",
"G  c #593966",
"H  c #573768",
"J  c #593669",
"K  c #55396A",
"L  c #5A3C6A",
"P  c #453D73",
"I  c #4B3C72",
"U  c #483B78",
"Y  c #533B72",
"T  c #5C3E71",
"R  c #5A3974",
"E  c #532A63",
"W  c #633B6D",
"Q  c #64396A",
"!  c #643E71",
"~  c #0E405D",
"^  c #124155",
"/  c #0C4364",
"(  c #0C436B",
")  c #0C496B",
"_  c #134465",
"`  c #14466C",
"'  c #19456B",
"]  c #12496C",
"[  c #19486C",
"{  c #184766",
"}  c #0D4974",
"|  c #134672",
" . c #144A73",
".. c #1A4B73",
"X. c #194C7B",
"o. c #1C5475",
"O. c #14547B",
"+. c #1B547C",
"@. c #1A597E",
"#. c #155577",
"$. c #0D527C",
"%. c #2A457B",
"&. c #3D4274",
"*. c #33437B",
"=. c #3C447B",
"-. c #3D4A7D",
";. c #334579",
":. c #21557C",
">. c #225779",
",. c #214C6E",
"<. c #57416B",
"1. c #5D426D",
"2. c #564066",
"3. c #424274",
"4. c #4B4173",
"5. c #43447B",
"6. c #484A7B",
"7. c #5E4373",
"8. c #544679",
"9. c #60436F",
"0. c #60436F",
"q. c #624372",
"w. c #624178",
"e. c #363F84",
"r. c #194E86",
"t. c #0C5788",
"y. c #145583",
"u. c #1B5583",
"i. c #145984",
"p. c #1B5A84",
"a. c #13568A",
"s. c #1C558B",
"d. c #145A8B",
"f. c #1B5B8C",
"g. c #135B92",
"h. c #185996",
"j. c #0D5C93",
"k. c #2A4A89",
"l. c #2A4984",
"z. c #3A4782",
"x. c #354B83",
"c. c #374B86",
"v. c #215585",
"b. c #265487",
"n. c #3C5788",
"m. c #255894",
"M. c #385A94",
"N. c #2D4A95",
"B. c #0E629B",
"V. c #1B6294",
"C. c #13629C",
"Z. c #166599",
"A. c #236B9B",
"S. c #2B6A9E",
"D. c #22679E",
"F. c #34649B",
"G. c #326B9C",
"H. c #396698",
"J. c #306995",
"K. c #3D57A1",
"L. c #0D64A3",
"P. c #196AA4",
"I. c #1C74AB",
"U. c #1B75A8",
"Y. c #1D75B3",
"T. c #1E79B7",
"R. c #256CA4",
"E. c #2B6DA4",
"W. c #246DAB",
"Q. c #2C6BAB",
"!. c #2664A4",
"~. c #3365A2",
"^. c #326DA4",
"/. c #336EAB",
"(. c #3B64A3",
"). c #2273A5",
"_. c #2473AC",
"`. c #2B72AB",
"'. c #2A78AA",
"]. c #3270A5",
"[. c #3373AA",
"{. c #3A78A8",
"}. c #296EB4",
"|. c #2373B3",
" X c #2A72B3",
".X c #2678BA",
"XX c #3A79B5",
"oX c #464A89",
"OX c #44578A",
"+X c #435E97",
"@X c #575588",
"#X c #43639B",
"$X c #416096",
"%X c #586699",
"&X c #67669A",
"*X c #4565A4",
"=X c #5C6EA4",
"-X c #4B73AA",
";X c #5675AD",
":X c #447DBB",
">X c #4C7ABE",
",X c #4876B5",
"<X c #537BB4",
"1X c #4A6AB3",
"2X c #6576AE",
"3X c #2B7BC2",
"4X c #467BC5",
"5X c #2A85BE",
"6X c #3885BB",
"7X c #3F82AD",
"8X c #4382BC",
"9X c #4B80B2",
"0X c #5881BF",
"qX c #1D83C5",
"wX c #2C8BCB",
"eX c #2986C6",
"rX c #3485C3",
"tX c #338BCB",
"yX c #3C8CCD",
"uX c #3988C8",
"iX c #2D91CD",
"pX c #3992CB",
"aX c #2A8DD3",
"sX c #2B8DD9",
"dX c #348CD3",
"fX c #3D8CD3",
"gX c #388EDB",
"hX c #2E93D6",
"jX c #3394D4",
"kX c #3B94D4",
"lX c #3B94DC",
"zX c #349ADC",
"xX c #3699DA",
"cX c #3B9AE1",
"vX c #3499E5",
"bX c #3A9CF2",
"nX c #2790E3",
"mX c #3BA2E8",
"MX c #4484C3",
"NX c #4687C8",
"BX c #5182C2",
"VX c #418AD3",
"CX c #4294DA",
"ZX c #4595D7",
"AX c #4F96CC",
"SX c #439CE2",
"DX c #579CE1",
/* pixels */
"q w h h q q g g k k g k k k q h q h g j g q g g k e e e f j j w t d r w h w j h h q h h f f g w h g g g g k g k g g q q g q w w ",
"q q q q h h z z z z z z z z l l l x z z l l z N z c x l z N c b @Xi r n n n l z l z l l v E l l l l z z z z c z z l l q q q g j ",
"q q h q q l D 1.L L <.L L <.<.L 7.L L 7.<.1.W Q Q 9.<.L L Q G <.6.&X6.8.1.L L G Q 2.<.<.W T L 2.2.L L 1.L 1.L L L D l q q g g g ",
"q q h h l b G q.q.9.9.9.9.9.7.q.7.w.7.7.7.q.! ! 9.9.9.1.q.q.q.7.6.0X=X6.8.7.9.q.! q.9.7.q.! 1.q.9.1.9.9.9.9.9.9.9.G b l h h h q ",
"h q j l F L L L H L H H L G K L Q L L K L L G D D Q F 2.4.Z Y R R oX-X<X<X&.4.G L J L L G G H H L L H K L H L L L L <.M l q q g ",
"q q l m L 1.L S G G H G G G F G J J J H F D F F Q M S A i &.&.5.U *.m.:X9Xb.3.H J J J J F G H H G G F G G H G G D G 1.L m l g g ",
"q z G 1.L G S H J J H H S S S S D M D F F 2.S S M J H I -.M.J.F.G.M.k.N.XX6X;.A K S J G F M H K F G K H H H H J G G G L L F z g ",
"g z L 1.L D S H G J H H H H S G D F D F B B V S G K I z.M.].'._.).E.K.N.yXNX-X5.K J J G F F K K K S S H H H H H H S D L 9.L b g ",
"g z L 9.H S H H H L q.! L H H H S H S K S R R K I 5.M.G.E.W.}.'.`.E./.Q..XfXXXb.K J J Q S H K B H H H H J S H H H H S G 9.1.z g ",
"g l 1.9.L G J H J J L ! J H H H S S K H S H K V a +X].'._. XW.`.`.R._._.Y.tXpXXX&.H J J S H S K H J L L J J J J J S J L 9.L c g ",
"k z L 9.H G H H J J H L H S S H J J J J S K V oXH.S.A.'.R.D.V.S.E.R.R._..XwXjX6Xc.I J J L S H H H L ! T L H H J H S S L q.L l k ",
"k z 1.9.H G H H S J H H H H H H J D D D S V 3.n.].U.U.Z.D.y.i.i.d.d.V.).I.I.iXpX-Xe.Y J H J H G H T q.q.T L J J H S S H 9.H z k ",
"k l H q.K G H H H H H S H H H K H F F m H K =.H.).U.U.B.j.a.@.$.i.t.t.E.`._.eXpX4X*.P H S J H K T 7.w.q.q.7.L J G S G L 9.1.z g ",
"e z L 9.H F H H H H H S H H K S B S F F H A n.{.5XwXhXaXB.d.#.@.i.i.y.m.S._.5XiXMXk.U J S H H K q.q.q.w.q.W L H K S F K 9.L z q ",
"g l <.9.L G S S H H H H S K S S K H H H K a ^.rXnXnXnXbXcXpXV.u.$.f.b.r.u.V.5XcXuX~.U J D D B L H 1.q.q.7.H H H S S G K 1.1.l q ",
"g l 1.9.H S S H S H H K S B S K K R S Y P x.4XSXvXbXSXnXxXtXd.u.p.+.r.v.u.a.L.jXxXXX5.K G F S J H L 7.q.H H H S S S G K q.L l q ",
"g l L 9.L J G H H G S G S S K K V L S I c.>XCXzXhXjXjXrXC.d.O.| | |  .+.v.i.d.pXxXuX*.Y F J J J H K H L H H H L H H G H 9.1.l q ",
"g l 2.9.L G H S H S S J H H K H H S Y 5.,XVXjXiXeXL.B.d.y.( [  ...`  . .#.p.i.Z.xXyXM.I F D J J H H H H H H H H H H G H 9.1.l q ",
"g l L 9.L H J H H S S S H H H H J Z =.-XNXyXrXB.g.t.a.u.u.| | ` u ` ] ) /  .f.j.jXpX(.5.Z m J J H H H H H H H H H S G L 9.L c q ",
"g l L 9.L H H H S S G S H H H K m I l.6X.XrX'.Z.a.s.u.v.| X. .( [ u / 4 4 / v.f.kXtX(.*.C F Y J H K H H H H G H H J S H 9.L z e ",
"g l 1.9.L H H H J G S G H H K H 2.3.XXtX|.|.g.s.s.v.+.o.' | ( ] { ~ 4 5 9 4 X.h.lXdXQ.x.C K K K H K H H G H H H S S J L 9.L l g ",
"g l L 9.L H H H H S S S H S K Z A ;.MXgX.XE.h.y.u.:.o...X.` [ _ 4 4 8 3 7 6 u s.ZXgX Xm.&.V K K K H H H H H H H H S G L q.1.l q ",
"g l L q.L H J H J S J S H H H Z ;.;X4X}.}.W.d.i.+.:.o.) ` ( [ ' 4 3 3 < 6 9 5 | lXgX|.G.-.A B D H F H H H H H H H S S H 9.1.x g ",
"g l H 7.L H H H S S S S H H H P *.9X4Xh.!.'.V.$.@.@.o. .) [ u { 8 3 ^ 2 - - : ( CXsX|.].OX3.H D G K H H S H H H H S G H 9.L l k ",
"g l L 9.L H J H H G S S H H H P k.:XNX!.`.!.f.y.@.@.@.] ] ` { 4 8 8 3 1 - - = y kXaXB.^.+X4.F S G H H L H H H S H H D G 9.1.l q ",
"g l 1.9.L H J H H H S S H H K P >XAX:X[.R.g.s.s.i.#.#.} ] ` ` 4 9 7 < 1 - , # 5 kXaXj.E.#X&.B L H H H H H H H H H S J L 9.L z e ",
"h l L 9.L J H H H G G S H H H &.8XuXs.^.E.a.g.y.+.X.X.| ] / u 9 9 6 < = - # O : pXjXg.G.$X&.C K K H H H H H H H H H S L 9.L z q ",
"q l L 9.L H H H H S S S H H H a 8XrXv.H.].a.a.p.u.+. .| ] _ 8 9 9 6 ; O @ # . # AXtX_.{.$X&.a C K H H H H H H H H S S H 9.L z e ",
"g l L 9.G G H H H S S G S H K P <X:Xv.F.~.f.y.p.@.+.| | .._ 8 7 9 < = @ + % . # 7X6XR.~.M.x.c.&X4.H G K J G H H H H G H q.L z q ",
"g l 1.9.H J H H H S S S H H K I %Xx.r.~.S.m.i.O.+.:. .` [ ' 4 8 6 - = - % X . O 0 a.Z.^.+Xl.%.=X4.G H H H H H H H H G L 9.1.l q ",
"g l L 9.L H H H H G S G H H H K <.a F.[.).t.@.p.+.:.[ | [ ' 4 4 2 = - > X   X . : r.!./.*Xl.m.;X3.H S S H H J H H S G H 9.L z e ",
"g l 2.9.L J H H H S S J H H H H S P H.R.'.d.i.i.+.:.] ` | _ 4 3 2 @ > $ X X % O ,.u.g./.M.c.XX<X3.H H H S H H H H S G H 9.1.l g ",
"h l <.q.L H H H H S S S H H K J J C J.A.E.h.6Xg.@.o.[ | ` ( 4 3 2 @ > $ X X . # >.o.d.S.H.k.NX8X3.F S H H H H H H H G G 9.1.l q ",
"g z L 1.L H J H H G S S H H K Y Y 3.J.{.E.h.VXZ.i.o...[ ] ` y 3 7 - @ @ + o . O o.@.V.].M.b.3X:X3.G H H H J G H H S J L 9.L x q ",
"g l L q.L H J H H G S G H H K K I s %.G.!.C.SX5Xi.+.` | ) ` y 9 7 < = @ + o . O o.i.a.Q.XX8X4Xk.P K H H H S H H H H S L 1.1.z k ",
"g z L 7.J H H H H S S H H H H Y &X-.%.H.Q.L.jXL.p.+.| | ] ` 4 9 8 < = @ $ + o O ..f.Q.|..XuX>Xc.I G H H H H H H H S S H q.L z q ",
"g l L 9.L H H H H J G S H H H K &Xx.-.H.!.L.zXiXg.+.|  .` ' 9 4 8 6 - - > + $ - +.i.W..XwXVX>Xz.C H J H H H H H H S G H 9.1.z q ",
"q l 1.9.L H H H H S S S H H K I &X-.%.H. XtXvXaXg.i.} | ` ` u 6 9 9 ; : - > , 6 o.i._.T.dXfX>Xz.P H T L L H H J H S G L 1.L l k ",
"g l L 9.L H H H S G G S H H H Y &X5.;.H.`.tXvXhXj.u.| | { ' 4 7 7 6 6 , , - ; [ :.d.U.Y.aXVX4Xz.Z L 7.L L H H H H H S H q.L z e ",
"g l 2.9.L H H J H S S S H H H V Y C -.$XE.T.vXvXg.y. .] [ [ ~ ^ 2 6 u 6 ; : 5 :.+.i.U.T.gXVX-X=.I T q.! L J H H H S G L 9.L z q ",
"g l L 9.L H H H S S G S H H K J K V 6.$XS.T.sXvXh.u.| ) [ ` { 3 3 ^ 3 5 8 4 5 @.#.p._..XdXNXe.U 7.q.w.q.L H H H H S J G 9.L l q ",
"g l L 9.G G H H H S S S H H K J R Y 4.oXJ.I.aXzXh.v.+. .] ] _ ^ 3 3 3 8 8 4 ( $.f.E._.rXfX,XoXV T q.q.T L L H H H H J L 9.1.z q ",
"g l L 9.L H H H J G G S H H H H J Q K =.G.|.aXzXh.u.p.) / ] { _ ~ 3 3 4 3 ~ o.p.a.`.5XtXuXk.4.K K K L L L J H H H S S L 9.1.x g ",
"g l 1.9.L H H H S S S S H H H H J J E 4.J.'.hXlXm.u.@.) / ) ] ] ~ 4 8 8 3 4 #.O.h._.eXtXBX*.B M H K H S J J H H H S S H 9.L c q ",
"g l 1.9.L J H H H S S J J K K J S J J <.n.`.kXlXh.s.@.#.} | | ` _ 4 4 8 4 y :.f.P.eXlXVX;X5.F M L K S H H H L H J S J L 1.1.z q ",
"g l L 9.L J H H H S S S S S K S L S S 4.*.E.tXlXj.i.i.@.#.| ' ' ' u 4 4 5 y u.A.|.lXSX:Xz.V F M G K H H H H H H S S F L 9.L z e ",
"g l L 9.L H H H H S H S J K V J J K B C s K.3XgXZ.i.i.p.p.+.| | ' _ u _ y ( t.P.iXcXNXN.s K H M G H S H H H S S J S S H 9.L z q ",
"g l L q.H H H H H S H S J S S K S K K A 5.*X}.cX5Xj.i.#.u.v.| | _ [ [ X.r.j.h.jXzXtX4Xe.I G D D G H H H H H H H H S G L 9.L z e ",
"g l 2.9.L G G S H S H H K F K H L J J R C =X}.SXkXt.t.s.s.s.r.` [ [ } t.L.kXSXcXzXyX*XoXV H S S K K S K H H H H H H F K 1.<.z k ",
"g l <.9.K G F S H H H H S K S H J J S B F &.Q.cXjXB.i.i.s.b.:. .] r.d.Z.dXmXvXgXZX,Xc.C K H H K K S K S H H H H H S G L 1.1.x q ",
"g z L 9.K K H H H H H H H H K F B K m F G A ~.fXlXL.$.+.b.+.O.p.a.!.xXxXmXvXwXVX1XoXa V K K K K K F H H H H H H H H S K 9.1.z g ",
"g z 1.9.H G H S H H H G H S K K K K F S M K %./.fXrXf.O.+.+.p.i.g.uXjXhXeXqXiXE.oXU V K K S H J K K H S H H H H H S S H q.L z e ",
"g z L 9.H G S S S J H H H H S K B K S J J Y =.,XVXfXQ.u.p.y.y.t.j.6XZ.I.Y.U._.E.c.I R J J D J D H H S H H H J J H H J H 1.1.z e ",
"k z L 9.H G S S J J H H H H H H H H S S K V C c.4XfX X!.A.i.i.V.U.).U.I._.U.A.H.6.I J Q J S D J S H J H H H J J H H J L q.L z g ",
"k z H 1.L G J J S J J S H H S H S R K S Y I R s 4XgXdXY._.).U.U._. X|.|._.[.#Xi A B D J K K S J H H H H J J H H H S H L q.L l k ",
"k c 1.q.L L J J S J H J H H H H J S S G V B ! U >XtXdXY._.).I.T. XW. XW.E.J.-.C B L G E K J H S H H H H J H J H J S H J q.L l k ",
"g z 1.9.q.L H H J J H H H G S H Q M G M D G J U x.4XfX.XQ.E.W.I._.R.`.[.M.z.I B B B Z B K J F F H H H H H H J S J S G L 7.L b q ",
"g z m L q.q.9.L J H J J H H S G M M M M F G J V &.-XDXVXa.~.Q./.S.G.H.M.oXV Y H K B B K K K S G S H G H H S S J H S G L L G l q ",
"g g z M 9.q.9.L H G G G F G G G M M M D H J J J B =.>XSXVXh.~.+X&.3.3.3.V J J J J J K H J J K F F F H G H H G H S L 9.L S z g g ",
"g g g l F 9.q.q.L L H L K L K G F L 2.2.H L Q J H P c.4XAX4Xm.n.5.4.Z K T J Q J Q L L L J J H G K H H H L H L H H L L G k q q k ",
"g q q h z m L 9.9.9.9.9.1.9.1.q.7.w.7.1.7.7.! q.7.7.@Xc.<XAXAX8XN.oX@X8.T 7.1.q.9.q.9.7.7.q.! ! q.1.9.9.q.q.q.7.7.G c l k g g q ",
"g h g q g z D L 1.1.L L 1.L <.1.Y 7.<.2.<.1.Y 1.L 7.J U z.k.XXAXBX2X%X8.7.1.<.G <.<.<.L L R ! ! <.1.L L L L L 1.<.D z q q g h q ",
"q j q q g g z c z c c z x l l x v c n l x z n l l z b n r i p ;X2X=X3.r h z z n n x n z x c c c c z z n c z z c c c l q q q q h ",
"w w q q g h g g k k k k g k g g k k j g g g q j h h & j f * * u p d t q h j j h q e q h q e e r e q k k k k k k k g q q q g q w "
};
