/* XPM */
static char *My_project1674843195[] = {
/* columns rows colors chars-per-pixel */
"64 64 256 2 ",
"   c #0B0204",
".  c #140102",
"X  c #1B0302",
"o  c #190609",
"O  c #1B0915",
"+  c #180B16",
"@  c #230502",
"#  c #240A03",
"$  c #2B0B02",
"%  c #270A08",
"&  c #350903",
"*  c #291305",
"=  c #321301",
"-  c #3B1401",
";  c #381A03",
":  c #260C15",
">  c #2A161A",
",  c #32141A",
"<  c #340917",
"1  c #3C2104",
"2  c #291725",
"3  c #331926",
"4  c #2F142B",
"5  c #3A2739",
"6  c #37292D",
"7  c #1D0922",
"8  c #451901",
"9  c #4F0D0A",
"0  c #751A01",
"q  c #482702",
"w  c #572603",
"e  c #573405",
"r  c #533116",
"t  c #792502",
"y  c #663602",
"u  c #6A360C",
"i  c #43293B",
"p  c #472A2F",
"a  c #622A26",
"s  c #6A4606",
"d  c #774904",
"f  c #795509",
"g  c #744916",
"h  c #765015",
"j  c #7A5222",
"k  c #735712",
"l  c #3E264C",
"z  c #3C2848",
"x  c #3E2652",
"c  c #3D1F51",
"v  c #412645",
"b  c #442A43",
"n  c #42254C",
"m  c #432A4C",
"M  c #4A2D4C",
"N  c #492748",
"B  c #483449",
"V  c #432553",
"C  c #442B53",
"Z  c #4A2D54",
"A  c #4B2D5B",
"S  c #462659",
"D  c #4C325B",
"F  c #4C3758",
"G  c #52355C",
"H  c #543B5C",
"J  c #563A58",
"K  c #522E4F",
"L  c #543564",
"P  c #553A63",
"I  c #5A3C65",
"U  c #5B3D6B",
"Y  c #583869",
"T  c #5B3B74",
"R  c #4E3863",
"E  c #613E6F",
"W  c #431F4D",
"Q  c #56435B",
"!  c #4F435B",
"~  c #5C416B",
"^  c #584363",
"/  c #5B4371",
"(  c #62426D",
")  c #634273",
"_  c #8C3005",
"`  c #AF3503",
"'  c #9A2528",
"]  c #D2310A",
"[  c #D0332D",
"{  c #E5312C",
"}  c #D72615",
"|  c #875706",
" . c #875816",
".. c #8D5209",
"X. c #AC5509",
"o. c #986904",
"O. c #966A19",
"+. c #916A17",
"@. c #A96902",
"#. c #A87703",
"$. c #A77718",
"%. c #B06D0E",
"&. c #885C25",
"*. c #966F2A",
"=. c #AA7826",
"-. c #B15A24",
";. c #CF4D09",
":. c #EA531A",
">. c #D56703",
",. c #CD700B",
"<. c #EC7116",
"1. c #CE492B",
"2. c #EA5924",
"3. c #F16E28",
"4. c #CF6426",
"5. c #AD2B4B",
"6. c #F26263",
"7. c #B88605",
"8. c #AB8217",
"9. c #B68619",
"0. c #B88E0F",
"q. c #B88824",
"w. c #B58E27",
"e. c #AA9604",
"r. c #C58903",
"t. c #D98907",
"y. c #C99805",
"u. c #D69905",
"i. c #C58C16",
"p. c #C99815",
"a. c #D69919",
"s. c #D58314",
"d. c #E69807",
"f. c #F79917",
"g. c #EB8F14",
"h. c #CBA703",
"j. c #D4A402",
"k. c #DBA402",
"l. c #DCAC01",
"z. c #D7A808",
"x. c #DAB403",
"c. c #D8A717",
"v. c #DCB714",
"b. c #C9A711",
"n. c #E6AA07",
"m. c #F6AA06",
"M. c #ECBD04",
"N. c #E7B707",
"B. c #F5B90A",
"V. c #E7AA17",
"C. c #F6A718",
"Z. c #E9B917",
"A. c #F6B917",
"S. c #C99725",
"D. c #CD9028",
"F. c #F38F2D",
"G. c #DBA926",
"H. c #D1A827",
"J. c #E8AA25",
"K. c #FBA926",
"L. c #E7B624",
"P. c #F7BA27",
"I. c #FBBA36",
"U. c #F1AD36",
"Y. c #ACED00",
"T. c #B7EC03",
"R. c #B7F304",
"E. c #B4F00B",
"W. c #DCD518",
"Q. c #DACD0C",
"!. c #ECC303",
"~. c #E9C706",
"^. c #F3C402",
"/. c #F4CB04",
"(. c #F4CB0B",
"). c #FBCC0B",
"_. c #F8C608",
"`. c #EAD508",
"'. c #F4D503",
"]. c #FAD404",
"[. c #F4DB04",
"{. c #FCD30B",
"}. c #F5DC0A",
"|. c #FCDC0B",
" X c #F7D609",
".X c #ECC514",
"XX c #FDCB13",
"oX c #F8C618",
"OX c #FDD313",
"+X c #FDDB14",
"@X c #FED31C",
"#X c #F8D917",
"$X c #ECD914",
"%X c #C7EB07",
"&X c #D8EA0A",
"*X c #C7F508",
"=X c #D8F70C",
"-X c #C7EB14",
";X c #D8EA17",
":X c #D9F416",
">X c #CAF314",
",X c #E9EA07",
"<X c #F4E303",
"1X c #FAE304",
"2X c #F4EA03",
"3X c #FCE30B",
"4X c #F5EA0B",
"5X c #FDEC0A",
"6X c #F9E707",
"7X c #E7F60A",
"8X c #F8F308",
"9X c #FCE314",
"0X c #F9E718",
"qX c #E5F516",
"wX c #F9F216",
"eX c #E8E91B",
"rX c #F9C727",
"tX c #FBD826",
"yX c #F7C837",
"uX c #F9D537",
"iX c #EACB2B",
"pX c #D8EC26",
"aX c #DAF538",
"sX c #D1F22C",
"dX c #F9E724",
"fX c #E4F826",
"gX c #FCE633",
"hX c #E6F739",
"jX c #EEEE2E",
"kX c #DEDD20",
"lX c #FA9245",
"zX c #F8B84D",
"xX c #FFB768",
"cX c #F9C746",
"vX c #FBCB57",
"bX c #FAD459",
"nX c #F6D247",
"mX c #DCF84A",
"MX c #D6ED42",
"NX c #FDE546",
"BX c #E8FA48",
"VX c #F6F846",
"CX c #E6FA55",
"ZX c #F6F65A",
"AX c #FBC966",
"SX c #FED765",
"DX c #FEDA76",
"FX c #FECB75",
"GX c #F6F964",
"HX c #FAFA78",
"JX c #F2F56D",
"KX c #FFDB88",
"LX c #FFE386",
"PX c #F8FE86",
"IX c #FFE497",
"UX c #FBFF92",
/* pixels */
"v z l l n n v m l V l z x C A x l n n l m m n z 5 6 > * * *         O 2 > 3 6 6 5 z z N N N N S W S W c C x z m b v N l l z l v ",
"z m V l n n Z Z D Z C D x x S R F F B M M b 3 4 o # o * * * * * * # # $ X X * o > 6 b B N M D Z A A L A V D G Z Z Z V c l n l l ",
"l l n V S A L L P U ~ I P ~ ~ R ^ ! B i 3 % % < = ; q s  .+.O.O.f d y w 8 8 * ; * # : 3 b J Q ! Q P U ( P Y / T T T S S V n l x ",
"z l n C A L Y T ~ ~ U ( ( ~ ^ ^ ! 5 > $ & - w u &.f +.8.S.S.H.a.b.p.9.q.=.O.*.k j u q ; % < i Q ^ ^ ^ U ( ~ U ) T T Y A n n x x ",
"z l V A Y T T T E I I I ~ I F B > : $ 8 y | O.=.q.#.7.p.c.V.Z.Z.V.L.J.J.J.D.D.D.=.$.$. .e = o > B ! ~ P I I P ~ T E Y G K N x x ",
"z m S L T T T L J J I I H M 3 # # ; y  .$.p.p.b.c.b.z.v.n.A.rXrXyXyXP.U.J.K.J.a.i.p.a.9.$.f q # * 2 B ^ I H I Y Y T U P J Z S S ",
"b M L U T T Y L J J G P N , # = e  .$.9.p.z.N.Z.v.Z.Z.A.Z.iXyXnXcXvXzXcXI.I.f.d.f.V.C.c.b.9.o.s ; # > b J G P L Y Y U I P G S x ",
"b Z P / T Y L L J I J v : $ q f $.,.a.a.n.B.Z..X.XN.A.yXyXyXcXSXLXKXKXDXvXcXP.C.C.A.A.A.Z.Z.y.8.f e $ * i H P L Y Y P U ~ P A V ",
"l G L ~ U G I H J I 5 + ; s +.8.p.b.n.V.B.oXrXP.rXV.I.vXbXFXDXIXIXIXIXDXbXcXrXP.A.P.A.B.XXA.n.y.9.8.k ; * 5 G D L L L U / U D l ",
"V A ~ / I H J H K p * r k w.w.b.v.N.Z.oXiXiXiXcXcXU.zXvXAXFXKXIXIXIXLXDXbXnXyXrXuXrXrX+X)._.N.z.c.b.w.+.r % 5 G G G G I ) U Z l ",
"x C ~ ) I I G F 5 % 1 k 9.b.c.N.Z.Z.iXyXcXbXDXDXKXAXvXAXAXSXSXAXvXbXbXvXbXSXSXbXNXuX@X|.].^.B.B.Z.V.c.w.&.; O z J I H I / Y Z l ",
"x D Y E U P L 5 : q f 0.b.Z.P.A.P.L.yXbXDXKXIXIXIXLXDXSXbXbXvXzXL.zXiXzXSXDXDXbXnXtX#X}.]./.B._.M.N.v.b.O.1 @ : 5 K P I ) U D z ",
"V D P ~ ~ P v : ; k 9.z.N.oXoXyXvXAXDXLXIXIXKXKXDXSXbXnXnXuXyXI.U.K.zXxXxXFXSXnXtXeX0X4X1X'.]._._.!.Z.V.9.y $ X 2 m P U / Y D z ",
"V Z ~ ~ P B , $ s 8.c.B.A.XXA.yXSXDXHXLXKXFXAXxXzXyXiXuXuXP.K.K.F.3.lXxXxXxXcXyXdX0X8X2X2X6X[.'./.@XtXZ.S.| 8 8 @ 4 Z / U Y D b ",
"S S / ^ F 6 % e $.i.C.A.B.B.C.yXSXSXSXAXzXH.J.c.V.P.Z.P.P.f.<.<.:.:.2.F.F.U.P.@X0X0X,X,X,X8X8X2X}.{.)._.n.r.o.d q # 2 ! ) U G W ",
"S R R ! B % ; +.D.J.C.m.C.V.d.C.G.U.L.G.G.H.a.u.a.V.V.f.<.>.] ] } :.] ;.,.J.B.+XOX9X4X,X8X7X8X8X[.|.]._.!.x.u.w.*.q : z ^ Y K W ",
"S A ^ H 3 $ g w.H.C.f.d.d.n.n.n.C.V.V.c.c.p.r.r.s.g.<.;.] ] ] :.} ` ` >.t.n.M.!.(.(.}.4X8X8X8X5X'.!.{.(._.Z.Z.Z.S.j = 2 ! ! A S ",
"W A ^ i % r j *.i.u.r.d.u.d.n.N.n.n.n.d.p.0.%.@.>.>.X.] ;.<.2.2.;.] >.t.n.k.l.N.M..X$X0XwX5X2X}./.M././.(.!.!.Z.H.*.1 O b ^ S c ",
"m B F 2 @ r w w d #.i.u.k.n.n.n.N.v.j.i.%.%.X._ X.` ` >.<.F.F.3.<.<.d.A.B.N.l.l.j.v.v.W.`.`.'.(././.].].).(./.v.8.e * . 2 J D V ",
"z B 5 O = a - 8 y o.i.j.j.l.n.x.x.z.y.7.%._ _ _ ` ;.4.lXlXU.F.K.m.m._.XX(.oXZ.N.j.j.h.h.x.h.l.x.N.^.].|.+X+X(.v.8.1 X o O 5 M N ",
"5 B 4 . - g u  ...9.p.z.l.n.n.u.j.y.i.@...0 _ ` -.F.zXzXzXzXuXuXM.^.+X9X9X9XOX.XN.7.#.@.7.y.y.u.n.N._.|.OX^.N.v.w.g $ o o 2 b i ",
"b 5 7 . - j _ u d 7.y.V.N.n.k.u.u.r.#...t 0 _ 1.lXAXFXDXSXNXjXeX`.,XwXwXwXdX#XoXv.r.@.@.@.,.r.t.n.B._.]._.N.N.c.w.h & X X : b i ",
"b 4 O o - u w 9 d %.c.V.n.m.n.n.u.,.X._ _ ` 4.F.vXDXDXJXZXaX-XE.%X,X7X4X4X#X.XZ.j.u.t.%.` ..@.,.n.B._._._.N.V.c.=.w & @ . O 5 5 ",
"v 4 O O & 8 9 u $.c.V.m.B.B.N.m.V.s.;.` _ 4.F.zXvXGXJXCXsX-XT.R.T.%X7X,X`.~.h.7.j.n.t.X._ _ @.a.A.B.B.^._.B.n.i.| 8 8 = $ O 7 z ",
"5 7   o $ 8 w o.b.x.~.~./.^.M.A.C.<.;.` 1.3.U.yXyXNXmXsX-XE.Y.T.T.=X7X8X4X(.v.c.L.G.r.X._ t o.u.B.).)./.!.n.y.,...y | s q # O z ",
"z o O o q  .q.H..X$X[.[.].{.).A.F.:.] } 2.zXzXuXjXpXE.E.E.-X-XT.T.>X7X2X3XtXuXnXyXP.J.D.D.@.#.7.x.(.+X+X(.k.u.u.a.D.S.q.&.w o 6 ",
"2 . . $ y w.yXiX0X0X<X6X3X9X@XC.:.} } } 3.lXyXjX;X%X%X-X&X-XsX:X;XqX7X7X,X#XgXNXVXNXuXtXiXc.0.7.h.N.#X+X.Xu.u.A.P.P.L.G.S.k # > ",
"+ o @ 8 o.J.iXdX$X9X4X4X3X|.rXF.] } } :.F.I.gXeX-X%X%X%X;X;XaXsXfXfXqX8X0X0XdXgXgXjXjXeX$X.Xx.y.z.x.~.#X_.N.B.A.rXA.A.c.S.O.= > ",
"> X 8  .i.L.@X9X}.}. X|.].).K.3.{ } } <.K.tXeX:X;X%X%X&XeXhXCXCXBXjXqX7XwXwXqXfXqX:X;X,X,X`.N.l.x.N.(.#XXX_._.).@XoXrXJ.q. .& : ",
"+ X w &.D.P.rXXXOX(.^.M.M.m.3.:.{ { } F.rXwX7X=X>X>X:XfXhXBXCXCXmXaXqXqXqX:X=X>X>XT.%X&X8X'.M.n.B.B.XX+XOX_.XXXXrXyXL.a.$.w # : ",
"o X = y O.i.H.iX.XB.M.n.m.f.3.:.{ { 2.K.@X,X%XR.*X>XpXhXZXZXmXMXaXmXhXaX;X%XT.E.Y.Y.T.&X4X#XB.d.m.m.B.A.B.B..Xz.V.U.H.=...- X   ",
"  o $ 8 9 y | p.c.n.n.m.d.f.3.{ { } F.yXeX%XR.R.E.>XaXBXGXCXMXsXaXBXhXpX-X-XT.T.E.E.>XqX#XoXd.>.d.m.m.n.n.n.j.#.o.8.q.O.y = X   ",
"  o X 8 a 8 8 $.p.j.n.u.f.F.:.] } 3.K.tX:XR.Y.E.E.sXCXCXCXMXmXBXhXaXMXiXQ.Q.%XT.E.>XfXdX.Xd.>.>.t.d.u.u.u.k.c.#.e e &.&.w & X   ",
"  . @ & g u & y 9.p.c.V.C.f.:.] ] <.rX#X=XE.Y.E.sXmXJXJXmXBXBXhXfX;XW..XQ.W.W.pXsXaXhXuXN.,.>.<.t.u.r.r.y.u.c.p.s ; w j - @ X . ",
": o @ & r *.w 8  .i.p.V.C.f.:.] ] g.oX9X=XR.R.>XmXJXPXPXGXBXhXfX&X&XW.W.iXkX;XsXmXJXHXSXI.a.g.g.d.u.y.u.n.k.z.a.=.q $ ; $ o O + ",
": o % 8 j *.g - w o.,.g.f.g.<.;.>.d..X$X7X*X>XaXCXUXUXPXZXhX;X&X&X`.W.Q.kXkXaXmXJXPXHXSXcXP.a.r.u.u.j.j.n.n.n.c.w.y $ # @ o . + ",
"> X = u $.w.+.q 9 ..#.g.K.F.<.>.t.u.N.$X,X:XfXBXPXUXPXJXaX;X&X&X;X,XW.&XpXhXZXJXPXPXJXNXuX.Xh.e.u.k.l.N.N.B.oXP.p.d ; o X . o 7 ",
"2 . ; j 8.p.0.o.o.@.r.P.zXK.f.g.r.7.h.~.$XqXjXVXPXPXHXMXsX%X*X>X%X%X%X&XpXBXGXHXHXGXNXgXdX$Xx.h.y.j.N.oXoX(.oX.XL.7.s 1 X . + 2 ",
"5 O r *.w.v.Z.v.V.v.Z.P.yXI.K.f.V.r.7.x.~.4XjXgXZXGXmXsX-X*XR.R.R.T.*X*XfXVXGXGXVXgXdX0X#X~.h.h..X.X@X@X@X@X+X+X`.v.S.+.e X O 6 ",
"6 O q *.S.Z.rX@X@XoXiXyXzXI.P.C.A.k.h.j.~.|.0XgXNXVXpXT.%XR.Y.Y.Y.T.R.=XfXhXVXhXfXwX4X4X}.x.x.N.$X#X@XOX@X+X}.9X9X#XL.w.j * o 5 ",
"5 > = &.w.L.XX@X@XtXuXyXI.cXP.A.A.N.l.l.N.(.OX#XdXwX&X%X%XT.Y.Y.R.*X*X=XqXfXfXfXqX7X2X[.~.x.N..XtX@XOXXX{. X4X8X4XOXrXH.*.= : 5 ",
"6 3 # e 8.J.oXtX@XuXgXuXiXP.oXXX_.M.l.j.N._.oX$X9XwX,X&X%XT.Y.R.*X*X=X7X7X=X:X:X,X,X,XQ.N.x.M.XX@X@XXX).].}.6X5X3X{.iXH.g % 3 5 ",
"z 5 * q $.S.Z.rXyXNXNXuXyXoX_._.{._.!.j.j.x.Z..X~.0X4XeX,X%XT.*X=XqX7X=X=X7X,X&X&XQ.~.Q.x.~./.{.+XOX).].[.1X6X}.'..Xv.w.e * i b ",
"B i 3 = s 9.c.P.I.nXNXuXtX|.(.].].'.(.~.x.y.p.c.Z.#X9XwXeXeX=X&X=XwX7X7X7X7X,X,X`.Q.x.x.~.'.].].{.).{.].[.}.[.`.~.Z.H.*.; 2 M m ",
"N M 5 # q O.i.J.U.zXrXdX9X|.|.}.}.`./.~.x.y.#.o.y..X$X}.,XQ.W.:XwXwXqX4X8X,X`.Q.x.x.h.~.`.[.[.[.].].3X].[.}./.!.x.H.w.s # 5 m V ",
"m F ! 2 = h 4.,.g.I.oX@X].1X5X5X4X<X}. X.Xy.| d #.c.N.x.$XQ.h.h.W.kX$X`.`.~.~.x.h.h.!.'.}.[.[.1X1X5X3X3X}. X(.B.v.b.j * > ! Z C ",
"N Z R 5 < w X.,.,.C.B.{.[.1X4XwX[.<X}.+XZ.u.| y #.b.h.y.l.c.7.| #.b.c.h.h.h.x.x.~.~.'.}.3X1X5X8X8X8X5X4X6X XB.N.z.8.s * p Q M n ",
"C S ^ H 3 & t _ >.f.B.{.[.2X8X8X2X,X1X+X.Xp.y w 9.c.h.7.7.r.0.o.| #.#.o.7.h.x.N./.[.}.1X5X5X5X8X8X8XwX0X+XOXA.c.y.f ; > Q J Z N ",
"n D P / Z < 9 t ,.V.B. X4X2X8X8X,X2X2X/.N.8.q 1 8.iXv.y.r.y.y.y.y.y.7.7.j.n.M.'.[.<X5X5X5X1X5X5X1X3X~..X@XoXiXb.$.1 $ B Q H D n ",
"n A / / I 4 & w =.a.A.OX+X6X8X,X,X7X<X/.j.#.q 1 e.b..Xx.k.k.N.N.N.V.n.k.N.^.~.'.[.1X5X4X5X1X<X<X'.!.h.z.G.L.H.8.s $ 3 G ( ~ C C ",
"n D / Y E K , & ..q.V.B.OX3X8X2X,X8X<X].~.x.b.b.Q.dX+X(.!.!.~.'.!.N.N.M.M./.]./.'.[.}.}.<X[.[.[.'.!.c.H.w.8.+.s = , K I I ~ Z m ",
"m Z ~ ~ I H i $ &  .$.c..X(.}.4X<X5X3X+X'.'.dXdX0X0X9X3X|.3X6X}./.!.^.)._./.]././.'.}.[.<X<X3X3X].x.p.$.s q ; * : N I E E P D z ",
"l Z I ) U J F i % - d q.a.N.@X}.1X6X9X9X0X0X9X0X0X9X9X3X3X[.5X4X`./.~.'./.]._.].[.|.6X2X2X1X1X{.!.z.$.s 1 # X : N G L T ) I Z l ",
"z F I ( U J ^ F b % -  .9.L.rXoXOX|.OX X@X9XOX|.].(.'.].1X1X5X5X5X5X}.[.|.].].].9X3X2X2X2X1X].!.z.0.| 8 X . + 5 G L Y Y ) U C C ",
"l H Y ^ U I H G D 5 : q  .D.a.K.m.m.B._.XXOX)./.)./.].[.1X5X8X8X2X2X<X<X<X1X3X9X9X4X4X4X4X X~.x.0.o.e @ . O 5 ! G L U U U Y R x ",
"V x ~ ) E I I I R F 5 : -  .%.,.<.g.d.m.m.B.).^._.^.].'.1X5X1X5X2X2X2X2X<X6X3X'.'.#X+X}.$X~.z.0.$.s - @ 7 z R H H P L U / Y R x ",
"z D P ~ E E T L R ! F 6 = - 0 t ` X.>.d.m.C.B._.XX_.^.].[.<X2X2X8X,X,X4X3X+X+X~.^.).XXXX.Xz.p.8. .e @ < v G P P L G L I E I D l ",
"V Z H U ) E E T P R ! ! i < 9 9 0 _ ,.s.a.V.Z.A.A.Z.B._.!.~.}.0X4XwX+X@XoX@XXXM.N.A.A.Z.c.H.8.f 1 = , b P L R U L I U U P J Z z ",
"V V Z J E ) ) / / R H H K K 3 & 9 w  .$.9.S.c.c.c.y.V.P.A.A.L.rXrXP.K.K.C.C.f.d.d.c.u.H.D.=.g ; # 3 K J I Y I L I U U L R Z n m ",
"V V n M J I ) ) U Y ^ I I I I K , & & w h O.8.w.9.X.%.s.F.F.F.F.F.F.lXlX3.;.>.,.,.$.q.+.y ; , > i J I I Y U ~ U U U U R D V n m ",
"S V W v M F ^ ~ E E E E ( I ( ^ Q p = $ ; 1 e j &.u ..-.1.1.1.[ 5.6.6.6.1.` -.-.O.u q ; $ , p J ( ( ^ ( ) ~ ~ ~ ~ P R A x x n l ",
"x V n n n B G U U U U Y E E Q J ! J J b 3 + # $ ; 8 9 ' ' 5.5.' 5.5.5.5.' ' 0 8 - # > 3 p J I U ^ I I U Y P Y ^ P G S V x x n l ",
"v n V V n V C K S G L A C D F D G D S M B i 3 > # $ # & < 9 9 9 9 9 9 9 < & & % < 3 b C m F Z Z A A G A C F F F F x V V n l v z ",
"v z l V V V n W N S S V V l l x x x V l b b i 5 5 6 > : < < 9 & & < % 2 < < 6 i i z C x l n C V N n n l x x x x x x x x l n z b "
};
