/* XPM */
static char *_1674825238[] = {
/* columns rows colors chars-per-pixel */
"64 64 73 1 ",
"  c #40264D",
". c #3F254C",
"X c #3F264C",
"o c #41284E",
"O c #472C54",
"+ c #492E56",
"@ c #462B53",
"# c #543863",
"$ c #5C3F6B",
"% c #5B3E6A",
"& c #462C54",
"* c #4F335E",
"= c #5B3D6C",
"- c #624273",
"; c #614272",
": c #553864",
"> c #5C3E6C",
", c #5B3C6B",
"< c #5A3B6B",
"1 c #42274F",
"2 c #4F325D",
"3 c #5C3D6C",
"4 c #5F4070",
"5 c #593A6A",
"6 c #563767",
"7 c #553667",
"8 c #5B3E6C",
"9 c #5B3C6C",
"0 c #573868",
"q c #492E57",
"w c #5C3E6B",
"e c #624373",
"r c #593A69",
"t c #5F406F",
"y c #583969",
"u c #5D3E6D",
"i c #624372",
"p c #5E3F6F",
"a c #644573",
"s c #5A3C6B",
"d c #5A3D69",
"f c #604070",
"g c #5B3C6A",
"h c #4B3058",
"j c #5B3D6A",
"k c #523660",
"l c #41284D",
"z c #634472",
"x c #624371",
"c c #5A3B6A",
"v c #4B3158",
"b c #41284C",
"n c #3C2447",
"m c #654674",
"M c #614271",
"N c #492D57",
"B c #5C3D6B",
"V c #634373",
"C c #5D3D6D",
"Z c #654675",
"A c #634473",
"S c #5E3F6E",
"D c #5E416E",
"F c #634573",
"G c #5C3D6D",
"H c #50335E",
"J c #5E406E",
"K c #5D3E6E",
"L c #41274E",
"P c #543763",
"I c #462B54",
"U c #482D56",
"Y c white",
/* pixels */
"      ....................................................      ",
"    XoO++++++++++++++++++++++++++++++++++++++++++++++++++OoX    ",
"   ..@#$%%%%%%%%%%%%%%%%%%%%%%%%%%%%%%%%%%%%%%%%%%%%%%%%$#@..   ",
"  Xo&*=-;;;;;;;;;;;;;;;;;;;;;;;;;;;;;;;;;;;;;;;;;;;;;;;;-=*&oX  ",
" ..@:>,<<<<<<<<<<<<<<<<<<<<<<<<<<<<<<<<<<<<<<<<<<<<<<<<<<,>:@.. ",
" 1@2345666776666666666666666666666666666666666666666666665432@1 ",
".&#8950666776666666666666666666666666666666666666666666660598#&.",
".qwe<66660rr06666666666666666666666666666666666666666666666<ewq.",
".qw-<66665tt56666666666666666666666666666666666666666666666<-wq.",
".+%;<66665tt56666666666666666666666666666666666660yy0666666<;%+.",
".+%;<66660rr06666666666666666666666666666666666665tt5666666<;%+.",
".+%;<6666666666666666666666666666666666666666660ruiiur06666<;%+.",
".+%;<666666666666666666666666666666666666666666rpiaaipr6666<;%+.",
".+%;<666666666666666666666666666666666666666666rpiaaipr6666<;%+.",
".+%;<6666666666666666666666666666666666666666660ruiiur06666<;%+.",
".+%;<666666666666666666666666666666666666666666665tt5666666<;%+.",
".+%;<666666666666666666666666666666666666666666660yy0666666<;%+.",
".+%;<666666666666666666666666666666666666666666666666666666<;%+.",
".+%;<666666666666666666666666666666666666666666666666666666<;%+.",
".+%;<666666666666666666666666666666666666666666666666666666<;%+.",
".+%;<666666666666666666666666666666666666666666666666666666<;%+.",
".+%;<666666666666666666666666666666666666666666666666666666<;%+.",
".+%;<666666666666666666666666666666666666666666666666666666<;%+.",
".+%;<666666666666666666666666666666666666666666666666666666<;%+.",
".+%;<666666666666666666666666666666666666666666666666666666<;%+.",
".+%;<666666666666666666666666666666666666666666666666666666<;%+.",
".+%;<666666666666666666666666666666666666666666666666666666<;%+.",
".+%;<666666666666666666666666666666666666666666666666666666<;%+.",
".+%;<666666666666666666666666666666666666666666666666666666<;%+.",
".+%;<666666666666666666666666666666666666666666666666666666<;%+.",
".+%;<666666666666666666666666666666666666666666666666666666<;%+.",
".+%;<666666666666666666666666666666666666666666666666666666<;%+.",
".+%;<666666666666666666666666666666666666666666666666666666<;%+.",
".+%;<666666666666666666666666666666666666666666666666666666<;%+.",
".+%;<666666666666666666666666666666666666666666666666666666<;%+.",
".+%;<666666666666666605506666666666666666666666666666666666<;%+.",
".+%;<666666666666666654456666666666666666666666666666666666<;%+.",
".+%;<6666666666666605sdds5066666666666666666666660yy0666666<;%+.",
".+%;<666666666666665fghhgf566666666666666666666665tt5666666<;%+.",
".+%;<6666666666660rgjkllkjgr06666666666666666660ruzxc666666<;%+.",
".+%;<6666666666665tdvbnnbvdt5666666666666666666rpimMc666666<;%+.",
".+%;<6666666666665tdvbnnbvdt5666666666666666666rpMMpr666666<;%+.",
".+%;<6666666666660rgjkllkjgr06666666666666666660rc5y0666666<;%+.",
".+%;<666666666666665fghhgf566666666666666666666666666666666<;%+.",
".+%;<6666666666666605sdds5066666666666666666666666666666666<;%+.",
".+%;<666666666666666654456666666666666666666666666666666666<;%+.",
".+%;<666666666666666605506666666666666666666666666666666666<;%+.",
".+%;<666666666666666666666666666666666666666666666666666666<;%+.",
".+%;<666666666666666666666666666666666666666666666666666666<;%+.",
".+%;<666666666666666666666666666666666666666666666666666666<;%+.",
".+%;<666666666666666666666666666666666666666666666666666666<;%+.",
".+%;<666666666666666666666666666666666666666666666666666666<;%+.",
".+%;<666666666666666666666666666666666666666666666666666666<;%+.",
".+%;<666666666666666666666666666666666666666666666666666666<;%+.",
".+%;<666666666666666666666666666666666666666666666666666666<;%+.",
".NBVCy06666666666666666666666666666666666666666666666666666<-wq.",
".+wZASr6666666666666666666666666666666666666666666666666666<ewq.",
".&#DFeGy06666666666666666666666666666666666666666666666660598#&.",
" 1@HJZASr6666666666666666666666666666666666666666666666665432@1 ",
" ..@#DFAK<<<<<<<<<<<<<<<<<<<<<<<<<<<<<<<<<<<<<<<<<<<<<<<<,>:@.. ",
"  XL@HJZe;;;;;;;;;;;;;;;;;;;;;;;;;;;;;;;;;;;;;;;;;;;;;;;-=*&oX  ",
"   ..@Pw%%%%%%%%%%%%%%%%%%%%%%%%%%%%%%%%%%%%%%%%%%%%%%%%$#@..   ",
"    XoIU+++++++++++++++++++++++++++++++++++++++++++++++++OoX    ",
"      ....................................................      "
};
