/* XPM */
static char *My_project__1_1674830441[] = {
/* columns rows colors chars-per-pixel */
"64 64 251 2 ",
"   c #291908",
".  c #351D15",
"X  c #331A0D",
"o  c #392705",
"O  c #3A2616",
"+  c #3E300D",
"@  c #301925",
"#  c #382529",
"$  c #3A283A",
"%  c #3F3724",
"&  c #1B1112",
"*  c #442802",
"=  c #4C3301",
"-  c #4D3C01",
";  c #4B3707",
":  c #533B02",
">  c #573907",
",  c #483618",
"<  c #543B1C",
"1  c #573719",
"2  c #4A2F1A",
"3  c #663F0D",
"4  c #4A3726",
"5  c #583928",
"6  c #452936",
"7  c #573A37",
"8  c #472E2E",
"9  c #663E3F",
"0  c #5B4405",
"q  c #5C4517",
"w  c #544A14",
"e  c #634403",
"r  c #6A4401",
"t  c #6B4C01",
"y  c #68490B",
"u  c #714E01",
"i  c #724C0D",
"p  c #6C5201",
"a  c #6A5703",
"s  c #725301",
"d  c #7B5C01",
"f  c #7A5807",
"g  c #684717",
"h  c #6D5217",
"j  c #765214",
"k  c #714E18",
"l  c #7D6302",
"z  c #7F6409",
"x  c #4B4125",
"c  c #584428",
"v  c #5A4239",
"b  c #664627",
"n  c #7B542A",
"m  c #64443C",
"M  c #684837",
"N  c #734A3C",
"B  c #775538",
"V  c #6B5028",
"C  c #3B1F48",
"Z  c #3E244C",
"A  c #3B2845",
"S  c #3F2556",
"D  c #41254E",
"F  c #43294D",
"G  c #442746",
"H  c #553B45",
"J  c #5A3C44",
"K  c #543C4C",
"L  c #5B3C4B",
"P  c #573649",
"I  c #422551",
"U  c #442952",
"Y  c #4B2D59",
"T  c #472A57",
"R  c #4E3757",
"E  c #553552",
"W  c #543B54",
"Q  c #5B3B54",
"!  c #54365D",
"~  c #5A365C",
"^  c #553A5B",
"/  c #5A3B5C",
"(  c #593655",
")  c #523153",
"_  c #623D48",
"`  c #623954",
"'  c #563666",
"]  c #593664",
"[  c #553964",
"{  c #593966",
"}  c #573769",
"|  c #593669",
" . c #553969",
".. c #59396A",
"X. c #5D3672",
"o. c #5B3A72",
"O. c #563670",
"+. c #4F3363",
"@. c #613967",
"#. c #663F73",
"$. c #613570",
"%. c #5C4244",
"&. c #59425C",
"*. c #6B4A44",
"=. c #654547",
"-. c #734D45",
";. c #715047",
":. c #664457",
">. c #6F5240",
",. c #5F426E",
"<. c #5A4065",
"1. c #5F4373",
"2. c #5F4278",
"3. c #61436E",
"4. c #634466",
"5. c #624372",
"6. c #664677",
"7. c #705268",
"8. c #845C03",
"9. c #815A13",
"0. c #836101",
"q. c #8A6308",
"w. c #956C1A",
"e. c #855E2F",
"r. c #9A7829",
"t. c #8B7438",
"y. c #987739",
"u. c #8D6933",
"i. c #A37D26",
"p. c #A37D34",
"a. c #8D6948",
"s. c #897342",
"d. c #987848",
"f. c #917356",
"g. c #A37A48",
"h. c #825F66",
"j. c #A47D6C",
"k. c #957165",
"l. c #AA8918",
"z. c #B68C1A",
"x. c #BD9417",
"c. c #B6960F",
"v. c #BFA012",
"b. c #9C8235",
"n. c #AA8726",
"m. c #B48C28",
"M. c #B79728",
"N. c #A88537",
"B. c #B89637",
"V. c #B38E36",
"C. c #9C8012",
"Z. c #C59816",
"A. c #C99F07",
"S. c #C9A319",
"D. c #E2BC1D",
"F. c #C59D25",
"G. c #C29D3A",
"H. c #C7A72A",
"J. c #D5B52D",
"K. c #C9A738",
"L. c #D4AB39",
"P. c #DBB53C",
"I. c #DAB638",
"U. c #D4B133",
"Y. c #E6BB29",
"T. c #F1BE2A",
"R. c #E5BA37",
"E. c #E9C42B",
"W. c #F2C52B",
"Q. c #F2C628",
"!. c #EDC433",
"~. c #E5C43D",
"^. c #EBC33C",
"/. c #EECA3C",
"(. c #EAC935",
"). c #F5CA39",
"_. c #F4D23B",
"`. c #EED63E",
"'. c #DFC12F",
"]. c #A88A46",
"[. c #B18A48",
"{. c #B89948",
"}. c #A88A58",
"|. c #B48C59",
" X c #AD9254",
".X c #BEA756",
"XX c #BEA24E",
"oX c #9D8E70",
"OX c #B39168",
"+X c #AA955A",
"@X c #C29B48",
"#X c #C49C5A",
"$X c #CBA94A",
"%X c #D6AC46",
"&X c #CBB24D",
"*X c #D4B444",
"=X c #DBB343",
"-X c #D3B34D",
";X c #DCBC4A",
":X c #D8B947",
">X c #C8A657",
",X c #D6AC58",
"<X c #C9B255",
"1X c #D5BC52",
"2X c #DCBC53",
"3X c #D9B858",
"4X c #E4BC45",
"5X c #E2BC57",
"6X c #C39862",
"7X c #C7A564",
"8X c #D8BC63",
"9X c #CEAA64",
"0X c #E0BE67",
"qX c #DBC24B",
"wX c #D9C14A",
"eX c #D9C355",
"rX c #EDC442",
"tX c #EDCB44",
"yX c #EDCD4C",
"uX c #E6C548",
"iX c #F4CD44",
"pX c #F3CD4B",
"aX c #FACE4C",
"sX c #F8CC45",
"dX c #EED345",
"fX c #EDD24C",
"gX c #E7D04E",
"hX c #F4D344",
"jX c #F3D34C",
"kX c #FAD24B",
"lX c #F8D649",
"zX c #EAC855",
"xX c #F2CD53",
"cX c #F4CC58",
"vX c #EDD455",
"bX c #F4D353",
"nX c #FAD452",
"mX c #F7D759",
"MX c #E6C96C",
"NX c #B2A994",
"BX c #B6AFA7",
"VX c #C6BBAD",
"CX c #CAC9AA",
"ZX c #F2DDB6",
"AX c #DAE5BF",
"SX c #F3E4BA",
"DX c #F4D59F",
"FX c #DAD7C6",
"GX c #EADFC1",
"HX c #D7E2C0",
"JX c #F6F3D4",
/* pixels */
"F Z F Z D Z D D D D I D I I Z Z F G G F D F F F G G D I S S Z Z S S S I I G A A A A Z A S Z F F F F I Z D I D I I U D I D D F Z ",
"Z Z F U D F T D U U U U U U U I U I F U U U I U G F I I T T I I T T T U I I F F F F S U U T F F U U U U U U U U D U C F D D Z F ",
"F Z Z Z Z F ..3.#.3.3.3.,.,.#.,.5.#.3.5.#.5.1.,.3.3.5.#.5.5.5.4...3.3.5.#.5.4.3.3.3.1.1.1.3.,.<.,.,.5.,.3.3.3.3.5.3.F D Z U Z F ",
"Z F Z U U Y ,.3.5.5.5.3.5.5.5.5.#.5.#.5.5.#.2.2.1.,.1.2.#.5.3.4.4.4.4.#.#.#.#.#.#.#.5.#.5.,.4.,.3.5.5.5.5.3.5.5.5...Y U Z D A Z ",
"Z U Z U ..,...| { { { | { { ' ..} | ....o.O.o.o...{ { { { ..[ { { [ ..| $.$.$.$.$.| $.$.o.....{ { { ..{ | { { ' ....3.<.U U I U ",
"Z U F Y ,.3...{ ' ' ' ' ' ' [ '  .[ ' ' | O.O.O.| ' [ ~ [ { [ [ ^ [  . .| $.$.| $.| ] | } } ' ' [ [ ' ' ' ' | ' ....@.,.U U Z Z ",
"U T <.,.{ ..' ' } ' ' | } ' ' [  .[ [ ! ' } } | | ] ] [ | } }  . . . . .+.} } | ] ] | ] ' | [ ' [ ' ' ' ' ' } ' ..{ { ..,...U D ",
"F Z 5.5.' { | | | | ..|  ... . .[ +.[ [ [ '  .' | [ [ ] |  .' ' [ [ [ +.[ [ ' ' [ ] [ | ] ^ [ '  .} }  .| | | | ' ..' { 3.3.I D ",
"I I 3.3...' ' | | | 5.6.| ' | ' +.O.| Y ....[ ' [ [ ] ] ] @.E { E L E E W W W ^ ^ [ ' ' } ' { ^ ' | | } | ] | | | ' ' { 3.3.U I ",
"I T 3.3...' ' | | | #.5.| | ..} O.O.| } [ [ [ [ / ( ~ ( ` ` =.N N N -.*.=.L %.Q W ^ ! | | ' ' [ ..} } | | ' | ' | ] | ..3.3.U I ",
"I U 3.3...| ' | | ' ..| } } ..| X.X.' | [ [ <.R Q K L _ -.e.6X>X,X,X>X6Xa.B >.*._ ` ~ ] ' | [ [ } ' #.5.| ' ..| } ' ' ..3.3.U I ",
"I U 3.3.{ ' ' | | | ' ' } } | | X.| | $.' ! K K =.M B n e.w.%XR.T.R.5X%Xr.w.u.u.n -.=.` ( ' ^ ' | ..5.5.| | ..| | ' ' | 3.#.U I ",
"I U #.3.{ ' ' | | ..} ' } } ' ' ] ~ $.| | ] L N OX>X<X-X:XI.^.W.T.T.Q.(.J.P.P.;X$X#Xg.a._ ) ]  .5.5.5.5.6.5.| ' } } ' ..3.3.U I ",
"I U 3.3...' '  .| |  .} } } ' ' ! ' ..] @.` m e.&XwX~.~.rX/.Q.Q.W.Q.Q.E.(./.R.R.R.4XF.p.9 9 ^ } 5.6.6.6.6.5.| | } ' ' ..5.,.U I ",
"D U ,.5...[ ' ' ' ' } } ' ' ' [ } +.| ~ ` N 6X5XR.T.!.!.sXaX_.hXsXhX_._._.iXR.R.R.R.L.L.i.a.=./ '  .#.2...} ' } ' ' [  .3.3.I D ",
"D I 3.,. .' ' } } ' } } } }  . .} +.' ` 9 e.,X4XE.Y.Y.R.pXnXnXjXlXhX`.hXhXjXL.L.L.R.R.P.m.g._ / [ [ #.5...} ..' { ' [ ..,.5.I I ",
"D U 3.3...}  .} ' { ' ' } |  . .[ { [ Q k.].$XR.'.I.l 8.uXnXyXbXjXdXdXhXcX4X8.8.G.*XK.L.B. X=./ ^ [ ' { ' ' | } } ..} | ,.3.U Z ",
"Z U ,.3...' ..} ' | ' { |  .}  .[ [ ^ :.f.[.@XG.I.H.l 0.uXpXbXfXfXlXdXhXmX5X8.d B.B.B.B.@X|.=./ [ [ ' { ' ' ..' ' } ' { 5.,.T Z ",
"Z U ,.3...' ..} ..' ' ' ' ' } } } | P =. X{.f r t l H.P.kXlXnXjXlXfXjXjXaXcXL.G.s t t f {.[.M L Q [ [ { ' { } } } ..' ..5.1.U S ",
"I U ,.1...' | }  .' | {  ...} } | ~ =.e.@XK.9.u p l P.rX/.iXdXlXlXlXaXpXnXpX:X%Xf y > i [.[.e.-./ [ [ { ' ..} ' ..} ' ..,.1.U Z ",
"Z F ,.3...} } } } ' ' ' } }  .} { ` OX#X%X=X2X3X3XzXcXbXlXjXlXjXbXnXkXaXkXxXzX3X{.}.t.y.#X#X|.j.:.' { ' '  ...} } ..' { 5.3.U Z ",
"Z U 5.,...} } } { ' { ' } }  .[ / =.#X%XR.uXeX8X8X8X8X3XvXpXkXhXbXpXaXkXcXcX,X>X+X}.s.d.|.|.OXj.:.{ '  .'  ...} }  .} ..1.,.U I ",
"I U ,.5.| ' ..} ..' ' ' } }  .^ J M #X%XzX*Xa : - ; > y 1XmXpXnXnXnXjXpXmX8Xh - , , , 2 M >.h.h.<.{ ' { | ' } } } ..' ..5.,.U Z ",
"Z U 3.1...} ..} ' ' | ' } }  .^ K V @X%X3X<Xw w x , + ; .X2XcXjXbXjXbXvXeX9Xw x 4 % + O 7 =.7.7.{ [ [ ' ..' } } } ..' { 1.1.U S ",
"Z U ,.,...} |  .| ' { ' ..' } [ W *.#X@Xp V CXHXHXCXx o - p 1XgXjXbXfXeXa w NXCXBXNX8 O ( ) <.,.[ ' ' | } } } } } | ' | 5.,.U Z ",
"I U 3.1.| '  .|  .| { ' ' |  .' / *.7X{.= , AXJXJXAXw - o - 1XmXmXyXmXeX= w CXFXFXVX7 4 P ( { +.[ ' { ' } } } } |  .} { 1.3.U I ",
"Z U ,.3...} ..} ' | ' ' '  .} ] ( =.7X>X: x HXJXJXSX+Xt.+ 0 eXvXpXnXcX3X; 2 NXCXGXJX}.f.=.P / { [  .} } } } o.}  ...} ..1.5.U Z ",
"Z U 3.3...}  .} ' ' ' { |  .} [ / -.>X>X: x CXGXSXDX{.r.= 0 <XmXmXlXbX3X> O NXNXZXZX}.f.7 J / ~ [ [ } } } ..} } | ..}  .,.1.U Z ",
"U U 5.,...' | } ..' ' { } }  .[ ( -.,X<X> o 5 g  X[.y e * : eXgXtXjXpX2X> o 4 x }.}.h q 2 8 ^ {  . .} } } } } } } ..' ..5.,.U Z ",
"Z U 3.,... ...} ..' ' { ' } ' [ Q N <X&Xr = * * y.y.0 - = p eXmXvXbXbX;Xp ; o + s.t.w = q 7 P { [  .} } } } } } }  .' { 1.3.U D ",
"Z U ,.3...}  .} ' ' ' ' ..} } [ E *.N.M.-X{.= * = + o 0 .XMXvXcXfXmXxXvXzX.X- o = = * > +XoX:.Q [  .} ' | ..} } } ..' ..5.,.U Z ",
"Z U 1.,...' ..}  .| { ' } ' } ' ^ m y.n.:X-Xt - - 0 0 0 eXvXcXcXuXqXbXpXvX;Xa : > e : e .X.X=.Q '  .} } } } } } } ..' ..1.,.U D ",
"F U 3.5.....}  .} ' ' ' }  .} [ ] _ 5 f -XuX=X;XeXeXeXqXfXpXxX*Xq.f ;XtXkXxX5X3X;X2X2X1XeX9Xm ~ { ' ' ' ' ..} ' } } } } 2.3.U Z ",
"F U ,.5...| } ..} ' ' ' } } }  .[ L 5 k $XuXiXkXvXgXfXvXjXbX%X$Xs z G.P.iXiXmXxXbXmXbXzX&X.X*.{ | { ' ' { ' } } } ..} ..1.3.U Z ",
"Z T ,.5...} } | | ' ' ' } }  . .{ W 7 g V.F.R.(.lXlXlXdXgXqXl l <X&Xz l uXvXxXnXfXfXuX:Xn.t.J ~ ' ..{ ' ..' ' ' } ..} ..1.3.U Z ",
"Z T ,.5...} }  ...' | [ } }  . .+.R H M y.V.=X(.)._.hXfXvXqXl 0.eXeXz l qXfXbXtXjXjXP.$Xu.B ` { '  .{ ' { ' } | } | } ..5.,.U D ",
"F T ,.3...} } | } ' { ' } } }  .<. .R 7 c i m.F.rX/.hXlXaXxX;X4XtXpXqXqXfXdXlXjX^.4Xm.N.M _ ( ] ' ' ' ' ' ' } ..} ..} ..1.,.U Z ",
"Z T ,.5.....} } } ' { ' } } }  .O. .[ ) 7 g r.V.K.I.rX/.sXsXnXkXkXkXnXfXfXdX~.tX=X%XN.a._ ( ~ ] '  .....' { ..} }  .} ..5.1.U F ",
"A T ,.5...} } {  .| ' ' } } } } $.| ! ^ H v q 0 a 0.z.F.4X).^.T.).R.~.tX~.uXH.z.8.i b m ` ~ | | .. .,.3.' ' ..} } ..' ..5.3.F Z ",
"F T 3.5...} } ..| ' ' { } }  .} ] @.{ / W v , ; : e r.m.L.L.I.R.U.R.U.I.P.K.m.r.r 1 5 J E ~ | | ....6.6.{ ' ..' } }  ...1.1.U Z ",
"F T ,.5.<. . ...} ' { | '  . .' ~ ] 4.,.A $ # X , > e e s t p p u u s s t u r 3 > 5 H W R ^ { | 5.5.5.#...' } } } ..} o.2.,.U Z ",
"F U 3.5.....} ..{ ' ' ' ' ..} } ~ @.4.{ F $ @ O 5 > i a p p a a u u s t s u r y > 7 K W &.^ ! | 5.5.5.3...' ..| ..| } } 1.,.U D ",
"Z T ,.3.....}  . .| ' | }  .}  .| ' }  .2.5.D 6 2 y {.-X:XwXeXeXwXU.J.J.I.K.m.r.y c H R +. .| o... .{ ..' ' } } } } } ..5.,.U Z ",
"Z T ,.5.....' | ' { ' ' | ' } } | | }  .o.| G 6 < t 1XgXfXfXgXqXqX(./.(.!.Y.H.n.e , v &.+.} | } }  .' ' ' { ..} } ..} ..1.,.U D ",
"F T 3.5...} } | } ' ' } } }  . .'  ... .o...3.:.1 i 2XxXkXrXH.S./.dXkX).W.W.E.L.i < 7 H W {  ..... .' ' ' { | '  .|  ...5.5.U Z ",
"Z U ,.5...} }  .} ' ' ' } } }  ...[ +.[ ..} 5._ 5 j 5XbXkX!.Z.Z.iXkXaX).T.T.W.U.i > b =.7 W ! [  . .' ' ' ' ' [ } ..} ..1.,.U Z ",
"F U ,.5...| } | } ' | [ } }  . . . .' ' | ~ / _ < y 3XcXxXpXF.Z.~.hX).Y.A.A.Y.I.s y d.g.m H / [ [ ' ' ' ' | .. .} .. . .1.,.U Z ",
"Z T ,.5... .' ..| [ ' } |  . .O.O.+.} ' { [ E =.< h 8XMX5X4Xv.S.tXtXI.J.A.c.E.J.d s y.d.M m K [ [ [ ' ' ' ' } } } | [ ..5.,.U F ",
"F U ,.,...' ' {  ...'  .| }  .'  . .O.O.} } W J 5 h MX8X8.0.P./.hXrXq.d l.v.Y.Y.z.i.i k s.f._ ( [ [ }  .} } ' | ' {  ...1.,.U Z ",
"Z T ,.3. .[ ' '  .' |  ...' ' ' '  .} O.} } ^ L 5 h 7X7X8.8.qXlXiX4Xt e l.v.E.W.Z.B.e 1 s.f.=.@.' [ }  .} | |  .' ' [ ..,.,.T Z ",
"I U 5.,...{ ' | | | ' ' ' .. .' [ ^ ^ / { ' [ W 7 5 b 9.,X5XvXjXuX;Xs s K.'.).lXsX,Xk 5 c =.( ] } [ } } } ' } } ..' ' ..3.1.U Z ",
"Z T 3.3...' ' ' | | ' .. . . .' ' ' ~ ! ' ' [ W H 7 3 9.5XcXbXzX:XM.a l J.(._.sXnX5Xk 5 7 K | } }  .} } } } } } } } [  .3.1.T Z ",
"I U 3.3...' | ' { | | | | } } } | } ' ]  . .+.&.J M g.V.5XaXnXuXl l C.c.E.Q.)._.pXzXg 5 7 ( } X.} |  .' | } } ] |  .[ ..,.3.T F ",
"I U 5.3...' | | ' | ' | { } ..} o.} ' |  . .+.R P M g.p.uXpXuX*Xs e l.v.D.Q._.).xX-Xe < H ^ } O.} } } | } } | | ' { ' ..5.,.T Z ",
"I U 5.3.{ ' | ' | | | ' | | ' } O.} } }  . .[ <.Q 7 M 9.m.F.M.n.e t U.'.Q.Y.S.x.x.n.0 c 7 ! | ] }  .|  .' ' | ' | | ' ..3.,.U I ",
"I U 5.3...| | | | ' | | ' | } } } } |  .[ [ [ +.' ( 5 3 p.i.n.l.p l J.(.Q.Y.A.z.l.b.w 4 E | ! ] } | [ | | | } | | | ' ..3.1.U I ",
"G U 3.6.6.3...| | | | ' ' } ' { | ' | | { [ [ <.] ` 5 q 3 r r u r.M.R.W.Q.T.Z.n.s 0 o # R  .| ] { ' ..' } ' | ' ' ' ' ' 3.3.Z D ",
"I F ,.3.5.3.$...| ' | | ..' ' '  .} | | [ [ [ [ / L 5 y r u > y r.m.R.W.W.T.F.m.e ; X @ [ O.] ] { ' .. .....| | ' ' ..,.,.,.U I ",
"Z C U Y 3.3.3.3.' ' ' { ' ' ' ' } } O.O.[ ^ [ ^ W *.d.].N.r.1 > y f L.).W.).sX4Xt ; O # R } | ] ' ' ' ' ' ' ' ' { { ....U U D D ",
"U I U T 4.3.3.3.....{ ..{ ........| X.| { { { ^ &.=.s.].].y.< 1 1 y @XI.lX).aX4Xd y O # R  ...] {  . .' ..{ ..| ..,.,.<.T D U D ",
"Z F Z Z T Y { 6.5.3.5.,.,.,.3.5.1.1.5.5.3.3.2.5.3.:.;.V c q O . . * y f =XrXiXiXP.XXq 7 &.3.4.4.3.,.5.,.1.3.3.3.5.,.T T D Z D Z ",
"U U D Z F I ..6.3.3.,.1.1.3.,.,.5.5.3.3.4.3.2.#.1.{ K J 5 4 O & # # , q $X-XrX/.~.-Xw 4 %.&.4.4.4.1.5.,.3.1.,.3.5.,.U Z D F Z F ",
"Z Z F F U D U D U I U U U U U U F I U G G G I I T Y G G 6 6 $ $ $ #     q 8.m.Z.x.n.0 q $ $ F G U U U U U U U U Z T Z U U Z A Z ",
"F Z F Z D C U D I I I I Z U Z Z D D G G G F G D I T I ) 6 $ A A A $ &   = r p.Z.x.l.e , # $ G F Z U Z Z I Z I D F F Z F Z Z Z Z "
};
