/* XPM */
static char *player11674824981[] = {
/* columns rows colors chars-per-pixel */
"64 64 247 2 ",
"   c #382701",
".  c #35280F",
"X  c #3D2838",
"o  c #4D3A02",
"O  c #473708",
"+  c #533D02",
"@  c #533907",
"#  c #4A3918",
"$  c #53381E",
"%  c #4B2904",
"&  c #442B26",
"*  c #493926",
"=  c #573A2B",
"-  c #472C3A",
";  c #58393B",
":  c #473636",
">  c #603E1B",
",  c #584306",
"<  c #58471C",
"1  c #4D4200",
"2  c #6C4D01",
"3  c #654804",
"4  c #724E01",
"5  c #754D0F",
"6  c #6B5201",
"7  c #745400",
"8  c #7C5C01",
"9  c #785906",
"0  c #674817",
"q  c #724E15",
"w  c #775618",
"e  c #67541A",
"r  c #7C6102",
"t  c #79601D",
"y  c #584528",
"u  c #5A4436",
"i  c #554C28",
"p  c #69482A",
"a  c #734D2B",
"s  c #785426",
"d  c #6C4B34",
"f  c #64443C",
"g  c #6A4838",
"h  c #724D38",
"j  c #6D533B",
"k  c #7A5738",
"l  c #695429",
"z  c #7F613B",
"x  c #3B1F47",
"c  c #3C2945",
"v  c #3E244B",
"b  c #3A2749",
"n  c #3F2551",
"m  c #3B2A52",
"M  c #362A50",
"N  c #412645",
"B  c #41254D",
"V  c #432A4D",
"C  c #452B46",
"Z  c #5A3A43",
"A  c #553D4C",
"S  c #5C3A4C",
"D  c #573747",
"F  c #422651",
"G  c #442952",
"H  c #492A55",
"J  c #472859",
"K  c #5A3653",
"L  c #553A54",
"P  c #5B3C54",
"I  c #54365C",
"U  c #5A365D",
"Y  c #553A5C",
"T  c #5B3B5B",
"R  c #543452",
"E  c #4C344F",
"W  c #623C44",
"Q  c #643D59",
"!  c #563665",
"~  c #5A3665",
"^  c #563964",
"/  c #593965",
"(  c #563769",
")  c #59366A",
"_  c #55396A",
"`  c #59396A",
"'  c #553571",
"]  c #5A3572",
"[  c #5A3A74",
"{  c #4F3564",
"}  c #643E6D",
"|  c #613A67",
" . c #683E73",
".. c #5E4248",
"X. c #5C4257",
"o. c #6D4A43",
"O. c #674749",
"+. c #734D48",
"@. c #775647",
"#. c #664756",
"$. c #655559",
"%. c #785755",
"&. c #6E4C50",
"*. c #5E426D",
"=. c #5F456B",
"-. c #5F4271",
";. c #5F4278",
":. c #634264",
">. c #61436E",
",. c #6B4766",
"<. c #624473",
"1. c #64437A",
"2. c #684474",
"3. c #714569",
"4. c #76664D",
"5. c #825E08",
"6. c #846703",
"7. c #9D7B16",
"8. c #835B31",
"9. c #8C7939",
"0. c #9A7738",
"q. c #8E6F30",
"w. c #A87B3A",
"e. c #855F47",
"r. c #97754A",
"t. c #927054",
"y. c #947169",
"u. c #A07C5A",
"i. c #AE8C1D",
"p. c #B38E1D",
"a. c #B8931B",
"s. c #AA882A",
"d. c #B28928",
"f. c #B99426",
"g. c #AB8738",
"h. c #B28838",
"j. c #B3952C",
"k. c #9D8018",
"l. c #C69818",
"z. c #C5950E",
"x. c #C9A21E",
"c. c #C69728",
"v. c #C99C32",
"b. c #C4A424",
"n. c #D6B52A",
"m. c #C8A839",
"M. c #D2AD39",
"N. c #DAB43C",
"B. c #D6B637",
"V. c #DEA929",
"C. c #E8BA2A",
"Z. c #E5BA39",
"A. c #ECB735",
"S. c #EDC51E",
"D. c #DDC23F",
"F. c #EDC22C",
"G. c #ECC725",
"H. c #F2C728",
"J. c #ECC53B",
"K. c #EAC738",
"L. c #F3CA35",
"P. c #F2CD3D",
"I. c #F4C53A",
"U. c #F4D43D",
"Y. c #F8D338",
"T. c #EFD236",
"R. c #AA8747",
"E. c #A89355",
"W. c #B79759",
"Q. c #B28E4F",
"!. c #BCA74D",
"~. c #BDA554",
"^. c #B38D65",
"/. c #BA9867",
"(. c #AE9170",
"). c #C69E51",
"_. c #CBA84A",
"`. c #D3AC45",
"'. c #CCB44D",
"]. c #DDBA4C",
"[. c #D8B648",
"{. c #C8A756",
"}. c #D5AB57",
"|. c #D5B353",
" X c #DCBC53",
".X c #DDBC5C",
"XX c #D8B856",
"oX c #CEB658",
"OX c #E4BA49",
"+X c #E3BC58",
"@X c #F0BE4D",
"#X c #C8A667",
"$X c #DBBB65",
"%X c #D7B567",
"&X c #C5A875",
"*X c #DCBD73",
"=X c #D9B878",
"-X c #D2AE6F",
";X c #E3BC66",
":X c #C69E63",
">X c #DAC44A",
",X c #DCC252",
"<X c #DDC15C",
"1X c #EAC444",
"2X c #EBC64B",
"3X c #EDCD4B",
"4X c #E7C547",
"5X c #F4C444",
"6X c #F3CD45",
"7X c #F3CD4C",
"8X c #FACC47",
"9X c #EDD44C",
"0X c #EBD346",
"qX c #F4D345",
"wX c #FAD243",
"eX c #F3D34C",
"rX c #FAD34B",
"tX c #F7DA4A",
"yX c #E3C354",
"uX c #EBC352",
"iX c #ECCB53",
"pX c #E9C65B",
"aX c #F4CC53",
"sX c #F6CC58",
"dX c #EDD351",
"fX c #EED656",
"gX c #F4D353",
"hX c #FBD353",
"jX c #F3D35A",
"kX c #F8D756",
"lX c #EBC969",
"zX c #F3CD64",
"xX c #F0CE6C",
"cX c #ECCB73",
"vX c #BCA384",
"bX c #CFB282",
"nX c #C9BFB8",
"mX c #CDC7AD",
"MX c #FAE4BA",
"NX c #F6DAA0",
"BX c #DEDDC5",
"VX c #E8DECE",
"CX c #E5E2C5",
"ZX c #ECE1D5",
"AX c #FDF3DA",
"SX c #FAF7E4",
"DX c #DEE1CC",
/* pixels */
"V b V v v v B F v F B F B F v n m M m m m v b N V N B F n n x v F n m M M M c c N N c b V F F F F B B F v n v F F H v B B B V v ",
"v v V G F V H v F F F F F F F F G H n G n G G G G G F H H H G H J J G G m m c V V H V G G H H H F F F F H G F F v H v F V B v b ",
"B v v B v G ` =.<.>.>.<.>.>.>.>.:.:.>.<.;.;.;.-.=.=.} | >.:.=.:. .} | :.>.<.>.>. . .:.>.*.=.=.>.>.*.} <.>.>.>.>.<.=.G v v V B V ",
"B V v G H H =.<.>.<.>.>.-.>.>.>.,.} } 2.<.;.;.;.<.<.>.2.>.>.:.>. .} >.>.>. .3.2. . .<.>.;.<.<.>.>.<.>.>.>.>.<.>.<.` H G B B v v ",
"v G v G ` =.` / / / ` ) ) ) / / ` / | ) | ) ` ` ` _ _ ' ' _ ` ` _ ^ ^ ~ ~ | | ) ] ] ~ _ _ ^ ! ~ ` ` ) ) ` / / ) ) / >./ H F V F ",
"v G G H ` >.` ) ~ _ ^ ! ! ! _ ^ _ { ) ) ) ~ ~ ~ ` _ _ ' _ _ ^ ^ ^ ^ Y I / ) | ) _ ( ~ Y Y ! ~ ~ ! ! ! ! ^ _ ! _ ) / >.=.H F v v ",
"F H / =.` ` ~ ! ) ) ( ) ` ` _ ^ ' { ( ) ~ | ~ ~ _ _ ( _ Y L P P L L Y Y I I K K { ^ Y Y Y ^ ~ ~ _ / ) ` / ) ) ) ) / / ` *.` H v ",
"F B >.<./ ` ) ~ ) ) ( ` ` ) / _ ' ' ( ) U U U U ! ^ P ..O.d d d j j h f o.O.o.W A A A A Y Y ~ ) ! ! ` ! ) ! ) ~ ! ) ! _ <.*.B F ",
"F H <.>.) ! ( ( ) / 1.2.( ! ) ! _ ! ^ ! _ Y T Y R O.%.8.g.s._.|.[.`..X}.h.R.R.0.< = = = D U ! ) ` ) ) ! ) ) ! ) / ( ! / >.>.H B ",
"B G >.<.) ! ! ~ ) ` } <.) ( ) ! ~ ! { { ^ T L ..o.k 0.7.p.l.Z.J.F.F.A.OXc.c.l.d.7 2 > > ; W ~ ) ` ! ) ) ! ( ~ ! ) ! _ ` >.>.F F ",
"F F >.=.` ~ ( ) ) ! ) ) ! / ) _ U ~ ] [ { X.O.z #X}.OXA.C.S.H.G.S.H.L.A.C.C.F.F.C.M.d.0.0 = P Y _ ! 1.<.) ! ` ) ) ! ! ) >.<.H F ",
"F F >.>.) ! ! ( ! ( ! ! ! ! _ ~ ~ ~ ' [ I Z z q.+X@XI.A.L.G.H.G.S.H.L.L.H.H.S.S.G.C.x.d.4 $ Z Y / ) <.2.) ) ` ) ~ ( ! ) >.>.F F ",
"F H *.<.` ! ! ! ! ) ( ! ) ( ! ` ! ) ' ) S d ).].@XA.V.V.I.6XwXU.Y.T.qXwXL.Y.G.S.S.H.C.Z.d.0.O.L >.2.<.2.2.-.) ! ( ! ^ ` *.>.F F ",
"F F <.*.` ! ! ( ! ( ` ` ` ! ! ! ! ( ) K +.8._.1XZ.Z.v.v.sX7XrXqXtXqXeXeXU.U.n.n.G.H.H.A.c.R.g L >.2.<.1.1.-.) ) ( ! ! ` <.*.F F ",
"v G *.>.` ^ ! ! ! ( ( ! ( ! ! ! _ ( ~ &.^.{.m.b.b.d.9 5.].kXtX6XU.tXhXjX0XD.6.6.B.J.I.A.N.{.f A Y *.<.<.` ` ( ` ! ! ^ ` =.-.H v ",
"B G *.<.` ! ! ( ( ( ( ( ( ! ` { ( ! W h :X;Xj.j.g.s.7 6.yXaXrXwXU.hX7XgXkXyX8 r m.N.N.N.OX_.d X.^ ^ <.<.` ` ) ! ( ! ! ` <.*.H B ",
"B G *.>.) _ / ! ~ ! / ~ ` ( { _ _ I ; a %X}.5.2 6 6 m.].iXgXqXU.wX7X7XgXeX7XN.m.8 2 7 r m.{.h K T ^ ^ _ ! ! ) ! ( ` ! ) =.-.G v ",
"B F <.>.) _ ` ` _ ! ! ! ( ( ( ( ` P h 8.}.|.w 4 3 r [.iXsXaXeXtXrX6XtX9X6XeXOX].8 3 3 7 m.}.8.W P ^ Y ~ ! ~ ` ( ( ( ! ) <.=.G B ",
"v G *.*.) ! ( ( _ ~ ! ~ ! ( ( _ { #.^.).pXOX}.{.{.|.uXsXsXhX7X7X9XtX9XqXtXhX@X X{.{.W.!. X XQ.(.#.^ ! ~ _ ! ( ( ( ` ( ( =.<.G v ",
"F G *.<.` ( ) ! ! ~ _ _ ` ( ( ^ ^ $.W.}.+X+X_.W.{.oX.X XjXkX3XkX9XgX9X9X6XiX|.%X{.#X/.W.{.{.W.(.#.^ ^ ~ ! ( ( ( ( ` ! ` <.*.G B ",
"v G =.<.) ^ _ ( ( ! ! ! ( ( ^ { A O.Q.Q.}.{.3 , @ @ o 2 ,XiXkX3XtX9XgX3XfX,X3 O O O # * j k u.y.#.^ ^ ~ ^ ! ( ( ( ! ` / *.>.G v ",
"v G <.=.` ` ` ( ` ~ _ ~ ! ( _ ^ L Z u.^./.E.i # y =   @ ~. XjXeX9XgX9XiX>X!.e i y u . & ; ..y.y.X.^ ! ! ) ! ` ( ( ` ! ) >.-.G B ",
"B G -.>.) ! ` ( ! ! ! _ ` ( ( ^ Y P &.+.u 4.mXBXCXmX$   o 6 XXfXgX7XjX+X6 e mXDXZXmX#.L L Y ,.X./ ^ ! / ! ` ( ! ( ) ! / >.*.G v ",
"v G >.-.) ( ( ( ( / ! ! ! ( ( _ _ U | X...$.DXAXAXCXy O   o XXfXgXeXkX|.+ # BXSXSXZX$...Y ^ *.:.^ ! _ _ ! ( ) ! ` ` _ ) =.<.F B ",
"v G *.-.` ( ( ( ( / ! ! ( ( ( ( ) / 3.3.Y $.DXSXAXMXE.q.O @ .XdXeX3XjX<Xo * ZXSXAXMX/.u.S T ,.3.Y _ ! / ` ( ( ( ! ` ! ) >.*.G v ",
"F G *.>.` ! ( ( ( ! / ( ! ( ( ( ! ! 3.,.E $.nXBXMXNXE.q.O 1 '.fXfXdXfX'., * nXZXMXNXQ.r.f S $.:.^ ` ! ! ! ( ! ` ( ( ! / =.<.G F ",
"v V <.*.` ( ` ( ` ! ! ! ( ( _ _ ` / ~ Q C u i i E.E.q ,   + ,XiXdXaX3XyX1   * i E.g.5 0 % & R / ^ ! ( ! ( ( ( ~ ! ( ! / *.>.F n ",
"v G <.>.` ! ( ( ( ! ` ~ ( ( { _ ) / U R ..i . 1 r.9., + + 6 >X9XgXgXeX[.6 1   . 9.q.3 @ @ = - Y ^ ^ ( ` ! ( ( ( ` ` ! _ <.-.G B ",
"F F >.>.) _ ` ` ! ! ! ~ ` ( ( _ ` _ P O.(.(.< . O o   1 _.,XaXhXgXrX3XiX,X!.O     1   + E.E.#.X.^ ( ( ! ~ ( ( ( ! ` _ ) *.<.F n ",
"v G -.>.) ! ) ! ` ! ! ( ( ( ( ! ` ^ P o.&X~.w 3 , , 1 6 >XfX2X7X4X4XaXkXdX>X6 1 1 1 , 6 ~.#Xu L ^ ^ ( _ _ ( ( / ` / ! / <.=.G B ",
"B G *.*.) _ / ( ( ! / / ( ( ( _ { I L o.#X$X].+X<X,X'.>XfX3XuX[.8 6.[.1XhXaX<XoXoX,X].[.+X}.g X.! ^ ! ( ( ( ` ! ! ` ! ) *.<.G n ",
"B G -.<.` _ ` ( ( ! ! ! ! ` ( _ _ ^ A o./.|.sX8XgXdXfXfXdXdXOXm.r 8 m.[.7XgXzXfXjX9XgXsX[.}.h R ^ ( ` ( ! ( ( ( ( ( ! / >.*.G n ",
"V G -.<.` ( ( _ ( ( ! ` ( ( ( _ ^ Y L X.+.q.OX@XrX6XqX0X9XyXr r '.'.r r >X9X9XeXgX7X5XOXv.R.f Q ~ ( ( ( ^ ^ ` ! ( ! ^ / >.>.G m ",
"v G -.<.` ) ( ` / ( ( ! ( ( _ _ ^ ^ { Y O.8.).OX7XeXtXtXeXyX6.r ,X.X6.8 >XtXP.tXrXrXZ.OXh.r.O.Y ! ! ( ! _ { ! ( ( ! ~ / >.=.H V ",
"F G *.<.` ) ( ) ( ( _ ! ( ( ( ( ) ) _ ! Q g w.d.OX5X6X6X7XaXN.3XaXaX1XJ.6X6XqXU.K.1Xb.j.q f L _ Y ~ _ ! _ ^ _ _ ) ! ! / <.=.G n ",
"G G 1.<.` _ ( _ ( ( ! ! ( ! ( ( ( ` _ ! I W 8.0.`.`.1X6XhXhXeXwXrXrX8XP.6XqXU.K.N.m.i.k.p D Y { ^ ^ _ ^ _ _ _ _ ( ) ~ ~ >.=.G v ",
"v G <.<.` _ ( ) ! ! ! _ ( ( ( ( ' ( { ^ X.A f a 5 5.p.x.Z.J.K.K.G.K.K.J.6XJ.a.a.8 2 3 3 y A _ ` ! ( _ ( ' ' ' ' _ ( / ` >.>.G B ",
"B G -.<._ ` ( ) ) ` ! ~ ` ! ( ( ] ( { L X...@.a 3 9 7.i.M.N.B.B.B.n.n.B.N.m.p.k.7 , 6 0 = S Y ! ` ( _ _ ' ' [ { _ ` ~ ) >.>.G v ",
"m H -.<.` ` ( ` _ ! _ ~ _ ! ( ( ( / *.Y X.@./.{.h.7.7 3 4 4 2 3 3 6 2 2 4 4 2 7 k.i._.!.l ; K | ) / -.;.' _ -.{ ( ( ! ` 1.-.G N ",
"N H -.<.) ( ( / ~ ~ _ ! ! ! _ ( ) ~ ~ X.%.8.oXXXj.j.7 7 4 7 6 6 6 6 2 4 2 4 4 8 a.b.D. Xw p W K ~ _ 2.1._ { *.{ ! ~ ! ) <.-.G V ",
"G G -.<.` _ ` ` ` ! ! ! ! ~ _ ! ~ Q #.%.^.).zXuXuXsX@XOXN.M.B.B.n.n.B.M.`.[.].@X3XI.qX9X|.#Xg W #.2.>.<./ Y Y Y ^ ~ ) ] 1.-.H v ",
"m G -.<.` ) ! ` / ~ ! ^ ~ _ _ ^ ~ U &.8.).|.@XsXsXsXaX5XK.K.K.J.T.L.I.J.1X6X6XeX6X6XK.J.pX}.k W ,.>.>.>.Y Y L L Y ^ ) ] 1.-.H v ",
"B G <.<.` ( ( ` ! _ ^ ^ ^ ! ` ( ! T e.r.;XOXf.a.7XhXrXrXeXqXqXqX6XwXwXqXqXU.U.qXrX6Xx.x.uXlX0.e.Q ~ ) ) _ ^ ! I ~ ~ ( ] 1.-.G v ",
"B H *.<._ ` ( ( ~ _ ~ ~ ^ ~ ^ ! _ ..r.g.yX4Xd.p.2X7XrXrXrXqXeXwXwX8XwXqXtXqXU.U.8X6Xa.l.uX+Xg.r.#.U } ) ] ) ) { ! _ ( ] 1.1.V N ",
"G G -.<.` ) ( ) / ! _ ^ ^ ~ _ ^ L $.#X|.jX4Xj.j.4XeXqXqXeXqXeXqXrXgXgXgX9X9XqXeX7X3Xf.a.iXjXXX-Xo.Q | ) ] ] ] ' ) ) ) [ -.-.V N ",
"v G -.<.` _ ( ` ! ! ~ ^ ^ ^ ^ Y A j $XuXgX>Xs.s.iXeXeXqX9XeXqXqX9XeXgXdXeXtXeXeX9XiXs.s.iXpXpX%Xh W K U ' ] ] ( ! ) ) ] 1.*.G B ",
"B G -.<.` ` ! ( ! / ~ ! ~ ^ / T %.9.+X7X1XM.w 9 yXiXgXeXeX9XeXqXU.tXeXeXeXrXeXgXdX X9 5._.OXsX;X0.e.W D ~ ) ( ) ~ ! ! ) <.-.G B ",
"G G *.<.` ( ( ` ! / ^ / Y ^ ~ P t.w.uXhXOX'.q q .XiXgXgXdXeXtXU.U.U.9XeXqXqX8XeX7X+Xq q _.|.pXpXg.0.p D Y ! ! / ! ~ ( ) <.<.G B ",
"v G =.-._ ^ _ ( _ ! ~ Y / Y Y #.-X;XzX@Xh.w.> q |.5X7XkXdXdXU.U.U.tX0XfXdXeXP.rXA.[.q p q.w.pXzXlX#Xj Z Y { =.{ ^ _ ] ) } >.F F ",
"F G -.=.` ^ ! ` ! _ ~ ^ ^ Y Y &.bXcXzX;X0.q.p p `.Z.eXeX9XeXU.Y.Y.qX0X9XfXhXY.Y.Z.`.a f e.r.lXzXpX$Xh Z L I L Y _ ' ] ] } >.J F ",
"B G *.*.` ^ _ ) ~ ! / I ~ Y ^ $.bXcX*X-Xa f ; p d.l.C.L.rXrXwXI.wXwXtXhXgX6XI.A.c.h.g W g a #X+XlX*Xp Z X.Y Y I _ ' ' | <.<.J n ",
"v G -.*.) _ ! ( ! ` _ ! ^ Y ^ #.vXbX-XvXo.D W d g.l.C.F.P.A.8X@X8XI.1X2X2X5XA.V.c.h.o.W Z o.&X-X*X&Xg D Y Y Y ^ _ ] ' ] <.[ J n ",
"F G <.*.) ` ( ( ) ! ` ~ ^ ^ ! P $.O.&.&.R K D f g.i.z.z.z.z.c.c.c.c.v.c.c.l.z.z.f.g.Z T R D j p d o.D I ~ ! ! I _ ) ) ) >.:.G B ",
"B G >.*.) ! ( ( ) ! ` _ ~ / ^ ^ Y L R P Q Q K f r.s.a.z.z.l.d.g.w.w.h.w.f.l.z.c.h.r...Y ^ ~ D D D R U ! { ) ! ! ~ ~ ~ ~ >.>.G n ",
"B G >.<.` ` ` ) ) ! ) ) ! _ ! ! ( _ ~ ~ ~ ~ I P u t M.K.A.`.s p d p 0 5.`.J.A.`.w p A ! _ ` T U U ~ ) ) ) _ ( ! ~ / ~ ) <.1.F n ",
"B G >.>.` ` ( ( ( ( ) ( ! ` ! ! ( ' ( ) ! ) ~ R ; l '.0X1XXXa ; S Z ; q  X1X1X[.s ; X.{ _ ) ~ ~ ~ ) { ) ( ( { ) ~ ) ~ / <.-.G n ",
"V m <.2.<.<.` / ) ( ( ( ( ( ( ~ ! _ Y ~ ~ ) ) ~ X.o.;XjXzX$Xj A Y K Z l <XiXiX$Xa S Y { ^ ` ~ ~ ~ I Y Y ~ ! ) ( ) ) ) _ >.<.v V ",
"B G =.=.2.<.} ` ( ( ( ( ! ( ( ! ! ! ! ! ) ) ) ) Y +.*XzXzX;Xg P ! ! P j $XfXgX;Xh S Y _ ! ` / _ Y Y L Y Y ! ( ( ' ) ) ) >.:.V c ",
"v B G H >.<.>.<.) ) ( ~ _ ` _ / ( ) ! _ ) ) ) ~ L o.*XzXzX;Xd Z U ! K o.*XzXjXXXh Z Y ~ ! ^ ! { ^ ^ Y Y ! ! ( _ ) ) <.*.V b N C ",
"B V F G =.>.<.<.~ ( ) _ _ _ ^ ` _ _ ` ` ) ] | ~ X.+.*XzXzX*Xh Q U ~ Q &.=XxXzX;Xh S T ` ^ / ` ` _ ^ _ _ / ~ ` ` ) [ ` *.H N C c ",
"v N v v G H >.<.<.*.<.<.-.*.<.<.1.1.;.;.<.1.2.2.:.%.*XxXlX=X%.,. .2.#.%.bXcXcX*X+.Q } <.>.<.=.=.;.<.<.1.1.<.<.<.=.-.J J G F F v ",
"V V G v v V ` <.*.*.=.*.*.*.*.-.;.;.-.*.=.*.} >.:.%.&X*X*X&X%.| } <.X.&.bX=X*X-X+.Q ,. .>.<.=.>.=.*.-.-.} | :.=.=.=.J n n v n J ",
"v v V m G B G B G G H G G G G G H G V V c V V H E - u y y u - V F G - : u < < i - N H H N H G m V V H J J H V V m G v v G B x v ",
"v B V c B v B F B B B B v n v v V c c c c c c B B N & X & : - c B c X X & # $ & X x N F N N v v N v F F B V V c v G v v v B B F "
};
