/* XPM */
static char *My_project1674830442[] = {
/* columns rows colors chars-per-pixel */
"64 64 238 2 ",
"   c #3D283C",
".  c #5D3B36",
"X  c #4E2E33",
"o  c #623B38",
"O  c #4E321D",
"+  c #774E1B",
"@  c #5D443C",
"#  c #67472D",
"$  c #78532A",
"%  c #644634",
"&  c #6A4433",
"*  c #6C4B33",
"=  c #63453B",
"-  c #6A453C",
";  c #6B4B3D",
":  c #654A38",
">  c #724B3C",
",  c #70433E",
"<  c #73543B",
"1  c #7B5A38",
"2  c #714E30",
"3  c #3B1F48",
"4  c #3E2544",
"5  c #3C2944",
"6  c #3E244C",
"7  c #39284C",
"8  c #3E2652",
"9  c #3A2852",
"0  c #402746",
"q  c #40254E",
"w  c #422A4C",
"e  c #482A46",
"r  c #5D3944",
"t  c #54344B",
"y  c #563B4C",
"u  c #5B3C4C",
"i  c #58374A",
"p  c #422551",
"a  c #482756",
"s  c #452952",
"d  c #45225B",
"f  c #4B2F58",
"g  c #472959",
"h  c #5A3653",
"j  c #563A54",
"k  c #5B3B53",
"l  c #55355C",
"z  c #5A365C",
"x  c #55395C",
"c  c #5A3A5C",
"v  c #543654",
"b  c #4C375E",
"n  c #613C44",
"m  c #623D4C",
"M  c #683F43",
"N  c #623F55",
"B  c #623E5B",
"V  c #563665",
"C  c #5A3664",
"Z  c #553964",
"A  c #5A3964",
"S  c #563769",
"D  c #59366A",
"F  c #563969",
"G  c #5A3A6A",
"H  c #5B3571",
"J  c #5C3A70",
"K  c #573471",
"L  c #513466",
"P  c #623C69",
"I  c #633E72",
"U  c #653F78",
"Y  c #5E4042",
"T  c #5D424D",
"R  c #5D425B",
"E  c #644444",
"W  c #6A4B43",
"Q  c #64424B",
"!  c #6A444A",
"~  c #684947",
"^  c #744C43",
"/  c #6E5248",
"(  c #72534B",
")  c #795647",
"_  c #634353",
"`  c #6B4A53",
"'  c #63425C",
"]  c #69445B",
"[  c #684757",
"{  c #724A58",
"}  c #795854",
"|  c #6B5059",
" . c #7D614A",
".. c #5E4464",
"X. c #5F426D",
"o. c #5E4271",
"O. c #6C4B62",
"+. c #61436E",
"@. c #654665",
"#. c #785666",
"$. c #624372",
"%. c #644379",
"&. c #674777",
"*. c #795B74",
"=. c #84581B",
"-. c #9F7E15",
";. c #A07E1A",
":. c #875C38",
">. c #875F2E",
",. c #9A6E28",
"<. c #9B732A",
"1. c #8A6738",
"2. c #936B36",
"3. c #997636",
"4. c #8D6728",
"5. c #A47A2A",
"6. c #A57B38",
"7. c #835E48",
"8. c #865F5C",
"9. c #896546",
"0. c #936D4B",
"q. c #9B7A4A",
"w. c #957446",
"e. c #876657",
"r. c #946E55",
"t. c #8E7255",
"y. c #997656",
"u. c #A57C44",
"i. c #A17D57",
"p. c #815E72",
"a. c #876A69",
"s. c #846576",
"d. c #997476",
"f. c #927470",
"g. c #A67B67",
"h. c #A5871A",
"j. c #BE961A",
"k. c #AC8829",
"l. c #BD972B",
"z. c #AB8334",
"x. c #AE8C3D",
"c. c #A8853A",
"v. c #B38833",
"b. c #BA9536",
"n. c #B78A29",
"m. c #C6981E",
"M. c #C49C3C",
"N. c #C29527",
"B. c #C5A32C",
"V. c #D7AE2C",
"C. c #D9B52B",
"Z. c #CCAA3D",
"A. c #C9A53A",
"S. c #D5AD3E",
"D. c #D7AC38",
"F. c #D9B53B",
"G. c #EBBC2D",
"H. c #E4B72A",
"J. c #E4BB39",
"K. c #E0AF36",
"L. c #E6C22C",
"P. c #EDC22B",
"I. c #ECC626",
"U. c #F4C92C",
"Y. c #F1C628",
"T. c #ECC534",
"R. c #ECCA34",
"E. c #E9C73B",
"W. c #F3C635",
"Q. c #F5CD38",
"!. c #EED13F",
"~. c #F5D33D",
"^. c #F6D239",
"/. c #9C825D",
"(. c #A88649",
"). c #B48C48",
"_. c #BA954C",
"`. c #BB9948",
"'. c #A98757",
"]. c #B58C58",
"[. c #BD9B54",
"{. c #B79657",
"}. c #AC915C",
"|. c #BBA157",
" X c #9E8368",
".X c #A88663",
"XX c #B3906A",
"oX c #BDA078",
"OX c #C49C48",
"+X c #C49C57",
"@X c #CEA644",
"#X c #CCA749",
"$X c #D4AD46",
"%X c #DAB548",
"&X c #C7A65A",
"*X c #D3AA57",
"=X c #DEBE53",
"-X c #D7B556",
";X c #E4BC42",
":X c #E8BA47",
">X c #E1B956",
",X c #C9A967",
"<X c #D8B969",
"1X c #CBA976",
"2X c #D8B574",
"3X c #DAAB63",
"4X c #E6BE65",
"5X c #DCC447",
"6X c #ECCB44",
"7X c #E4C24C",
"8X c #EDCC4C",
"9X c #E8C647",
"0X c #F4CD44",
"qX c #F2CD4C",
"wX c #F7CC46",
"eX c #EFD24A",
"rX c #F4D345",
"tX c #F4D24B",
"yX c #F9D14A",
"uX c #F9D547",
"iX c #EDCC53",
"pX c #ECC45E",
"aX c #EBCB5A",
"sX c #E6C456",
"dX c #F2CD53",
"fX c #F2CC5A",
"gX c #FCCE5E",
"hX c #EFD055",
"jX c #F4D253",
"kX c #F2D15A",
"lX c #F8D357",
"zX c #E5C363",
"xX c #ECCB63",
"cX c #E9C467",
"vX c #F7D161",
"bX c #EBC777",
"nX c #F1CC61",
"mX c #CBAC80",
/* pixels */
"w 6 w 6 6 6 q q p q q p 6 p 6 6 6 7 w 7 6 9 9 9 7 5 5 5 4 6 6 8 6 6 w 6 p 8 8 w w q w 0 0 w 0 w 6 q q p q 6 p 6 p s 6 p 6 q w q ",
"6 6 w s p p s q a a s s a p s p s s s f s g g g 9 w w 7 w w p s s s s a s g g s s s s w a w s s q p p p s s p a 6 s 6 q w q 6 6 ",
"w 6 6 6 6 w G X.X.+.+.+.+.X.o.X.X...X.X.o.X.o.P I @.+.+.+.+.+.+.+.+.I I I I o.$.+.G +.X.+.X.o.o.$.$.$.$.+.$.+.$.$.X.s 6 q w 6 w ",
"w s 6 s s f X.$.$.$.+.$.&.+.$.$.o.X.o.$.o.$.$.&.I $.$.$.I I +.$.$.$.$.I $.$.$.$.$.$.$.%.%.%.%.%.o.X.+.X.$.+.+.+.$.G f s q q 6 6 ",
"6 p 6 p A X.G C V G G C Z A F F S S Z c C C P H P P C P c A G J D D D D D G D A F V F G D K K D G G G G G G G G A G +.G s p p p ",
"6 p w f X.+.G D V V V V Z V Z Z S C C A P C H H H H z z v z b F D G D D D C Z F Z S S S D D D C F Z V V Z C V V G A X.X.s s q 6 ",
"p s G X.G G V V C S V S V V V V V V C C C C D K H K D V x Z b F D D b F Z Z V Z Z S S S D C C C Z V S V C D V C G C A G X.G s q ",
"p w +.&.V A D V D D D G D S G S C D V D C L S S K K S V x j x Z V F Z x x x x x Z Z S D C C z A A V F D S D D D V G V V +.$.w q ",
"p s $.+.D V S C D D $.&.D V G V D K K S V b l Z Z V A c N i N N j h k u m m u h h A l A C l A z A D S V D D V S D V V G +.+.a p ",
"p s +.+.G V V D G V I I D D G S D G S K G Z x z c k Q o > & > ^ > > > > o o - o r h c z Z l A x V S D G C L S V D V V G +.+.a q ",
"p p +.+.G V V D D C D D S S D V l A L V G z z k r W y.u.6.v.*X3X3X3X*XOX6.6.u.w.# . n t z V S S D S I $.D C P D D C V G X.o.a 6 ",
"p a +.+.G V S S D V V V V G S V l C G D G h Q & 2 =.z.N.m.m.:X:X:XK.%XD.N.N.v.6.=.+ o o y Z S S G G U $.G D G D V S V D +.X.a p ",
"q p X.o.G V V C D G V S G S S Z V l D L h - q.c.@XK.J.H.I.P.G.W.G.Y.P.G.H.V.K.D.M.M.(.9.E T Z D $.$.%.%.%.G G D F S Z G o.X.s p ",
"p a X.+.G V V F V D F V G V V V V l G z ! $ v.j.J.W.W.U.Y.U.I.U.Y.Y.Y.P.G.G.G.H.H.K.b.c.2 T z G $.%.&.%.%.$.G D V V V G +.+.a p ",
"q s $.X.F V V V V V S S S V V V C C B ! 0.z.J.P.I.I.P.Q.U.^.~.R.U.~.rXyXwXwXW.P.Y.L.C.A.c.9.T x Z G +.+.G G S S C V Z F +.o.p 6 ",
"q s o.+.F V S S S V S S S V F Z L z m & (.N.H.I.Y.U.W.W.~.~.!.rX~.uXtXtXlXyXT.P.U.I.L.V.c.w.E j c D $.$.S V G V Z V Z G o.$.s 6 ",
"6 s X.&.F F S V S S A V C F S F S c o $ #X:XP.I.Q.^.wXwXrXuXuXyXtXtXtXeXeXtXuX^.^.^.T.J.A.{.~ y c V D D D D S V V A V F X.+.p p ",
"q s +.o.G Z S F S V V V A V F Z Z y # =.$XE.R.R.^.~.yXyXyXyXtXtXyXtXtXjXeXeXrXrXwXwXW.T.S.+X* u c V G K D D V Z V S F F o.+.p p ",
"w s +.$.G S S S S G V V S V F Z v Q w.z.9XL.^.^.rXyXyXrXrXeXrXtXyXuXtXeXeXjXeXtXyXyXwXwX:X*X$ ~ k l D D D D Z V C S S F +.+.s p ",
"6 p +.o.G S S S S F C G V V F x y % 6.l.F.R.~.rXyXtX0XyXrXrXrXtXuXuXtXtXjXeXrXyXyXyXyXeX7X$X4.< Q l D D D D V A F G S F +.+.p 8 ",
"w s +.o.G S S S S S C V S Z Z x Y # x.B.L.L.rXrXyXyXrXyXrXrXtXtXtXrXtXtXtXtXrXyXyXwX0XyXE.9X#X{.Q c C D S D V V F K F K +.+.w w ",
"6 s X.$.G S S D F C Z S V V F x y # `.D.E.R.rXrXyXyXtXtXrXeXtXtXtXtXeXtXtXuXrXrXyXyXrXrXT.E.$X[.W k A G D G V V F D F F o.+.p p ",
"6 s +.o.G V S S S S S Z V G V Z T @ x.B.6XuXrXtXrXyXtXuXeXeXtXjXtXjXjXtXtXrX~.~.rXqXuXuX~.E.K.+X; k A D D D V V D K D F +.+.p w ",
"w s o.$.G S S S S G V C V V F x y @ _.A.iXlXeXrXuXuXlXjXeXuXtXtXeXeXtXtXuXrXrXrXtXeXjXqXyXwXD.+X; j z C S D V G D G F F o.X.s q ",
"6 s X.$.G S S S S V Z D F V F Z v W _.A.fXqXtXtXyXyXtXtXeXrXeXjXtXeXuXtXtXuXrXuXjXjXaXkXtXqX%X+X; k l A D S V D D K K F o.X.s w ",
"w p X.o.G S S D S D A V C V F Z j : _.@XfXdXjXjXtXtXqXtXrXrXeXuXeXtXeXtXtXuXuXrXjXkXkXjXtXdX:X+XW j c C C D V G F K F F o.X.s 6 ",
"w w $.o.G S S F S V V V Z S S x y : _.@X8XjXjXlXdXtXyXtXrX!.tXtXtXeXeXeXtXyXrXtXjXjXkXeXrX6X$X_.; j c S S G V S F G D K +.X.s q ",
"6 s X.$.G S V S S S G V V V F x T % [.$XhXlXjXkXjXtXtXyX~.rXtXtXeXrXuXuXtXtXrXtXjXeXjXrXuX6X$X+XW c C V D G Z C F D S F +.+.s q ",
"w s X.&.F Z S S G V V C F V F Z y % {.@XiXqXeXeXjXyXrXrXrXrXtXtXtXeXeXrXyXtXrXtXtXqXuXrX!.9XM.].~ j C C D G V Z S F F F X.X.s q ",
"6 s X.$.G F S S S S F C F C S x y : '.OX>XqXtXtXjXtXyXyXrXrXyXtXtXeXtXrXrXtXrXtXtXqXtXuX9X=X_..XQ c C D D D Z C D F S F +.+.s q ",
"6 s o.o.G S S S D S Z V V V F Z v Y 9.6.$XF.6X!.yXyXrXyXrXtXtXtXuXtXeXrXtXtXtXtXlXjXqX9XA.`.9.{ N c D D S D V A Z G S F +.+.w q ",
"w s o.$.G S S S Z D C F Z D Z Z j T 7.9.#XF.6X~.rXrXyXqXeXtXjXtXtXuXtXtXtXeXtXjXfXaXaXsX`.'.} { c l G D S C V Z V D S F +.+.s q ",
"p s X.$.G D S G S V V F S S F b Z v n & [.Z.C.C.Q.yXjXjXeX!.tXuXrXuXtXtXuXrXjXiX-X-Xc.3.(.y.Q B C l Z G Z V A V Z A S G o.$.p 6 ",
"w s X.$.G S V F S A V C S F D F A z h ! ].M.D.V.wX6XjXiXrXrXeXrXuXuXtXeX8XtXjXxX-X+Xq.w.t.a._ Z V Z V V V V V V V S S S $.X.s q ",
"6 s X.$.G S S S G V S V F S L F l x h n 9.2.@XZ.D.V.tXtXrXuXuXuXrXjXjXkXeXhXaXzX4.7.^ ! [ ' A F Z G A V A V V A S G V G o.X.s 6 ",
"p s X.$.G G V G S V V A S S S F Z Z C N 8.9.{.`.Z.Z.eX8X!.!.^.wX6XrXtXeXeXsXzX2X9.{ ] B R ..Z L S F S V V V V G G S S G $.$.s 8 ",
"p f X.&.G S S D S V V C F S S S S S L l N E 9.2.`.A.Z.Z.D.J.G.W.R.Q.9XJ.B.b.x.(.) B P C C c z A S S S V V V V S D F S G o.o.p q ",
"6 s X.X.G G S S G V S Z S S S F S F D S A ' ) 9.(.|.`.M.@XM.:XJ.J.J.%X%Xx.x.w. .{ P I C z l l A F L G G V S G S S S V G $.o.p q ",
"6 f X.&.G S V G S F A S S S S S D D S S o.R X O # 1 4.3.2.5.b.@XOXb.).u.>.1 / ( B P C C z P C C G F o.$.G S G G S G F G o.X.p w ",
"6 s X.X.G S S G S C V V F S S F S D D D $...O O # # 1  .7.9.'.).].'.i.y.> ^ ! [ B h B ] h k C D G F %.&.A V G S S G F G o.&.p 6 ",
"6 s X.&.Z F S G S A V V G S S D K I I I e X e.r.< < # % @ @ : : - - ! ! E u k T O.#.f.f.T y C S %.$.%.$.G V D S S D S F $.$.p 6 ",
"6 f X.+.F G V S S F V S S V S S H H I +.e n e.y.1 1 < * : @ @ @ E = E n T _ _ _ | | f.a.~ y c X.X.X.$.$.G V V V D D S G o.o.p w ",
"8 s o.&.G S S G S C V S D F S F C V G A O.| W ) r.y.'.'.'.}././.t.e.e.e.e.} e.a.} / / ( a.p.c l A A A A Z V D F K F D G o.$.p w ",
"w s X.$.G G S S F C V A Z D S Z b Z Z ..*.*.E ; .X].{.[.|.[.}.(.'.(.(.w.q.q.t.t. .9./ ~ a.p.B +.Z Z V A l V V V F D D F o.o.s 6 ",
"p s X.+.G S V G D Z C V F V S F X.b Z x b R | } 1X2X4XxXpXxXxXzXzXzXzXzXzXzXzXcXbX1Xr.8.} #.O.@.A Z Z Z l Z C V S D S G $.o.p w ",
"w s X.$.G S S S S V F V S S S F Z b x x ....` ) 2XbXxXlXlXjXvXjXhXhXkXkXjXjXkXnXbX2Xr.8.{ @.O.O.x x c x V l Z V F F S G o.$.p 6 ",
"6 s $.$.G G S D G V A V S V S S V z z ' s.s._ ^ ,X-XiXjXqXqXdX8XtXtXhXiXjXkXjXzX&X].^ m P h t y c x l Z V Z Z S S G Z G &.X.s 6 ",
"p s X.$.Z S V G S V V V S F V V C h N ` p.*.T ; ,X*XfXjXjXdX8X8XeXeX9X8XaXkXfXxX_.y./ h B m ~ / E ' c c x V A S D D F F X.+.s 6 ",
"p s o.+.F Z Z F S S S S D S F Z x ' f.d.] N y ~ y.).pXgXaX7Xk.h.%X;X-.h.5XkXgX>X(.9.E j T ~ 1X1X.Xd.m B c A Z S K K C G +.+.p 6 ",
"6 s o.+.A V F C Z D F C Z D V Z Z c d.d.' h c Y y._.4XgXvX7Xh.h.$XZ.-.h.5XkXlX4Xu.r.T y [  .2XbX[..XM h v Z Z F K D D A @.X.s 8 ",
"6 s +.+.G V F S D C S S C F S F C l B B z A h E .X+XpXdXlXhXA.A.5.v.OXS.eXtXgXpX].g.~ `  X}.cXxX-X,X> m x Z Z S F D D A +.+.s 6 ",
"p p &.X.G V D F D D S F F D V S D C P l A P v ` g.OXfXqXeX9XF.#X,.,.$X;XtXlXyX>X].g.Q ~ XX,XzXaXpX,X* i l V F F D D C A +.+.s 7 ",
"p s $.X.G V D C D D D V S Z D S V l J D S l z E 2.5.sXeXeXeX5X%X5.<.%XT.wXwXwX>X>., m { oX2X=XsX#X[.& i c Z V Z S D D G +.+.s w ",
"p s +.+.G V V D V S C D S D G V A C D K D A A Q 1.,.sXhXeXlX5X*X,.,.*X:XwX!.;X*X:.o m ` XX1X,X,X|.}.W y x V V Z S D D G &.+.s 6 ",
"8 p +.+.A V D D D D S D D S V Z v A H L G V v m e.3.xXaXhX5Xk.3.2 & 1.,.n.l.l.x.w.} m r ~ W % % % ; i z A Z x Z S D D H $.$.s w ",
"p a $.+.G V C S S C C D S C S A A v H K V Z P k } 2.zXaXvXzX3.1.= E ^ :.z.v.k.c. .} u y y i i y r y l V A x x Z S D D K U $.s 6 ",
"w s +.&.&.$.G V D S D V S S C Z ..b D K D D Z c r < &X$X-X#X3.9.. y n o 2.,.2.9.@ T j v c x l Z C D K D V x x Z D K S K %.$.6 q ",
"q s A +.$.$.G G C D S C D V S Z b F D K H G S x y : &X-X*X#Xc.9.E T ! > :.:.:.7.T x j x A x V S D K K D l x Z V S D G G o.X.a w ",
"6 6 s f P $.$.X.V V V V S Z Z Z F F Z G C C D l T E {.-X%X%X#X|.@ @  .e.0.9.: Y h l l C c z V S K D G F x Z A G K S X.Z a a 6 q ",
"p q s s +.$.+.+.G G G G G G F F F F G A P D D A T ~ ].#X>X=X-X|.2 @  .e.9.7.E i c G D P A A D G F S G Z c A D G K X.X...a w p w ",
"6 w q 6 a f A &.$.+.$.X.+.X.$.o.o.o.X.+.@.+.$.+...~ t.c.>XpXsX&X< E ~ ~ ! ` [ @.I $.U I @.+.+.+.+.+.+.+.$.@.U %.+.+.w e w 6 w 6 ",
"s s q 4 q s G &.+.+.X.o.$.X.X.X.o.X...@.+.+.$.$...|  .1.4X>X>X&X/ u m N c R R ..@.$.U U $.+.+.X...R ..X.I P I P +.+.0 4 w 6 p q ",
"6 6 q p p q s q s p a p s p s p p s w 0 e a d d w 5 @ # &X-X4X1X% X e w s w w 0 e 0 a d g g s w w e s s a a a a w s 4 w p 8 6 6 ",
"w 6 w q q 3 s q p p 6 p p p 8 w q w 5 4 q p d d p   X O XX*X4X,X. X w 7 g 9 5     0 p d d p w 5 5 6 p p p p p p 0 0 0 6 8 p 6 w "
};
