/* XPM */
static char *My_project1674830184[] = {
/* columns rows colors chars-per-pixel */
"64 64 245 2 ",
"   c #170C02",
".  c #1C0E10",
"X  c #291603",
"o  c #2A1818",
"O  c #27100D",
"+  c #3C2500",
"@  c #3A2900",
"#  c #352216",
"$  c #2E220A",
"%  c #2A1728",
"&  c #331C26",
"*  c #301934",
"=  c #3B252A",
"-  c #3A2738",
";  c #2E2135",
":  c #432B01",
">  c #4C3402",
",  c #4D3A01",
"<  c #4B340B",
"1  c #483909",
"2  c #543B01",
"3  c #573A05",
"4  c #452B1A",
"5  c #4C3B1B",
"6  c #493516",
"7  c #543B1B",
"8  c #573A18",
"9  c #613E0D",
"0  c #4A2D2D",
"q  c #4C3223",
"w  c #4C322B",
"e  c #533923",
"r  c #553729",
"t  c #452B38",
"y  c #4C3438",
"u  c #58383A",
"i  c #633C3A",
"p  c #594404",
"a  c #5C4213",
"s  c #5B4619",
"d  c #534B0F",
"f  c #644503",
"g  c #6B4501",
"h  c #634B03",
"j  c #6C4C01",
"k  c #65470C",
"l  c #724E02",
"z  c #794B03",
"x  c #6D5202",
"c  c #665206",
"v  c #725202",
"b  c #7B5401",
"n  c #745D01",
"m  c #7C5B00",
"M  c #73560A",
"N  c #6C4C14",
"B  c #664515",
"V  c #715212",
"C  c #7B6401",
"Z  c #7B6408",
"A  c #5B4827",
"S  c #5D4238",
"D  c #5F5822",
"F  c #654426",
"G  c #714B25",
"H  c #625224",
"J  c #6C4C32",
"K  c #674636",
"L  c #724A38",
"P  c #745432",
"I  c #3B1F48",
"U  c #3C2543",
"Y  c #3E244B",
"T  c #3D294E",
"R  c #3A2B46",
"E  c #3D2954",
"W  c #41254E",
"Q  c #43294D",
"!  c #442843",
"~  c #4B334C",
"^  c #4E3541",
"/  c #53354C",
"(  c #543A4B",
")  c #5A3A4C",
"_  c #573845",
"`  c #422551",
"'  c #442952",
"]  c #492C55",
"[  c #472D59",
"{  c #4D3558",
"}  c #543954",
"|  c #5B3A54",
" . c #54365D",
".. c #55395C",
"X. c #5A3A5C",
"o. c #563658",
"O. c #633D45",
"+. c #613B53",
"@. c #4D3A63",
"#. c #563665",
"$. c #593564",
"%. c #553964",
"&. c #593965",
"*. c #573768",
"=. c #593669",
"-. c #553969",
";. c #59396A",
":. c #5B3B71",
">. c #583671",
",. c #532F6F",
"<. c #613D73",
"1. c #643F68",
"2. c #594252",
"3. c #654445",
"4. c #6A4951",
"5. c #5E426D",
"6. c #574167",
"7. c #5E4372",
"8. c #61436F",
"9. c #624472",
"0. c #634577",
"q. c #855B01",
"w. c #846202",
"e. c #856607",
"r. c #91751C",
"t. c #9A7B2A",
"y. c #9A7A38",
"u. c #8D7135",
"i. c #A27D2B",
"p. c #A27E36",
"a. c #A4771A",
"s. c #9B7747",
"d. c #987652",
"f. c #8F7247",
"g. c #A17B4C",
"h. c #895F53",
"j. c #AD8C1B",
"k. c #AC8617",
"l. c #B38B19",
"z. c #BB9619",
"x. c #B78F0D",
"c. c #AD8B24",
"v. c #A78526",
"b. c #B18E25",
"n. c #B7932B",
"m. c #AA8539",
"M. c #B48D33",
"N. c #AE9327",
"B. c #BFA62E",
"V. c #9F841B",
"C. c #C79A09",
"Z. c #C49A17",
"A. c #CDA111",
"S. c #EBBC1D",
"D. c #C79E29",
"F. c #C6A325",
"G. c #DBB52A",
"H. c #C7A837",
"J. c #D4AB3B",
"K. c #D8AE33",
"L. c #D5B434",
"P. c #DAB53D",
"I. c #D9B737",
"U. c #D1B236",
"Y. c #E4BD2C",
"T. c #E8BC27",
"R. c #E4BC33",
"E. c #E8BD3A",
"W. c #F3BF37",
"Q. c #ECC61E",
"!. c #F2CA1C",
"~. c #DFC13B",
"^. c #EEC426",
"/. c #ECC32C",
"(. c #E9C52A",
"). c #F3C52C",
"_. c #F3C726",
"`. c #ECC434",
"'. c #E3C23C",
"]. c #ECC53A",
"[. c #EDCB3C",
"{. c #E8C634",
"}. c #F2CB3C",
"|. c #FACD3B",
" X c #F3C535",
".X c #F3D23C",
"XX c #F8D337",
"oX c #F5D22C",
"OX c #A58B5B",
"+X c #AC914D",
"@X c #BEA447",
"#X c #BDA956",
"$X c #BBB158",
"%X c #AF926D",
"&X c #CBA946",
"*X c #D5AE48",
"=X c #D5B443",
"-X c #DBB343",
";X c #D4BB4D",
":X c #D9B949",
">X c #C5AA56",
",X c #D3B352",
"<X c #DBBC52",
"1X c #D9BA58",
"2X c #D0AE56",
"3X c #E3BE4B",
"4X c #E4B944",
"5X c #E2BD54",
"6X c #CFB063",
"7X c #C49F46",
"8X c #DDC14C",
"9X c #D5C043",
"0X c #D8C358",
"qX c #ECCC4B",
"wX c #E8C746",
"eX c #F4CB44",
"rX c #F4CD4A",
"tX c #F6C847",
"yX c #EDD14A",
"uX c #F4D345",
"iX c #FAD343",
"pX c #F4D24C",
"aX c #F9D24B",
"sX c #F9D94A",
"dX c #ECCC52",
"fX c #E5C455",
"gX c #F4CE53",
"hX c #FACD53",
"jX c #EDD153",
"kX c #EDD45A",
"lX c #F4D354",
"zX c #F9D252",
"xX c #F8D35A",
"cX c #D9C167",
"vX c #F5CC60",
"bX c #B59481",
"nX c #D5C8AE",
"mX c #D2D0AE",
"MX c #E3DCBC",
"NX c #F3DBAE",
"BX c #F0E4B7",
"VX c #DED19E",
"CX c #E7DBC5",
"ZX c #F2F0CF",
"AX c #FDF7E3",
/* pixels */
"Q T Q Y Y W W W ` W ` W W W W W Q Q Q Q ` W T T ` T Q T ` ` ` ` ` W T T T T T T E E ` ` Y ` W W W Q W W W W W W Q ' Y W Y Y ` T ",
"Y Y Q ' ' W ] Y ` ` ` ` ` ` ` ` ' ` ` ` ` ] ' ` ` ` ` ' ] / ] ` W Q ' ` ` T ` ' [ [ ` ] ` ` ] ] ` ` ` ` ' Q ' Q Y ' Y W ` W Y W ",
"Q Y Y Y I ` ;.8.9.8.9.8.5.9.<.8.5.8.7.7.7.0.9.8.8.8.8.8.8.8.8.8.1.9.9.0.8.8.8.8.8.5.5.5.1.8.8.8.5.8.9.8.8.5.8.8.9.8.Q W Y ` Y ` ",
"W ' Y ' ' { 8.9.8.8.8.8.8.8.8.8.5.7.0.7.0.<.<.9.8.8.8.8.8.8.8.8.1.<.0.<.9.8.8.8.9.0.7.7.8.8.8.9.7.5.8.8.5.8.5.8.8.;.] ] W T Y Y ",
"Y ` Y ' ;.5.;.#.;.;.;.;.;.;.;.&.-.-.;.>.:.;.;.;.+.1.=.;.;.&.&.&.;.=.=.>.1.$.$.1.-.>.-.-.#.$.$.$.;.;.*.-.;.&.;.;.&.&.5.5.] ` W ` ",
"Q ` W { 1.8.;.=.$.#.#.#.#.#.%.%.%.#.-.-.=.$.$.$.$.$.*.%.#.#.{ { $.#.=.=.$.$.$.$.-.>.@.-.&.+.$.$.#.#.#.#.%.*.#.#.&.$.5.;.] ` Y Y ",
"W ] ;.5.;.;.#.#.#.;.=.;.-.=.*.*.*.-.=.&.#.&.%.*.$.*.*.-.%.@.6.2.....X.X.| | o.o.-.@.-.-.*.#.=.=.#.;.;.;.;.&.;.=.;.*.;.8.6.5.] Y ",
"` W 5.9.#.;.#.$.=.=.=.#.;.;.&.-.*.*.#.#.#.%.%...X.o.} } ( ( ^ 2.( _ _ _ u u _ _ { -.@.-.-.=.=.=.=.#.*.=.*.*.*.#.#.;.#.&.8.5.` ` ",
"` ' 8.8.=.#.=.#.;.=.9.0.=.$.=.#.=.#.;.#.#.%.%...~ ^ y w e 7 e e 7 7 8 8 7 8 e w / {  .{ #.#.#.#.#.=.#.#.;.=.*.=.#.=.#.;.7.9.' W ",
"` ] 8.8.;.#.#.=.;.#.<.0.=.=.;.$.#.#.=.=.*.*.} ( y 6 A B k 9 V g x j j j g f B B r y / {  .X. .%.#.#.;.1.;.=.=.=.*.=.*.;.8.5.' W ",
"W ` 8.8.;.#.#.=.=.#.=.=.*.*.;.=.&.&.#.$.*.#.) u 8 k i.v.k.k.J.4X-XJ.-XJ.j.k.k.t.B 8 r 0 t t { %.$.$.9.0.*.,.>.=.*.=.#.;.8.8.' W ",
"` ' 8.8.;.#.=.#.=.=.#.$.#.#.*.=. .$.=.=.X.) O.F k b k.Z.Z.Z.W.W. XE.W.R.A.z.z.j.b z k e 4 0 ~ o.%.&.8.0.;.=.=.,.=.=.-.;.9.8.' W ",
"W [ <.<.;.#.#.-.*.;.*.*.*.*.#.;.#.$.#.$.+.O.d.m.*XK.Y././.T.).).). X}./.T.S.(.(.R.K.n.p.8 4 & * 6.8.0.0.0.9.;.;.,.*.-.6.7.8.` W ",
"W ` 8.8.;.#.#.=.#.=.*.*.*.*.#.#.#.o.X.o.O.G +Xn.R.).).).).)._._._. X X`.oX(.Q.!.^.T.Z.b.l k # & 2.8.9.8.0.7.*.*.=.-.-.;.9.5.' W ",
"W ` 8.8.-.#.#.#.*.#.*.*.#.#.#.#.,.$.$.+.h.u.-XR.Q.Q.^.}.}.aX.XXXoXoX.X.XpX.X(.^._.^.T.R.c.t.d q ( ..8.8.;.;.-.>.>.=.%.;.7.7.` W ",
"W ' 8.7.;.#.#.*.*.*.*.*.#.*.%.#.$.1.+.O.g.i.R.^.!.!.^.{.:XwXyXuXXXXX.XuXpXuX[.{.G.S.T.T.F.v.p 6 y } 8.8.*.#.>.=.*.-.*.-.9.5.' W ",
"W ' 8.7.;.*.*.&.*.#.&.=.*.&.*.*.#.&.) K >X=XY.).T._./.G.C w.wXjXuXuXiXiXuXpXuX8Xw.q.R.W.~.&Xh 8 u ~ %.&.*.=.*.>.*.*.%.-.7.7.Q Q ",
"Q ` 5.9.;.-.*.-.=.-.#.#.#.#.#.%.%.| 2.P >XwXR.).T.K.L.U.C w.8XpXpXzXrXaXuXuXyXwXq.q.D.E.P.H.M 8 u ( X.&.*.;.*.*.#.#.%.&.7.7.` T ",
"Y ' 8.7.;.*.*.*.=.#.#.&.&.#.-.%.} 3.4.u.=XwX XR.q.b h C H.L.jXlXpXpXgXaXuXiXlXdXE.H.q.9 j b p.s.S ( } ..#.;.*.*.#.&.#.&.7.7.' ` ",
"Q ` 5.9.;.*.*.*.-.=.#.=.#.#.-.%.( S u.m.-X].`.K.q.x x C 9XwXyXpXpXpXlXzXiXuXpXpX4XE.q.q.z q.D.p.F ( } X.%.&.*.*.#.%.#.*.0.7.' Q ",
"Y ' 8.5.;.*.*.*.#.*.#.#.-.#.*.$.+.4.7XJ. X X|.tX5X1X0X0XdXdXpXyXpXlXrXzXpXuXuXuXzXkX5X2X*X-X4X2XJ ( } ..X.;.#.$.#.*.#.-.7.7.[ T ",
"Q ` 9.9.;.*.*.*.*.;.#.&.#.#.%.X.O.O.6X4X X).iXxX0XcX1X1X1X5XgXjXlXzXjXpXpXsXsXqX8X,XcXcX,X=XwX2XJ 2./ ..%.&.%.$.%.*.-.-.7.7.` ` ",
"Y ' 9.7.;.*.*.*.=.#.#.&.#.#.-.%.+.i &X4XXXiXrX;Xd , p 2 3 v 0XjXgXlXpXuXpXpXyX8Xc p 3 3 2 x ;X1XK 2.} ..#.*.%.#.#.%.-.=.0.7.[ E ",
"Q ' 7.7.;.*.*.=.-.=.#.=.#.&.*...O.G 2X].iXyX0X$XD s 1 5 + > $X9XkXlXuXaXpXjX0X$XD = s 5 1 1 #X%XS 2.} #.$.&.#...#.&.-.=.7.7.` ` ",
"Y ' 5.9.;.*.*.*.*.*.*.#.%.#.#.../ J *X~.jX0Xc D mXmXMXmXA @ d c ;XjXuXaXhX<Xj H mXMXMXmXd # A S ( X.%.*.=.*.=.#.%.#.-.-.0.7.' Y ",
"W ' 8.5.;.*.*.*.*.*.#.#.*.*.*...) L ,XwXjX1Xd 1 MXAXAXMXD @ X , 0XjXuXrXhX1X2 5 MXAXAXMXA A y ^ } ..%.*.*.*.*.#.#.#.-.=.7.7.] Y ",
"T ' 5.9.;.*.*.*.#.=.;.#.#.*.*..._ G ,XwXqX;X2 A CXAXAXBX+Xu.@ p 0XjXyXaXvX5X2 d MXZXZXBXOXf.S ( o. .*.-.=.=.-.;.;.#.-.-.7.5.` Y ",
"Q ' 8.7.;.*.*.*.=.;.#.#.#.*.#.o.i G ,XwXpXfX2 7 nXCXBXNX+Xt.< > 1XkXjXyXhX1X, 6 VXBXBXNXOXOXw ^ ..$.=.-.>.=.*.=.=.#.=.-.0.5.' Y ",
"Y ' 8.7.;.-.*.*.-.#.=.#.#.&.#...u G *XwXgX,X3 : 8 A OX+Xc d + 3 1XdXpXpXxX1X2 + 1 H +X+XN 9 r _ | %.#.=.-.*.#.&.*.*.=.-.7.5.' T ",
"Q ' 5.9.;.*.*.*.;.=.&.#.#.#.%.o.u P &X3XxX:Xv > @ : f.y.p 2 p x 0XlXpXpXgX;XM 2 @ : u.u.B 8 L O.| &.#.=.;.=.#.&.*.*.-.-.7.5.' R ",
"Y ' 5.7.;.=.*.*.#.*.#.#.=.#.*..._ F y.M.5XxX=X&X2 @ : > : 2 >X;XqXpXdXdXlXkX;X#X> + < > : 8 d.bX2.X.#.#.&.#.%...&.#.-.-.7.5.] ! ",
"Q ` 8.9.;.-.*.*.*.*.&.#.&.#.*.%.o.3.u.v.3XhXwX=Xh , p , 2 v ;XlXpXyXwXfXdXjXkX0XM > 3 3 3 V %X%X4.$.#.%.&.%.$.%.$.#.-.-.0.5.` Y ",
"Y ] 8.9.;.;.*.-.*.=.#.#.*.*.*.*.X._ F M =XeX}.eX8X;X0X0X<X3XdXgXwXP.C w.=XfXlXqX;X8X;X<X,X>XP 4.X.#.#.#.#.&.=.#.*.;.*.=.7.7.Q W ",
"W ' 5.9.;.=.*.=.*.&.#.*.*.#.*.*.$.) u G &X'..X.XuXjXjXkXrXpXxXgXP.H.e.Z B.:XqXzXsXyXuXqX,X6XL )  .#.#.#.#.#.#.=.*.=.*.-.7.9.` W ",
"W ] 5.9.;.*.*.*.*.#.#.#.*.*.-.-.$.| u 9 M.D.R.{.uXuXuXyXeXyXjX8XC C #X>Xn q.3XrXuX.X[.I.M.g.O.X.%.-.*.*.;.#.#.;.-.=.*.;.9.8.' W ",
"Y ] 8.9.;.-.*.*.*.&.#.*.*.*.-.-. .| _ F y.v.E.'.[.pXuXsXuXuXlX8XC C 0X0Xe.e.3XzXuX.X~.=Xp.d.+.#.%.-.*.%.#.#.*.;.*.;.*.;.9.8.` Q ",
"T ] :.9.;.=.#.;.=.*.&.#.*.*.#.#.$...! 0 B M c.D.'.tXeXeXeXuXzXgX8X8XkXqXfX3XrXeXeXE.n.m.G i } %.%.*.*.%.*.%.*.*.=.-.*.;.9.5.` W ",
"T ] 8.9.;.;.*.*.#.*.&.#.*.*.-.#.{ ..~ y q 8 t.b.J.4X3XtXaXrXaXgXaXpXyXyXrXrXrXwXP.&XM.m.L _  .%.-.%.-.6.%.*.;.#.*.*.*.=.7.8.` W ",
"T ] 5.9.;.-.*.-.=.#.#.#.*.*.-.-.6.%.{ ~ o + 3 9 9 q.l.D.'.{.{.`.`.].[.[.{.Y.F.b.q.j 9 i i | X.#.-.*.5.8.&.#.;.=.*.;.*.;.9.8.' Q ",
"W ' 8.8.;.=.*.=.;.#.&.#.-.#.-.-.@.%. ...% o 4 > 9 z a.l.J.L.G.G.R.K.K.L.L.K.j.i.9 3 8 u / $. .%.*.*.0.0.#.#.;.#.;.-.*.=.9.8.` W ",
"W ] 5.8.;.-.*.=.#.#.#.=.=.-.#.=.*.*.<.9.Y ;     > 3 g g j j x x z z j j x v f h 2 6 = - X.$.$.%.7.7.9.5.;.#.*.*.=.=.=.-.7.9.` W ",
"Y ] 5.9.;.;.#.;.;.#.#.&.=.#.*.*.>.>.0.<.[ T     < 2 l g l v x n l l v x j v j j 3 5 = ! o.#.#.#.0.9.9.9.;.#.*.*.=.-.=.;.9.7.' W ",
"Y ] 7.9.;.;.*.*.=.#.#.#.;.=.-.*.$.=.$.1.6.6..   1 h V.j.H.=XU.L.U.U.:X8X5X<X=X@Xk e y / *.-.-.-.-.-.&.-.#.#.*.#.=.-.=.-.9.9.' W ",
"T ] 5.9.;.-.*.=.;.#.#.;.#.*.*.*.=.=.$.;.@.6.o X 1 p N.F.wX'.{.{.{.[.qXjXgXgXqX,XN 7 u o.#.-.@.@.#.#.#.#.#.#.;.=.=.-.=.-.7.8.Q W ",
"W ] 8.8.=.=.*.;.*.#.&.#.#.#.-.-.@.....{ R - 1 d p j H.I.]. X|.XX.X[.F.D.rXaXrX<XB q 2.|  .#.@.#.-.*.-.*.#.#.;.#.*.;.*.;.9.5.` W ",
"Y ' 5.9.;.-.*.*.*.#.#.#.-.#.-.-...6.{ } ; = d p 3 j P.]./.T.|.XXXX.XF.z.wXrXzXfXN e ) $.*.*.#.$.%.@.#.%.#.#.*.#.*.*.*.=.7.9.` W ",
"` ] 5.9.;.;.*.*.*.#.*.*.=.#.#.-.-...Q t w F y.t.g l K.Y.A.C. X].iX}.Z.Z.eXpXpX;Xh 5 ( #.=.,.=.$.#.#.#.%.#.;.;.-.*.;.*.;.9.9.Q Q ",
"Y ] 5.9.;.*.#.;.*.*.#.#.-.=.#.#.#.%.! 0 F B p.i.l b E.Y.C.C.I.K.eXwXF.n.:X8XkX0Xc 7 ( ;.>.>.<.$.-.#.@.#.#.#.=.*.*.=.#.*.9.8.` W ",
"Y ` 7.5.;.%.*.*.&.*.=.-.#.#.-.*.' Q u r g.y.M l k.j.{.(.C.x.b q.3XaXqX:XC Z 0XcXN 8 ) $.=.=.=.=.=.%.#.-.#.*.*.*.*.*.%.-.7.7.Q Q ",
"T ] 9.8.;.#.%.#.*.*.*.*.=.-.%.*.[ Q w 8 s.y.f h N.n.G.(.Z.x.g v 4XgXlX8Xe.Z >X>XN e | $.=.=.=.#.*.-.-.#.;.=.*.=.%.*.*.&.7.8.' T ",
"Y ] 5.8.;.#.=.=.#.=.#.#.*.*.*.%.%.~ o X 8 a p v ;XqXuXiX{.H.x h :XqXqXxX<X2Xr.k 8 e } #.=.#.*.*.#.-.#.-.-.#.=.#.&.*.*.-.9.8.] T ",
"` ' 9.5.;.#.#.=.=.=.;.*.*.*.-.%.#.~ % o < < > j <XzXuX.X].L.C n B.=XjXgXvX1XM f 8 w } #.*.#.%.%.-.-.#.=.=.#.-.;.#.=.%.*.5.7.` ` ",
"Y ' 8.8.;.#.=.#.#.=.=.*.*.*.&.*.:.-.{ R O X < V 1XhXtXtX X].j.k.n C :XpXzXgXM.y.B y ..*.*.*.#.#.-.#.*.=.*.*.#.=.;.#.#.&.8.5.] Y ",
"` ' 8.9.;.#.=.#.=.=.#.=.*.*.#.-.>.>.;.{ . O 4 N 2XhX|. X XT.Z.j.h c <XqXeX4XN.y.A y ..%.*.*.#.%.*.-.*.*.*.*.=.=.*.=.#.;.5.9.' ` ",
"` ' <.8.&.#.#.=.=.=.#.=.=.=.=.*.>.,.,.#.! t r k M.D.C.C.S._.T.K.l j M.b.D.b.v 8 w t { #.=.=.$.$.*.*.*.*.#.=.=.=.#.=.#.;.7.9.' ` ",
"` ` 9.9.;.#.=.=.=.#.=.=.#.=.-.=.>.,.>.#.o.t w < i.k.x.C.S._._.G.m z i.m.v.t.f 8 t ! ..%.$.=.$.=.*.*.*.#.=.#.=.#.=.=.#.;.8.<.` W ",
"W ' 8.9.0.<.1.#.=.#.=.=.#.#.#.*.-.%.-.%...~ o O 2 l k.Z.T.^.(.(.l.v.l g g f 3 e u o...%...#.$.>.&.*.*.*.*.&.=.=.#.=.#.#.8.9.Y W ",
"W ' 5.8.0.0.=.;.=.=.=.#.;.=.&.%...%.-.&.6.~ .   1 h j.Z.).)./.~.j.r.f 3 g k z i _ / } ..%.#.$.<.=.&.*.*.;.-.=.=.#.#.&.5.5.5.] Q ",
"Y I ] ] 1.9.8.8.#.#.#.#.%.*.#.%.%.%.$.o...{ % # 1 h :XgXaX|.].U.C p p a p.i.p.s.i _ { ..@.-.*.>.#.#.*.%.#.#.#.#.&.;.;.&.] ` W Y ",
"` W Q ] 8.8.8.8.;.;.&.;.;.;.&.*.&.;.$.$.| ( & # k Z 3XzXtXtX-X7Xd p 6 a y.p.+Xg.K ) 6.&.-.6.>.=.;.*.*.;.;.#.&.=.;.;.5.5.] W ` W ",
"W Q W Y ] ] ;.0.9.8.5.9.5.8.8.7.9.0.<.1.2.2.r s @X~.yX}.tX-Xm k @ $ # 4 i 9 G i i | 6.5.7.7.7.0.7.9.5.8.9.8.8.5.9.5.[ ] ` Y Q Y ",
"' ' ` U Q ` ;.0.8.8.8.9.8.5.5.8.9.9.0.8.2.u 7 k &X'.}.}.-X&Xa 6 o & & = q q r r _ o.6.8.7.7.7.9.5.5.7.8.9.<.5.9.9.5.' Y Y W Y T ",
"Y Q W Q ` W ` W ` ` ` ` ` ] ` ' ] ` E E * = q N b.x.Z.x.b f X o - - U - - = 0 = t ! ! ] [ ' Q R ' ` ' ' ` ` ' ' Y ' Y ` Q Y Y Y ",
"Q T W ` W I ] W ` ` ` ` T ` Y Q Y Y E E * & 4 B c.z.x.k.g > X % U Y Q T - ; ; - - ! ! ! Q T R R T Y ` T W W ` ` W Q Y ` Y Q Y T "
};
