/* XPM */
static char *_3d8397180174dbee00a39aea9d239988wKpZaFaiObnjQDt[] = {
/* columns rows colors chars-per-pixel */
"64 64 242 2 ",
"   c #091B2D",
".  c #04192C",
"X  c #051C32",
"o  c #061F37",
"O  c #03212E",
"+  c #02233B",
"@  c #0A253C",
"#  c #0D2A3D",
"$  c #062637",
"%  c #122B3E",
"&  c #0B2B43",
"*  c #0B2E49",
"=  c #032847",
"-  c #122C43",
";  c #0B344E",
":  c #043148",
">  c #123149",
",  c #0D3754",
"<  c #0D3B55",
"1  c #0D3B5B",
"2  c #073B5A",
"3  c #133753",
"4  c #123B55",
"5  c #123B5B",
"6  c #153859",
"7  c #3E244D",
"8  c #3E2747",
"9  c #3D2552",
"0  c #3A2957",
"q  c #0B3D62",
"w  c #113D61",
"e  c #3C3D6F",
"r  c #3D3861",
"t  c #3F3E72",
"y  c #363E78",
"u  c #422646",
"i  c #41254E",
"p  c #48224C",
"a  c #42294E",
"s  c #412846",
"d  c #412550",
"f  c #472C56",
"g  c #492B55",
"h  c #452C5A",
"j  c #492D59",
"k  c #44315D",
"l  c #4D315B",
"z  c #4B3055",
"x  c #51355E",
"c  c #58395E",
"v  c #472F66",
"b  c #4D3466",
"n  c #4E3A65",
"m  c #4E366B",
"M  c #443A6D",
"N  c #4C3B6B",
"B  c #443869",
"V  c #563666",
"C  c #5A3565",
"Z  c #553966",
"A  c #5A3A66",
"S  c #573768",
"D  c #593669",
"F  c #54396A",
"G  c #5A3C6A",
"H  c #463E72",
"J  c #4C3B73",
"K  c #433D7B",
"L  c #493775",
"P  c #5A3671",
"I  c #543B73",
"U  c #5C3C72",
"Y  c #533875",
"T  c #4F2E6B",
"R  c #623C6C",
"E  c #653E6A",
"W  c #633E72",
"Q  c #6B3F70",
"!  c #0D4365",
"~  c #0C456B",
"^  c #0D4A6D",
"/  c #0F4866",
"(  c #134365",
")  c #1A4367",
"_  c #14456C",
"`  c #19456B",
"'  c #12496C",
"]  c #18486C",
"[  c #0E4B74",
"{  c #0E4470",
"}  c #144571",
"|  c #154B73",
" . c #184B78",
".. c #16547B",
"X. c #1B557C",
"o. c #15597E",
"O. c #1A597D",
"+. c #175274",
"@. c #0D507D",
"#. c #2C457C",
"$. c #2B497E",
"%. c #2A4778",
"&. c #354276",
"*. c #3B4374",
"=. c #3B437A",
"-. c #36477B",
";. c #23537B",
":. c #2F476F",
">. c #44426D",
",. c #4B416E",
"<. c #5A4067",
"1. c #55416C",
"2. c #5E426E",
"3. c #584668",
"4. c #434374",
"5. c #4B4273",
"6. c #43437B",
"7. c #46477A",
"8. c #534173",
"9. c #5D4273",
"0. c #5C4479",
"q. c #574679",
"w. c #60436F",
"e. c #68456F",
"r. c #624372",
"t. c #674575",
"y. c #194D84",
"u. c #0D5989",
"i. c #155584",
"p. c #1A5683",
"a. c #145A84",
"s. c #1A5984",
"d. c #14558B",
"f. c #1A558A",
"g. c #155B8D",
"h. c #1A5B8B",
"j. c #0B5D92",
"k. c #0D5E9B",
"l. c #135B94",
"z. c #195C93",
"x. c #155A97",
"c. c #294986",
"v. c #3C4A84",
"b. c #354985",
"n. c #285489",
"m. c #3B598C",
"M. c #3C4890",
"N. c #265996",
"B. c #355A93",
"V. c #12638F",
"C. c #146196",
"Z. c #14649D",
"A. c #1A669C",
"S. c #0B659A",
"D. c #2D669B",
"F. c #27689A",
"G. c #3B639B",
"H. c #336B9B",
"J. c #376798",
"K. c #25709F",
"L. c #1C6CA2",
"P. c #1968A8",
"I. c #1E72AB",
"U. c #1A73A5",
"Y. c #1C79B8",
"T. c #1069A8",
"R. c #246CA4",
"E. c #2C6DA3",
"W. c #246EAA",
"Q. c #2B69A6",
"!. c #326CA3",
"~. c #3C6CA2",
"^. c #3867A6",
"/. c #2272A5",
"(. c #2473AB",
"). c #2A74AB",
"_. c #247AAD",
"`. c #2A74A8",
"'. c #3272AC",
"]. c #3775A6",
"[. c #2474B2",
"{. c #2579B4",
"}. c #2A7AB3",
"|. c #2576B9",
" X c #3778B5",
".X c #236CB1",
"XX c #434984",
"oX c #524582",
"OX c #47598C",
"+X c #455B96",
"@X c #46659A",
"#X c #576A9C",
"$X c #666795",
"%X c #736596",
"&X c #435BA3",
"*X c #476AA7",
"=X c #556AAD",
"-X c #4876AC",
";X c #5676AD",
":X c #437DBC",
">X c #497AB6",
",X c #527BBC",
"<X c #5777B6",
"1X c #4F6CB0",
"2X c #6271AC",
"3X c #685A8B",
"4X c #3D7FC2",
"5X c #2478C2",
"6X c #467DC4",
"7X c #517CC0",
"8X c #2B83B8",
"9X c #3784BB",
"0X c #4785BB",
"qX c #5183B2",
"wX c #2C8ACE",
"eX c #2B88C8",
"rX c #328BCD",
"tX c #3987C7",
"yX c #3994CC",
"uX c #2C8CD2",
"iX c #2B8BD8",
"pX c #338CD3",
"aX c #3D8CD4",
"sX c #358DD8",
"dX c #2D93D8",
"fX c #3291D4",
"gX c #3A96DA",
"hX c #349ADC",
"jX c #3996D8",
"kX c #2990CB",
"lX c #2F98E3",
"zX c #349BE4",
"xX c #389AE5",
"cX c #338FE2",
"vX c #3AA2E9",
"bX c #3EA1F2",
"nX c #4384C3",
"mX c #4489CA",
"MX c #438ED4",
"NX c #4496D7",
"BX c #4293CB",
"VX c #4799E2",
/* pixels */
"8 7 a 7 7 7 i i d d d i d i 7 i 9 d d 9 9 d p p u s s a u d 9 0 8 8 9 9 0 0 0 8 s s u u p i p p d i d d d d i d 7 i i d 7 9 8 8 ",
"i 8 7 7 8 f g f g g j j f h f f f f h h h h g g p g a z g g h h g g j j v h d h f f g g f g z a f f j f j j h g g f d i 7 8 7 i ",
"7 7 7 7 i f Z G G G G <.<.<.G <.3.<.G G 1.U R R E R E E E c R A A A A <.R W W U 1.G R R G <.<.<.<.<.G <.G <.G G G Z f s 7 a a 7 ",
"8 7 a a f l A r.r.2.w.w.r.w.w.9.2.w.e.r.r.9.r.w.r.R E e.w.w.e.r.e.w.e.e.R t.t.G 0.0.W W e.3.w.w.r.2.w.r.w.w.w.w.w.G j g d a 7 7 ",
"d 7 i g Z G R G G G S G G F G A R C R D F F 1.F A Z W D G F V V Y D 1.1.V 1.N 8.Y P I G A A A G F G G G G A G G A G G c f 7 7 d ",
"7 d f x G <.G V V C C V Z Z Z V D D C S F F F M N F T F >.7.H 7.K 7.*.r F n ,.%XY P G D Z Z C S Z Z Z F G V C C V G 2.G x f d i ",
"7 f Z <.G A S S V D V S V S V V S D S S F 1.D Y B oXL K b.B.J.H.D.G.m.*.,.n >.$Xm D S F F F S S G C S C V V S D S V G G G Z z 7 ",
"i l G 2.G A V S S S G S S S V G D S S Z Z F D m v.=XM.&XQ.W.`.U.(.Q.].J.*.,.B ,.N F F F Z N T D V V F S S S S S G V A G <.G l i ",
"d j G w.G C S S S G W W S S V S V G b A D D J b. XaXaXaX|.|.(.I./.(.(.E.G.@Xe ,.,.,.F n F m D C S S S S D S D S V V V G w.G f i ",
"d f <.w.G C S C D D G W G D V S V b F V D Y :.qXaXzXxXlXiXfXeX|._.P.{./.R.J.&.*.$X>.5.U F D C C S D G G G D D D D D C G w.G g d ",
"d g G w.G V S S D D G G S V D S Z V F Y m v.0XtX{.eXzXzXvXzXsX|.x.d.W.).).).B.c.#X=.m P D C c c C G G W G D S D V D V S r.G j i ",
"d g G w.G V S S C S S S S S V V V F F m y ;X9XI._.{.eXwXuXzXxXwXx.d.x.R.}.U.K.D.n.#XoXY R C c c G U r.r.W G D S S V V G w.G g 9 ",
"9 f G r.F Z S F S S S S S S S F n F J 7.;X>Xd.K.U.`.A.A.P.wXcXvXtXl.d.N.W..X_.!.c.<X2XK Y D z <.G r.t.t.r.U G S V V Z G w.<.j d ",
"d f G w.G Z S C S V S V S S F V F F H 2X2Xc.F.`./.K.f.f.d.x.S.jXyXl.y.f.z./.`.A.N.7X<X=.T D <.Z w.r.t.t.t.G G S S V Z G w.G h 7 ",
"i f <.2.G Z V V S S S S V F Z V F B 7.=XK y H._.R.h.i.f.h.p.V.9XBX8XF.p.p.K._._.W.nX<Xv.Y T G n F G 9.9.U G F C V V Z G r.<.f i ",
"i f <.9.F Z C C V S S S V V S S N 1.$Xt oXK F./.E.d.n.p.+.V.+.[ u.9X .} s.a./.U.I.}.6Xc.L P F F Z G 9.9.G C S F V V Z F w.G f 7 ",
"i g <.w.G Z F Z V C C D C D D F V Y F b F =.!.(.z.p.s.O.O.+.| } } | w } X.h.R.(.(.eXaX>XH C F S F F G G G S S G S V C F w.2.j 7 ",
"s g <.w.G Z S S C D C C D D D F D b G F H &.Q.Q.f.i...O.+.| } _ ( ) w w ! [ z.R./.{.uXtXH C S S Z F S S S G C S S V C S w.<.g 9 ",
"s g G w.G S S S T S D D V F F F F F S N *.m.!.z.f.p.O.O...| ' _ 1 w 1 5 q ~ d.C.(.P.fXnX*.C S S F V C S S S S S S S V G r.G f 9 ",
"i g G w.G Z S S D V F F S F N m m S V M m.*XE.i.f.p.s.O.+.| _ _ 2 1 5 5 q q y.f.`._.rXtXH Z V S S F S S S S S S S V V G w.G f i ",
"u g G w.G S S S D V F F N N M 8.F F Z ,.G.E.h.p.p.i.s.X. ._ ( ( 1 1 5 5 , 1 { d.F.}.rXtX4.Z F F Z S S S S S S C S V V G w.G j d ",
"p g E w.G S S S D F F n N N 8.3XN Z n *.H.E.a.p.i.s.O...| _ ( 1 1 1 5 4 5 1 q p.g._.wX:X=.V S S S F S S F C S V S V C G w.<.f 9 ",
"s g G e.D S S S V V G n F N 8.%XF F F *.!.L.g.a.p.a...| ~ } ) 1 < 5 4 3 4 3 < ;.s.L.rXnX=.F F S F F V S S S S G S V Z G r.<.f d ",
"p g G r.G S D D D S D F F M M %XI n 5.&.F.C.u.g.a.s...^ _ ] ` 5 1 5 3 & ; & * ;.i.C.pXnXy L F G Z S S V V S S S S V C G w.G h 7 ",
"s f G w.G D D D D D D D F L m N G F H OXH.z.l. Xg.o.O.' ' _ ) 5 1 4 < & & & > :...C.eX4Xb.H F S S F S S F S F S S V V G w.G f i ",
"i f G r.G D D D D D D D F F F Y T I 6.+XJ.u.k.mXV.O.+.' ' ( ( 3 1 < : # - & $ ; +.C.wXmX+XH b S Z V S S S C S S S S V G w.G f d ",
"s g <.r.F D D D D D D D S D Y D D J y B.n.z.BXNXV.O.+./ ' ( w , 5 < # # - @ X + ..j.pXNX@XH F n S F S S S S C S S V C G r.<.h i ",
"i f <.9.F V V D D D D D S S S P U M -.*XF.F.aXk.a...' / ' ' w 1 4 ; > % @ $ X + ..P.iXNX&X*.I Z Z S V S G C S S S V V G w.G h 7 ",
"d g G r.F F F D D C C C S S S D D L %.D.'.9XjXC.i.X.] _ ' _ 5 4 4 : # # @ o   + o.8XxXaX*X*.b Z S F V S S S A S S S V A w.2.f i ",
"p g G r.G S F V D C V C S S S S P 5.J.E.{.jXNXj.p.X.} _ { / 5 4 4 : # # o   . o o.yXxXsX^.&.N Z Z F S S S S S S S V V G w.G g 9 ",
"p g R 9.F F F F D V V Z C C F S D K J./.Y.hXeXj.p.;.} } { ' < 4 3 & - - o .   + a.eXxXsX^.y 8.Z V F V S C F S S C S C G r.G f 9 ",
"p g R r.G F F F V V V A C Z F S P M m._.uXhXS.u.p.;.} } [ ^ 1 4 6 & # # X .   o a.rXxXsX^.y N A Z S S S S S S S S V Z G w.G f i ",
"i f <.r.G S S S Z V V V D F D S D N -.Q.fXjXj.u.p.;.} ' ^ ^ w 6 6 % & - . O . + d.jXxXrX^.=.n D S S S S S C S G S V V G w.<.j d ",
"i f G 2.G S S S S Z C V D D F S S I %.].NXjXl.f.s.X.| ' ^ _ w 6 > > - @ X O . = l.jXxX}.G.&.Y D S S S S S G S S S V C S w.G g 9 ",
"i f G r.G S S S S C V V F V D S G M %.!.xXjXl...o.X.' } ' _ w 6 6 * & - $ . . + Z.hXgXW.G.t 8.D S F S S S C S S S V V G w.2.f 9 ",
"i f G r.D S S S G V V V S D T F S J @X`.gXfXl.f.p.O.' ` _ _ 5 6 6 * & % O @ o = tXxXeX).J.&.H F S F S S S S S S S V V G w.G f i ",
"i f <.r.G S S S S V C Z V F V F F 4.*X).xXpXx.p.p.O._ ` ] ) 5 5 , * & % % % $ 2 NXjXP.Q.J.-.H F F V S G S S S S V V V G 2.<.j 7 ",
"7 f <.w.G S S S V V C V D D F F D H #.'.NXiXz.y.a.o.' ` ] ) 5 5 1 < * & - @ < qXBXrX(.!.@X*.N V V S G G G S S S S V V G r.G g 9 ",
"i f G r.G S S S S S F C V F V V F J #.>XNXwXz.f.p.X.' _ / ' 1 < 1 4 & = - ; $ 2 d.k.W.!.m.*.F A V G W U D S S S S V C G w.G h i ",
"i f <.2.G S S S S Z C Z D F V F F H v.7XVXpXx.i.s.X.| _ ' / ! 2 < , 5 6 & : : : d.x./.].+XN Z c F 1.r.r.G D S S S S A G w.G h 7 ",
"i f G r.G C F S S C Z F S S F D S 5.XX,XgXwXx.f.p...| _ ( / ! < 5 ; 4 4 < 4 4 5 f.W./.D.K Y Z Z 9.9.t.r.G C S S S V V A w.G j i ",
"i f <.2.G F S S S Z V C A S F S G 5.v.,XaXpXx.f.p...| _ ' ' ( 2 1 4 4 < < 5 3 ( f.`.`.J.L P Z Z G 9.W W G S S S S V V G w.G f 9 ",
"i f <.r.G S S S S C F C S S S F F H XX,XaXpXl.i.p.i.| ` _ ` ( 1 2 4 < ; 4 5 6  .f.R.H.G.K L F F G G G G S S V S S S V G w.2.f i ",
"7 f G r.G S S S S Z C V S S S F F M &.<XaXwXZ.d.s.p.X.} _ ` ) ( w 1 4 < 4 1 w p.C.W.~.#.=.7.F S F F S V S S V S S C V G w.G g 9 ",
"i f G w.G S S S F C V V S S S F F N XX<XaXuX/.d.a.p.X.| } ] ) _ 5 1 1 < 1 ( +.h.L. X^.c.$.#XY D S F V S S V G S S V V G w.<.j 9 ",
"i f G w.D S S S S C A V V V F F Z N L =XMXuX_.g.i.p.n...| } _ ] w 1 < 2 1 +.s.g./.R.B.n.-X;X6.D S S S S S S S S S V V A w.G f i ",
"i f G w.G S S S S Z V C S S S V A F L M.tXwXI./.s.p.p.p...| } ` ` w ) 1 ~ ..i.f.W.Q.z.>X0X-XH F S V S V C S V S S V C G r.G h i ",
"i f G w.G S G D S C Z V S S V V Z F Y y nXfXI.`.h.p.p.s.a.[ } ` ` ) ( / ..a.a./.).[.4XnXnXc.4.F F F S S S S S S S V Z G w.G h 7 ",
"i f <.2.G Z V V F S S C F S F S V F m 6.6XpXY.W.E.i.p.p.i.f.} } ] ` } X...o.j.U..XrXaXMX7Xc.5.V V F V F S S S C S S V F w.2.f 9 ",
"a f <.2.F Z V C C S S S F Z V Z I F V 4.:XpX.X[.}.z.i.p.l.l.@. .} +.p...g.V.U.I.Y.pXMX6X1X=.n c V F F V V G S S S V Z G w.<.f i ",
"d f G r.G V S S F S S S S S F S F n n *.9XfXY.{.I.K.p.u.rXjXl.a.a.a.@.z.g.L.|.|.uXpX6Xn.6.J Z C V V V S S S S S S V V F w.G h i ",
"d h <.r.G V V S S S C F V S V F F F V *.0XrXeX(._._.a.V.eXvXyXA.}.L.u.W._.|.wXsXuXaX>X-.M F C D V F S S S S S F S V Z G r.G h 7 ",
"7 g G w.G C V V S S S C F F S C C C D L 1XmX6X'.Q.Q.W.j.S.kXhXhXdXwXT.pX5XsXcXxXpXmX*X7.N Z V F F C C S S S D D S S S S r.2.g i ",
"d h <.2.G Z S C D S S S S C S A C C D L c.>XN.y.^.'.(.I.U.Y.gXdXzXzXxXxXxXlXbXxXMX-X-.B n V S D S F S S S S D D S S S G r.1.g d ",
"d g G w.G C S S S C S S S S S S C V G I $.,X1XM.B.!./.L.{.|..X5XiXlXxXbXzXlXdXyX-Xm.*.N D R D D S S S S D D D D S D C G r.U h i ",
"d j G r.G G S S D S S S S C S S V S C N &.;X7Xn.b.;.F.}.W.W..X.XY.iXsXiXpXmXtX-X-.e 8.F T P P U S S S S S D D D D D V G 9.G g i ",
"i g G r.r.G G G D D S S S C V F Z Z G F 5.&.7X,X*.>.&.^.'.W.)./.L.{.9X XB.=XXXH n Z N F S D C S S S S S S S S S V V A G r.G j i ",
"i f Z G t.r.G G D D V G S S C Z F Z D T n *.1X;X>.B K +XG.J.D.H.H.H.J.c.y L F S C C Z V D S Z Z V S V V V V D C S V A G G Z g 7 ",
"i i g x w.r.r.G G C C C Z Z F Z x Z D P Y m q.4.#X7.J m H =.-.OX*.*.,.B Y V D D S S D D S F Z Z V Z V V S S S S C G G G V g d i ",
"d 8 8 g Z w.w.r.G G G G G G G G G A U S I G F N $X7.F S F 1.H q.F G Z R W D W D D G P R D F F F F F G G G D G G G G G Z f 7 7 d ",
"i 7 7 a g x G r.r.r.2.w.<.9.w.2.w.w.w.w.0.t.9.e.r.9.0.0.3.3.q.0.r.r.Q Q W 9.9.0.0.9.W W r.r.r.t.r.r.w.w.r.9.r.r.r.Z l f 7 i 7 7 ",
"7 i i 7 i f Z G <.<.2.G G <.<.<.A G w.w.G 1.G A <.w.1.3.3.c 1.G F C W R R 9.9.8.1.1.R R R G U G <.<.<.G G G G 1.<.Z j 7 7 i i 7 ",
"7 7 7 8 7 i f l j j j f f h f z f g g g h h v k f g f g g j z f l j j g g h h k f z g z g g j j f h j j j g j j j j d d 7 7 7 a ",
"a 8 7 7 i i i i d d d d d d i 7 8 i p p 7 8 0 0 7 s p p i 8 p a i 9 9 d d i 9 8 8 s u p p p d 9 d d d 9 d d d d d d 7 7 7 7 7 8 "
};
