/* XPM */
static char *OQ__[] = {
/* columns rows colors chars-per-pixel */
"32 32 39 1 ",
"  c #2B1835",
". c #2D1836",
"X c #2C1937",
"o c #301B3A",
"O c #311C3D",
"+ c #2E2235",
"@ c #302438",
"# c #322639",
"$ c #33273A",
"% c #361F41",
"& c #362042",
"* c #382B40",
"= c #3B2248",
"- c #3D244A",
"; c #3D244B",
": c #40264D",
"> c #413546",
", c #43334C",
"< c #45354E",
"1 c #44384A",
"2 c #45394B",
"3 c #473C4D",
"4 c #473751",
"5 c #4C3F52",
"6 c #4C4053",
"7 c #4E4154",
"8 c #4E4155",
"9 c #54465B",
"0 c #55465B",
"q c #5A4C63",
"w c #5B4D63",
"e c #5C4C63",
"r c #5F4F67",
"t c #5B4B6E",
"y c #62526A",
"u c #6D5A7D",
"i c #766284",
"p c #7E698B",
"a c #877193",
/* pixels */
"::::::::::::::::::::::::::::::::",
"aaaaaa:yyyyyyy:aaaaaa:aaaaaa:aaa",
"yyyyyy:yyyyyyy:yyyyyy:yyyyyy:yyy",
"yyyyyy:yyyyyyy:444444:yyyyyy:444",
"::::::::::::::::::::::::::::::::",
"yyy:yyyyyy:aaaaaa:yyyyyy:aaaaaa:",
"yyy:yyyyyy:yyyyyy:yyyyyy:yyyyyy:",
"444:yyyyyy:yyyyyy:yyyyyy:444444:",
"::::::::::::::::::::::::::::::::",
"aaaaaa:yyyyyyy:yyyyyy:aaaaaa:aaa",
"yyyyyy:yyyyyyy:yyyyyy:yyyyyy:yyy",
"44444<:yyyyyyy:444444:yyyyyy:444",
"::::::::::::::;:::::::::::::::::",
"aaa:yyyyyy-aaaaaa:yyyyyy:aaaaaa:",
"rrr-rrrryr-ryrrrr;rrrrrr;rrrrrr-",
"<<<-rrrrrr-rrrrrr;rrrrrr;<<<<<<;",
"---=----;;;;;;;;;---;;;;;;=;;;;;",
"qqqqrw=ppppppp;qrqqqq=pppppp=qqr",
"qqeqee=wqrqqqq=qwqqre=qqreeq-qqq",
"qqeeee=<,,,,,,=qwqqqe%,4,,,,=qqq",
"&&&&&&&&&&&&&&&&&&%%%%%%&&&&&&&&",
"iii&999099&iiiiii&iiiiii&999000&",
"009#990000&900000%00q00q&099990&",
"555O888888%$***$$#955558O777888O",
"%OoooOOOX@&OOOOOO&OOOOOXOOOOOOOO",
"558558Ouuuuuuu%887777OuuuuuuO777",
"55,223o3333833X333333X833333.373",
"$$#+$$.#$$$$##X333333X$$$$$$.$$$",
"XX XXXXXXXXXXXXXXXXXXXXXXXXX.XXX",
"ttt+tttttt+tttttt+tttttt+tttttt+",
">>>+>>>>>>+>>>>>>+$3>>>>+>>>>>*$",
"++++++++++++++++++++++++++++++++"
};
