/* XPM */
static char *_11674825368[] = {
/* columns rows colors chars-per-pixel */
"64 64 67 1 ",
"  c #2C1736",
". c #2C1B36",
"X c #2F1D39",
"o c #311D3C",
"O c #2D2134",
"+ c #312537",
"@ c #32243A",
"# c #372B3E",
"$ c #382C3E",
"% c #341F41",
"& c #362342",
"* c #392545",
"= c #372A40",
"- c #3C2B45",
"; c #3E254B",
": c #3E2A4A",
"> c #3D3042",
", c #3E3249",
"< c #40274D",
"1 c #412A4D",
"2 c #413547",
"3 c #44334D",
"4 c #47394E",
"5 c #483D4E",
"6 c #452D51",
"7 c #473153",
"8 c #483154",
"9 c #473951",
"0 c #4B3C54",
"q c #4D345A",
"w c #4D3D59",
"e c #523A5E",
"r c #513F62",
"t c #4D4154",
"y c #4F4258",
"u c #504357",
"i c #54445C",
"p c #56485D",
"a c #554563",
"s c #594763",
"d c #574867",
"f c #5B4C64",
"g c #5A4668",
"h c #5E4C6D",
"j c #5F5067",
"k c #5F4F72",
"l c #614D6C",
"z c #605167",
"x c #63536B",
"c c #624D71",
"v c #665474",
"b c #695275",
"n c #6C5B75",
"m c #675578",
"M c #68577A",
"N c #6F597C",
"B c #705C7C",
"V c #74617E",
"C c #765F82",
"Z c #776183",
"A c #786385",
"S c #7A6688",
"D c #7F6A8A",
"F c #816C8C",
"G c #856F91",
"H c #867192",
"J c #8A7496",
/* pixels */
";eCAp6<<<%<;<<<<<<<;;;;;;<<<<<<<;;<;;<<;<<<<<<;;;;;;<<;<<<<<;<;;",
";eCDbeeeeeeq<<6888888888888<<<qeqeeeqeeqeq<<qeeeeeeqeeqq6<qeqeeq",
"%eCGFBFBBCCbq6ezssssssssssse6qbCCCCCCCCCCbqqbCCCCCCCCCCbqqbCCCCC",
"<eCJJGFFFGFBq<zlxxxxxxxxxxxs8qVFFFFFFFFFFBqqNFFFFFFFFFFBqqNFFFFF",
"<eCJJGBnnnnl88sxxxxxxxxxxxxs88xnnnnnbnnnnlq8znnnbbnnnnnz8qznNnnn",
"%rCGFNxfffze68zxxxxxxxxxxxxs88ezfszzszsffp68sxzxxxzxxxxs86ifsssz",
"<rCFcew00ww0<8slxxxxxxlxxxbs8<800e0000eu0818sxxxxxxzxxxs8<8ue0e0",
";qbbe6436436<<ezsssssssssssi6<333383363636<8efspssssssse6<133338",
"<68q436111<<<<8888688886868<<<<<<<11<<<<<<<<688888686666<<<<<<<<",
"<<qeie6<68668868888<<<qeqeeqeeeeeq6<8q8888888866<<qeeeeeeeeeeq6<",
";qbFFbq6ezpzpzpzfsfe8qbCFBBFCCCCCbq6esssssssssze6qbCCCCCCCCCCbq<",
";eBJFNq8sxlxllzlxxxs8qNFFFFFFFFFFBq8fxxxxxxxxxxs8qBGFFFFFFFFGnq;",
";eFFVz86fxxxxxxxxxxs88lnbnnnnnnnnx88sxxxxxxxxxxs6qznnnnnnnnnnxq<",
";qBFne68fxxxxxxxxxxf68sxxlzzxzzxxs68fxxxxxxxxxxf86ezfzfffffzze6<",
"<qFFz8<6sxxxxxxxxxxf88fxxxxxxxxxxs88sxxxxxxxxxxf8<8e000e0e00u8<<",
";qccu6<6ezsezssssffe<6esfssfssssse66effsssssssse6<63633333633<<<",
"<<qq86<<666688688686<<666888888686<<6886888q6686<<<<<<<<<<<<<<<<",
"<<6qeseeeeeq<<68688888888866<<66688888388<<<qeeeeeeeeeeq66qeeeqe",
"<qbFBFFBBFCbq6esssssssssssfe6<ezssssssssse<qbCCCVCVVCCCbqqbCCCCC",
"<qFGJGFFFFFBq8zlxxxxxxxxxxxf88fxxxxxxxxxxs8eBFFFFFFFFFFBqqBFFFFF",
";eCJJFBNnnnl88fxzxxxxxxxxxxf88zlxxxxxxxxxs8qznnnnnnnnnnx8qznVnnn",
";eCHFNlsfffi68fxxxxxxxxxxxxf68ezzszsfffzzp66sxxxxzzxzxxs88essssz",
";eAFxee00e08<8sxxxlxxxxxxxxf8<40e000ue0uu8<8fxxxxxxzxxxf8<5u00e0",
";qbne3334641<8essfzezspsssse6<663648363631<8esssssssssse6<636383",
"<6qq8361111<<<68886888666686<;<<<<<11<<1<<<<688688866666<<<<<<<<",
"<<qepe61668888888686<6qeeeeeeqeee06<68888866q688<<qeeeeqeeeeeq<<",
";qbCAnq6esssssssssse<qbCCCCCBFCBCbq6esssssssssse6qbCCCCCCCCCCbe<",
";eCJGnq6sxxzxzxxxxxs8qNFFFFFFFFFFBq8sxxxxxxxzxxs8qBFFFDFFDFFFnq<",
";qNFBg66szzzzzzlzzli68lnbbnbnnnnbz86pzxzzzzxzzzs68znnnnnnnnnnz8;",
";qNFbe66pzzzzzzzzzxp66pzzzzzzfzzzp66szzzzzzszzzp6<espfpppppsse<;",
";qBFs3<6szzzzzzlzxlp66izzlzxzzzxzs66szzzzzzzzzxp3<850055800056<<",
";6cbe1-1episesiiipie<6eiipieiipeie<1esesisssespe<;166>6136>33<<;",
";66q72;;666666661611;;11666666666<<<16666666666:;;;;;:;;::;:;;;;",
";;8weewqq86<<<8qqqqqqqqq8qq6:;;66666166161;<6qqqqqqqqqq8<;166666",
"%8hNNNNNNbz0<6lNNNNNBNBBCMCh8;0iieppiiiiiw16cNBNNNNNBBBl8;wiiiii",
"%qNGDDAAVBxe<8nAAAAAAAAAAAAm86ijzfffffzpfi18bAAAAAAAAAAb86ejjfff",
"%qCSFAnxxxzi13sxvvxxxvvxxxvf66ifjppjffffji16fxvxkxxxvvvs66ufffff",
";qCSABzfzfzi1<0spippiiipaiiw1:iffjjjfjfzfi11eppipppipppw:,ifjfff",
"%qMSnlzpfzfe6<45990554959904;6ifjfffjjzffi1;490599955993;6ajjjjf",
"%6ccpuiieiu0<&<11:,:1:2:1-:-*;0yyuiututui0:*::::,,11:21-;:tyuuuu",
"%<1722::<<--o<@&*#@****&&&&&&&::-:::::::::&%&*&&****&@&&%&-::1::",
"%%1684*%*<&<<-<<-;1;%*16777776677:**:76666767771*&-1<<1<:;;-;*&@",
"%6gbbs1*400050000ww4;1lbbbbbbvbbbg::gbbbbvbvbbbg1*4000000w0004;o",
"%qbSAb1;0pppipppppp0-1lBBBBBBBBVBk66lVBBNVNNBBBl6;0pppppipppp01%",
"o7bASv6;0pppppppppp0;1izzzzzzzfzji1:ifzfjjjjfjzi-;0pppppppppp0<o",
"%6vZBh1*0upuuupppii0-*4000000twww9*;0puiiyiupui0;-5piiuiuuuii01o",
"o6lBz0#@4uu0uuuuiui5*%-221122->,>-%*5uuuyyyyutu4**4iuuuwuuiii5<X",
"X;rsw3o%144444343343oo@@@#@@###&#@o%154444444442@@144444443441@X",
"o%;:>=oo&&&&*&&&&&&%%X%X%%X%@ooooooo&&##&&*&%%=%oo%&*&&**&&&&&@X",
"%%;:3,:1:::;&%:::,,::::::::;%o&***&*&&&#&&%%::-,1111:::;&X&&&&*&",
"X:rhhhhhhkhw;*rhkjdkkkkhkkka*&24444444t>,,&*akjkllllllha;%,94499",
"o:hNMmvxvvvd;:dvvvMMmvvvvvva;&4tttttt0ttu9&:dkMMbbxbvvvs:&4tt0tt",
" ;dmmkiyuui9@&9upupupuyyuii0@@2t5555tt$2t,@=9ydyiuuiipu0&@2t0tt5",
" ;dvky5,222>X@>22222222,222-X@,55555t2ttt>%O=,222222222-o@:2222,",
" ;dki4=$$$$+.X#======#==$##@X@355555tttt9,@X====$$$$$###.X#=$-$$",
" &wr3-+O+O+...X@O+++++%O@++XXX-,,2,>,>$,,-X.O@@X+++o+++...O+OO++",
".%%*@&X........ .....X%...... %O@o@%@@X@%X............. .. .....",
"***&==**&*&&&****%&*%O%%***%***&*@..%&**&%&=*&**%%%****&*&*&*&X.",
"aadaaayyawrrrraraaa9&=,aarrraryra7&=,rrrrrayrrr,%=waaryarrrrd,=.",
"kkdddaddddddaddddddy==yddddadadddw==yddddddddddr==,ddddddddddy=O",
"kdy,t599t99t,999599,+#,5,,99tt,tt,@#,99955955552O+,9t,t99t999,=O",
"kd,,>>>>>>>>,>>>>>>=++=>,,>,>>>>>=++-,>>>=,>>>>=O==,>>>>>>>>,=+O",
"kd,=++++O++++++++#+++O++#+++++++O++++++@+#+++++++++++++++++++++O",
"kd==OOOOOOOOOOOOOOOOOOOOOOOOOOOOOOOOOOOOOOOOOOOOOOOOOOOOOOOOOOOO"
};
